<?xml version="1.0" standalone="no"?>
<!DOCTYPE svg PUBLIC "-//W3C//DTD SVG 1.1//EN" "http://www.w3.org/Graphics/SVG/1.1/DTD/svg11.dtd" >
<svg>
<metadata>
Created by FontForge 20090914 at Sun Jul 12 13:18:48 2020
 By www-data
</metadata>
<defs>
<font id="WeblySleekUISemilight-Italic" horiz-adv-x="0" >
  <font-face 
    font-family="WeblySleek UI Semilight"
    font-weight="300"
    font-style="italic"
    font-stretch="normal"
    units-per-em="2048"
    panose-1="2 11 4 2 4 2 4 9 2 3"
    ascent="1638"
    descent="-410"
    x-height="1024"
    cap-height="1434"
    bbox="-923 -514 2891 2144"
    underline-thickness="119"
    underline-position="-119"
    slope="-12"
    unicode-range="U+000D-U+FFFD"
  />
<missing-glyph horiz-adv-x="1322" 
d="M166 1398h990v-1398h-990v1398zM1008 148v1102h-694v-1102h694z" />
    <glyph glyph-name=".notdef" horiz-adv-x="1322" 
d="M166 1398h990v-1398h-990v1398zM1008 148v1102h-694v-1102h694z" />
    <glyph glyph-name="uni000D" unicode="&#xd;" 
 />
    <glyph glyph-name="space" unicode=" " horiz-adv-x="563" 
 />
    <glyph glyph-name="exclam" unicode="!" horiz-adv-x="590" 
d="M415 1434h137l-232 -1031h-110zM112 76c0 27.333 9 50 27 68s40.333 27 67 27c25.333 0 47.5 -9 66.5 -27s28.5 -40.667 28.5 -68c0 -26.667 -9.33301 -49 -28 -67s-41 -27 -67 -27c-26.667 0 -49 9.16699 -67 27.5s-27 40.5 -27 66.5z" />
    <glyph glyph-name="quotedbl" unicode="&#x22;" horiz-adv-x="710" 
d="M545 1434h115l-10 -448h-96zM281 1434h115l-10 -448h-95z" />
    <glyph glyph-name="numbersign" unicode="#" horiz-adv-x="1225" 
d="M379 521h-272l19 91h273l69 324h-285l19 92h285l86 406h101l-85 -406h260l87 406h100l-86 -406h268l-20 -91h-267l-70 -325h282l-21 -91h-280l-87 -398h-101l86 398h-260l-85 -398h-101zM760 612l70 325h-261l-70 -325h261z" />
    <glyph glyph-name="dollar" unicode="$" horiz-adv-x="1078" 
d="M94 201c39.333 -25.333 86.3311 -46.834 140.998 -64.501s109.334 -29.167 164.001 -34.5l123 568c-100.667 73.333 -169.667 138.333 -207 195s-56 121.667 -56 195c0 105.333 39.167 193.833 117.5 265.5s181.166 110.167 308.499 115.5l37 174h91l-38 -177
c82.667 -5.33301 164.334 -23.333 245.001 -54l-24 -124c-70.667 41.333 -152 65.333 -244 72l-125 -585c98 -72 166.333 -135.667 205 -191s58 -115.333 58 -180c0 -112 -37.333 -202.667 -112 -272s-177.667 -106.333 -309 -111l-45 -202h-89l43 204
c-54 2.66699 -109.667 11.334 -167 26.001s-103.666 31.667 -138.999 51zM660.998 1332c-82.667 -6.66699 -148.667 -34.668 -198 -84.001s-74 -110 -74 -182c0 -48.667 11.667 -92.667 35 -132s65.333 -82.666 126 -129.999zM491.998 101.998
c85.333 6.66699 151.5 33.332 198.5 79.999s70.5 106.334 70.5 179.001c0 44 -12.5 85.667 -37.5 125s-66.167 81.333 -123.5 126z" />
    <glyph glyph-name="percent" unicode="%" horiz-adv-x="1657" 
d="M1188 -20c-85.333 0 -152.668 25.999 -202.001 77.999s-74 121 -74 207c0 80 17.167 155 51.5 225s81.333 125.167 141 165.5s124.834 60.5 195.501 60.5c83.333 0 149 -25.667 197 -77s72 -120.666 72 -207.999c0 -126 -36.5 -232.667 -109.5 -320
s-163.5 -131 -271.5 -131zM1406 1434h126l-1196 -1434h-127zM436.998 717.999c-85.333 0 -152.668 25.832 -202.001 77.499s-74 121.167 -74 208.5c0 80 17.167 155 51.5 225s81.333 125 141 165s124.834 60 195.501 60c81.333 0 146.5 -25.167 195.5 -75.5
s73.5 -119.833 73.5 -208.5c0 -81.333 -16.333 -156.666 -49 -225.999s-78.5 -124.333 -137.5 -165s-123.833 -61 -194.5 -61zM1193 72.998c76 0 139.166 34.501 189.499 103.501s75.5 151.833 75.5 248.5c0 62 -14.333 110.167 -43 144.5s-69 51.5 -121 51.5
c-75.333 0 -139 -34.667 -191 -104s-78 -152.333 -78 -249c0 -60.667 14.833 -108.334 44.5 -143.001s70.834 -52 123.501 -52zM441.995 811.999c75.333 0 138.333 34.001 189 102.001s76 151 76 249c0 62.667 -14.5 111.167 -43.5 145.5s-69.5 51.5 -121.5 51.5
c-75.333 0 -139 -34.667 -191 -104s-78 -152.333 -78 -249c0 -60.667 15 -108.334 45 -143.001s71.333 -52 124 -52z" />
    <glyph glyph-name="ampersand" unicode="&#x26;" horiz-adv-x="1530" 
d="M990 156c-144 -122.667 -308.001 -184.001 -492.001 -184.001c-124 0 -222.667 33.667 -296 101s-110 154 -110 260c0 102 34.167 188.833 102.5 260.5s180.5 136.834 336.5 195.501c-49.333 70 -82.5 128.167 -99.5 174.5s-25.5 93.166 -25.5 140.499
c0 102 37 186.667 111 254s166.667 101 278 101c103.333 0 186.5 -26.833 249.5 -80.5s94.5 -124.5 94.5 -212.5c0 -93.333 -34.667 -172.333 -104 -237s-177.666 -125 -324.999 -181l306 -418c106.667 119.333 184 262.333 232 429h121
c-55.333 -205.333 -151 -378.666 -287 -519.999l177 -239h-155zM1014 1159c0 58 -19.499 104.667 -58.499 140s-93.5 53 -163.5 53c-76.667 0 -139.334 -22.833 -188.001 -68.5s-73 -105.5 -73 -179.5c0 -38 8.5 -77.833 25.5 -119.5s46.833 -92.5 89.5 -152.5
c133.333 48.667 228 97.167 284 145.5s84 108.833 84 181.5zM926 242.999l-334.998 460c-142.667 -56 -240.167 -110.167 -292.5 -162.5s-78.5 -119.5 -78.5 -201.5c0 -75.333 26.667 -137 80 -185s123.666 -72 210.999 -72c151.333 0 289.666 53.667 414.999 161z" />
    <glyph glyph-name="quotesingle" unicode="'" horiz-adv-x="437" 
d="M278 1434h114l-10 -448h-93z" />
    <glyph glyph-name="parenleft" unicode="(" horiz-adv-x="604" 
d="M292 -289c-111.333 183.333 -167 383.333 -167 600c0 214 42 410.333 126 589s217.333 356.667 400 534h130c-185.333 -182.667 -321.5 -363.167 -408.5 -541.5s-130.5 -368.5 -130.5 -570.5c0 -110 14.667 -218 44 -324s70 -201.667 122 -287h-116z" />
    <glyph glyph-name="parenright" unicode=")" horiz-adv-x="604" 
d="M-162 -289c188 185.333 324.833 367.166 410.5 545.499s128.5 366.833 128.5 565.5c0 223.333 -55.333 427.333 -166 612h117c111.333 -192 167 -392.333 167 -601c0 -209.333 -40.833 -402.666 -122.5 -579.999s-216.5 -358 -404.5 -542h-130z" />
    <glyph glyph-name="asterisk" unicode="*" horiz-adv-x="843" 
d="M473 1050l-286 66l33 104l277 -101l-19 315h114l-18 -315l275 101l34 -104l-284 -66l195 -256l-92 -63l-166 271l-168 -271l-91 63z" />
    <glyph glyph-name="plus" unicode="+" horiz-adv-x="1364" 
d="M244 651h409v407h105v-407h408v-108h-408v-407h-105v407h-409v108z" />
    <glyph glyph-name="comma" unicode="," horiz-adv-x="451" 
d="M143 227h133l-220 -482h-105z" />
    <glyph glyph-name="hyphen" unicode="-" horiz-adv-x="817" 
d="M162 640h547l-25 -108h-547z" />
    <glyph glyph-name="hyphen" unicode="&#x2010;" horiz-adv-x="817" 
d="M162 640h547l-25 -108h-547z" />
    <glyph glyph-name="period" unicode="." horiz-adv-x="451" 
d="M138 -20c-24.667 0 -46.334 9 -65.001 27s-28 40.667 -28 68c0 26.667 9 49 27 67s40 27 66 27c26.667 0 49.334 -9 68.001 -27s28 -40.333 28 -67c0 -26 -9.5 -48.333 -28.5 -67s-41.5 -28 -67.5 -28z" />
    <glyph glyph-name="slash" unicode="/" horiz-adv-x="800" 
d="M875 1434h132l-1041 -1672h-131z" />
    <glyph glyph-name="zero" unicode="0" horiz-adv-x="1111" 
d="M1089 1035c0 -193.333 -27.334 -371.999 -82.001 -535.999s-129.334 -292.333 -224.001 -385s-201 -139 -319 -139c-112.667 0 -199 41.167 -259 123.5s-90 198.5 -90 348.5c0 179.333 29.333 349.666 88 510.999s135.334 285 230.001 371s200.334 129 317.001 129
c108 0 191.5 -36.5 250.5 -109.5s88.5 -177.5 88.5 -313.5zM961.999 1025c0 104 -19.335 184.001 -58.002 240.001s-94 84 -166 84c-70 0 -134.833 -24.833 -194.5 -74.5s-111.5 -119.834 -155.5 -210.501s-78.833 -191.667 -104.5 -303s-38.5 -215 -38.5 -311
c0 -126 20.833 -218.333 62.5 -277s99.167 -88 172.5 -88c86.667 0 165.334 41 236.001 123s129.334 200.167 176.001 354.5s70 308.5 70 462.5z" />
    <glyph glyph-name="one" unicode="1" horiz-adv-x="818" 
d="M549 1293l-366 -106l26 126l499 145l-308 -1458h-127z" />
    <glyph glyph-name="two" unicode="2" horiz-adv-x="978" 
d="M852 1127c0 67.333 -21.501 121.164 -64.501 161.497s-102.5 60.5 -178.5 60.5c-111.333 0 -231.333 -46.333 -360 -139l31 144c102 69.333 219.333 104 352 104c107.333 0 192.666 -28.167 255.999 -84.5s95 -133.166 95 -230.499c0 -82 -12.5 -151.333 -37.5 -208
s-66.5 -112 -124.5 -166s-151.333 -121.667 -280 -203c-105.333 -65.333 -189.5 -121.166 -252.5 -167.499s-109.5 -89.833 -139.5 -130.5s-52 -92.334 -66 -155.001h711l-24 -113h-843l14 69c16 73.333 34.167 130.333 54.5 171s47.333 79.334 81 116.001
s81.334 78 143.001 124s140.167 98.667 235.5 158c116 73.333 199.833 133.333 251.5 180s88.834 93.834 111.501 141.501s34 103.5 34 167.5z" />
    <glyph glyph-name="three" unicode="3" horiz-adv-x="940" 
d="M-26 180c42.667 -28.667 94.332 -51.6631 154.999 -68.9961s116.667 -26 168 -26c122 0 217.167 28 285.5 84s102.5 136.333 102.5 241c0 89.333 -29.667 157.5 -89 204.5s-149 70.5 -269 70.5h-106l26 114h105c148.667 0 260.834 28.167 336.501 84.5
s113.5 136.166 113.5 239.499c0 70 -21.833 125.167 -65.5 165.5s-102.834 60.5 -177.501 60.5c-100.667 0 -203.667 -29 -309 -87l25 130c95.333 44 196 66 302 66c109.333 0 195.833 -28.833 259.5 -86.5s95.5 -134.834 95.5 -231.501c0 -104.667 -32.833 -192 -98.5 -262
s-158.167 -116 -277.5 -138v-4c76.667 -13.333 138.667 -48.833 186 -106.5s71 -127.834 71 -210.501c0 -134.667 -47.167 -242.334 -141.5 -323.001s-222.166 -121 -383.499 -121c-57.333 0 -117.833 7.5 -181.5 22.5s-117.5 33.833 -161.5 56.5z" />
    <glyph glyph-name="four" unicode="4" horiz-adv-x="1087" 
d="M916 1434l136 -0.000976562l-205 -963h224l-24 -114h-224l-76 -357h-124l76 357h-678l24 114c152 138.667 308.833 297.334 470.5 476.001s295.167 341 400.5 487zM723 470.999l159 747.999c-199.333 -251.333 -428.333 -500.666 -687 -747.999h528z" />
    <glyph glyph-name="five" unicode="5" horiz-adv-x="962" 
d="M40 153c33.333 -20 76.335 -36.332 129.002 -48.999s103 -19 151 -19c85.333 0 159.166 15.667 221.499 47s110.166 76 143.499 134s50 125 50 201c0 186 -106.667 279 -320 279c-76 0 -154 -4 -234 -12l190 700h626l-24 -117h-514l-128 -465l117 5
c131.333 0 233.666 -32.333 306.999 -97s110 -155.334 110 -272.001c0 -100 -22.167 -189.167 -66.5 -267.5s-108.166 -138.833 -191.499 -181.5s-182 -64 -296 -64c-120.667 0 -220.667 17 -300 51z" />
    <glyph glyph-name="six" unicode="6" horiz-adv-x="1063" 
d="M270 680c38.667 66.667 89.6738 119.335 153.007 158.002s133.666 58 210.999 58c110 0 196.833 -34 260.5 -102s95.5 -161.667 95.5 -281c0 -99.333 -20.333 -190.5 -61 -273.5s-96.834 -147.833 -168.501 -194.5s-151.834 -70 -240.501 -70
c-123.333 0 -219.333 44.167 -288 132.5s-103 212.166 -103 371.499c0 177.333 33 342.666 99 495.999s155 272.166 267 356.499s237 126.5 375 126.5c81.333 0 156.666 -13.333 225.999 -40l-25 -120c-66.667 34 -139.334 51 -218.001 51
c-94.667 0 -182.834 -28.5 -264.501 -85.5s-151.334 -138.667 -209.001 -245s-95.5 -219.166 -113.5 -338.499h4zM526.007 85.001c62.667 0 119.668 18.1689 171.001 54.502s91.5 87.166 120.5 152.499s43.5 135.333 43.5 210c0 87.333 -23.333 156.5 -70 207.5
s-110.334 76.5 -191.001 76.5c-64 0 -122 -15.833 -174 -47.5s-92.667 -75.334 -122 -131.001s-44 -116.167 -44 -181.5c0 -102.667 24.167 -185.167 72.5 -247.5s112.833 -93.5 193.5 -93.5z" />
    <glyph glyph-name="seven" unicode="7" horiz-adv-x="964" 
d="M97 0c66 180.667 161.498 375.667 286.498 585s295.167 453.333 510.5 732h-732l24 117h896l-14 -68c-186 -243.333 -325.667 -435 -419 -575s-173.666 -274.333 -240.999 -403s-123.666 -258 -168.999 -388h-142z" />
    <glyph glyph-name="eight" unicode="8" horiz-adv-x="1049" 
d="M410 777c-48 27.333 -86.498 64.334 -115.498 111.001s-43.5 102 -43.5 166c0 72.667 19 140.167 57 202.5s91.167 111.5 159.5 147.5s143.5 54 225.5 54c103.333 0 187.333 -28.833 252 -86.5s97 -132.5 97 -224.5c0 -92.667 -25.833 -171.334 -77.5 -236.001
s-122.834 -112 -213.501 -142c62 -26.667 110.5 -68.167 145.5 -124.5s52.5 -118.833 52.5 -187.5c0 -87.333 -22.5 -168 -67.5 -242s-106.833 -132.167 -185.5 -174.5s-163.334 -63.5 -254.001 -63.5c-124 0 -221 32 -291 96s-105 152.667 -105 266
c0 104.667 32.667 197 98 277s154 133.667 266 161zM181.002 343.001c0 -78.667 24.5 -140.834 73.5 -186.501s115.167 -68.5 198.5 -68.5c64 0 124 16.667 180 50s100.167 78.5 132.5 135.5s48.5 118.5 48.5 184.5c0 76.667 -23.333 138.334 -70 185.001
s-108.334 70 -185.001 70c-67.333 0 -130.166 -16.167 -188.499 -48.5s-104.5 -77 -138.5 -134s-51 -119.5 -51 -187.5zM380.002 1043c0 -66 19.999 -119.5 59.999 -160.5s92.333 -61.5 157 -61.5c52 0 102.5 14 151.5 42s88.167 66.167 117.5 114.5s44 100.166 44 155.499
c0 64 -21.167 116 -63.5 156s-97.166 60 -164.499 60c-82.667 0 -153.667 -30.167 -213 -90.5s-89 -132.166 -89 -215.499z" />
    <glyph glyph-name="nine" unicode="9" horiz-adv-x="1072" 
d="M81 135c66.667 -33.333 137.333 -50.002 212 -50.002c152.667 0 282.5 59.5 389.5 178.5s177.167 277.833 210.5 476.5h-4c-38.667 -68 -89.5 -121 -152.5 -159s-131.5 -57 -205.5 -57c-72.667 0 -136.667 17.333 -192 52s-98 82.834 -128 144.501
s-45 129.834 -45 204.501c0 94 20.333 182.333 61 265s97.667 148 171 196s154.333 72 243 72c123.333 0 218.833 -44 286.5 -132s101.5 -211 101.5 -369c0 -177.333 -33.5 -344.333 -100.5 -501s-156.167 -276 -267.5 -358s-237 -123 -377 -123
c-88 0 -162.333 13.333 -223 40zM553.999 633.998c66 0 125.499 16.332 178.499 48.999s94.167 77.5 123.5 134.5s44 117.833 44 182.5c0 107.333 -23.667 192.333 -71 255s-111.666 94 -192.999 94c-63.333 0 -121.333 -18.667 -174 -56s-93.667 -87.666 -123 -150.999
s-44 -131.666 -44 -204.999c0 -90.667 23.833 -163.834 71.5 -219.501s110.167 -83.5 187.5 -83.5z" />
    <glyph glyph-name="colon" unicode=":" horiz-adv-x="451" 
d="M322 855c-24.667 0 -46.335 8.99805 -65.002 26.998s-28 41 -28 69c0 26.667 9.33301 48.834 28 66.501s40.334 26.5 65.001 26.5c26 0 48.5 -9 67.5 -27s28.5 -40 28.5 -66c0 -27.333 -9.66699 -50.166 -29 -68.499s-41.666 -27.5 -66.999 -27.5zM137.999 -20.002
c-24.667 0 -46.334 9 -65.001 27s-28 40.667 -28 68c0 26.667 9 49 27 67s40 27 66 27c26.667 0 49.334 -9 68.001 -27s28 -40.333 28 -67c0 -26 -9.5 -48.333 -28.5 -67s-41.5 -28 -67.5 -28z" />
    <glyph glyph-name="semicolon" unicode=";" horiz-adv-x="451" 
d="M322 855c-24.667 0 -46.335 8.99805 -65.002 26.998s-28 41 -28 69c0 26.667 9.33301 48.834 28 66.501s40.334 26.5 65.001 26.5c26 0 48.5 -9 67.5 -27s28.5 -40 28.5 -66c0 -27.333 -9.66699 -50.166 -29 -68.499s-41.666 -27.5 -66.999 -27.5zM121.999 226.998h133
l-219 -482h-106z" />
    <glyph glyph-name="less" unicode="&#x3c;" horiz-adv-x="1364" 
d="M227 607l846 474v-120l-662 -368v-4l662 -325v-120l-846 426v37z" />
    <glyph glyph-name="equal" unicode="=" horiz-adv-x="1364" 
d="M244 854h922v-107h-922v107zM244 448h922v-107h-922v107zM357 651z" />
    <glyph glyph-name="greater" unicode="&#x3e;" horiz-adv-x="1364" 
d="M308 264l662 324v5l-662 367v121l844 -474v-37l-844 -426v120z" />
    <glyph glyph-name="question" unicode="?" horiz-adv-x="814" 
d="M277 403c18 102 44.5 180.835 79.5 236.502s90.5 109.5 166.5 161.5c87.333 60 147.5 115.667 180.5 167s49.5 107.666 49.5 168.999c0 65.333 -20.167 117.333 -60.5 156s-93.833 58 -160.5 58c-87.333 0 -179 -27.667 -275 -83l23 132c89.333 40 180 60 272 60
c97.333 0 176 -28.5 236 -85.5s90 -131.833 90 -224.5c0 -82 -21.167 -156.167 -63.5 -222.5s-110.833 -132.5 -205.5 -198.5c-68.667 -47.333 -117.167 -91.833 -145.5 -133.5s-50.833 -105.834 -67.5 -192.501h-119zM187 76.002c0 27.333 9.16699 50 27.5 68
s40.5 27 66.5 27c25.333 0 47.5 -9 66.5 -27s28.5 -40.667 28.5 -68c0 -26.667 -9.33301 -49 -28 -67s-41 -27 -67 -27s-48.167 9.16699 -66.5 27.5s-27.5 40.5 -27.5 66.5z" />
    <glyph glyph-name="at" unicode="@" horiz-adv-x="1966" 
d="M1000 -187c-244 0 -435.498 66.3359 -574.498 199.003s-208.5 317.667 -208.5 555c0 165.333 39 316.166 117 452.499s186.167 243.166 324.5 320.499s289.166 116 452.499 116c143.333 0 269.333 -27.667 378 -83s192 -133.833 250 -235.5s87 -218.167 87 -349.5
c0 -106 -19.667 -205.667 -59 -299s-93.166 -167.5 -161.499 -222.5s-143.833 -82.5 -226.5 -82.5c-66.667 0 -118.167 17.333 -154.5 52s-54.5 82 -54.5 142l4 45h-4c-44 -78.667 -91.667 -138 -143 -178s-111.333 -60 -180 -60c-73.333 0 -132.5 27 -177.5 81
s-67.5 126.333 -67.5 217c0 104.667 21 203.667 63 297s99 167.166 171 221.499s150 81.5 234 81.5c108 0 178.333 -47.333 211 -142h4l34 128h108l-125 -498c-18 -68.667 -27 -121.667 -27 -159c0 -45.333 8.66699 -78.166 26 -98.499s47.333 -30.5 90 -30.5
c89.333 0 166 48.5 230 145.5s96 211.167 96 342.5c0 183.333 -53.667 326.666 -161 429.999s-260.333 155 -459 155c-142.667 0 -273 -34.333 -391 -103s-210.167 -163 -276.5 -283s-99.5 -254.333 -99.5 -403c0 -208.667 58.5 -370 175.5 -484s284.167 -171 501.5 -171
c87.333 0 174.166 9.5 260.499 28.5s156.5 41.5 210.5 67.5l-23 -111c-130.667 -56 -282.334 -84 -455.001 -84zM1230 809.003c0 58.667 -14.165 103.167 -42.498 133.5s-68.5 45.5 -120.5 45.5c-60.667 0 -117.834 -22.167 -171.501 -66.5s-96.334 -105.333 -128.001 -183
s-47.5 -161.5 -47.5 -251.5c0 -61.333 14 -110.5 42 -147.5s64.333 -55.5 109 -55.5c65.333 0 124.5 25.667 177.5 77s96.5 123.5 130.5 216.5s51 170.167 51 231.5z" />
    <glyph glyph-name="A" unicode="A" horiz-adv-x="1247" 
d="M749 1434h131l240 -1434h-135l-69 425h-612l-250 -425h-147zM897 544l-98 639.001c-4.66699 36 -7 70.333 -7 103h-4l-9 -22c-4 -10.667 -13.333 -29.834 -28 -57.501s-141.667 -248.5 -381 -662.5h527z" />
    <glyph glyph-name="B" unicode="B" horiz-adv-x="1137" 
d="M378 1434l370.001 -0.000976562c105.333 0 188.666 -28 249.999 -84s92 -130.667 92 -224c0 -100.667 -28.167 -185 -84.5 -253s-135.166 -111.667 -236.499 -131v-4c74 -14 132.333 -47.167 175 -99.5s64 -117.166 64 -194.499c0 -140 -45.333 -249 -136 -327
s-216.334 -117 -377.001 -117h-420zM586.001 801.999c116 0 206.167 27 270.5 81s96.5 128.333 96.5 223c0 64 -20.5 114.833 -61.5 152.5s-99.833 56.5 -176.5 56.5h-228l-111 -513h210zM489.001 118.999c254.667 0 382 105 382 315c0 79.333 -26.833 140.833 -80.5 184.5
s-133.167 65.5 -238.5 65.5h-201l-117 -565h255z" />
    <glyph glyph-name="C" unicode="C" horiz-adv-x="1301" 
d="M722 -25c-176.667 0 -317 55.8311 -421 167.498s-156 261.5 -156 449.5c0 168.667 34.5 318.834 103.5 450.501s165.5 233.834 289.5 306.501s263.333 109 418 109c142 0 271 -31 387 -93l-28 -138c-104.667 75.333 -228 113 -370 113
c-127.333 0 -241.5 -31.167 -342.5 -93.5s-179.833 -149.5 -236.5 -261.5s-85 -237.333 -85 -376c0 -162 41.5 -288.333 124.5 -379s197.5 -136 343.5 -136c138 0 266 33.667 384 101l-31 -141c-60.667 -28 -120 -48.167 -178 -60.5s-123.333 -18.5 -196 -18.5h-6z" />
    <glyph glyph-name="D" unicode="D" horiz-adv-x="1419" 
d="M381 1434l362.998 -0.000976562c197.333 0 350.333 -51.167 459 -153.5s163 -245.166 163 -428.499c0 -170 -34.667 -319.5 -104 -448.5s-169.166 -228.5 -299.499 -298.5s-283.166 -105 -458.499 -105h-429zM510.998 118.999c222.667 0 398.167 64.168 526.5 192.501
s192.5 305.166 192.5 530.499c0 315.333 -171.667 473 -515 473h-228l-255 -1196h279z" />
    <glyph glyph-name="E" unicode="E" horiz-adv-x="1004" 
d="M378 1434h696l-25 -119h-563l-114 -535h522l-25 -119h-523l-115 -542h597l-24 -119h-729z" />
    <glyph glyph-name="F" unicode="F" horiz-adv-x="975" 
d="M378 1434h696l-25 -121h-563l-116 -541h523l-25 -120h-524l-137 -652h-132z" />
    <glyph glyph-name="G" unicode="G" horiz-adv-x="1415" 
d="M1148 608l-347.999 0.000976562l26 117h482l-138 -648c-128.667 -68.667 -266 -103 -412 -103c-122.667 0 -230.5 26 -323.5 78s-164.5 126.833 -214.5 224.5s-75 208.5 -75 332.5c0 166.667 34 314.667 102 444s164.333 229.166 289 299.499
s267.334 105.5 428.001 105.5c143.333 0 281.666 -31.333 414.999 -94l-28 -134c-126.667 73.333 -262.667 110 -408 110c-200 0 -360.333 -66 -481 -198s-181 -305.667 -181 -521c0 -165.333 43.167 -294.5 129.5 -387.5s206.5 -139.5 360.5 -139.5
c99.333 0 192.666 18 279.999 54z" />
    <glyph glyph-name="H" unicode="H" horiz-adv-x="1415" 
d="M378 1434h133l-137 -644h780l138 644h132l-304 -1434h-132l141 669h-781l-140 -669h-133z" />
    <glyph glyph-name="I" unicode="I" horiz-adv-x="503" 
d="M378 1434h133l-304 -1434h-132z" />
    <glyph glyph-name="J" unicode="J" horiz-adv-x="680" 
d="M-78 132c12.667 -10.667 33.166 -19.833 61.499 -27.5s51.5 -11.5 69.5 -11.5c86 0 153.333 29.833 202 89.5s87.334 157.5 116.001 293.5l204 958h132l-203 -952c-39.333 -182 -94.5 -312 -165.5 -390s-168.5 -117 -292.5 -117c-19.333 0 -45.833 3.5 -79.5 10.5
s-56.5 13.833 -68.5 20.5z" />
    <glyph glyph-name="K" unicode="K" horiz-adv-x="1148" 
d="M378 1434h133l-143 -675h4l21 22l714 653h177l-788 -706l508 -728h-163l-452 666l-27 50h-4l-151 -716h-132z" />
    <glyph glyph-name="L" unicode="L" horiz-adv-x="905" 
d="M378 1434h133l-278 -1314h573l-25 -120h-706z" />
    <glyph glyph-name="M" unicode="M" horiz-adv-x="1692" 
d="M379 1434l136.999 -0.00195312l277 -742c20.667 -57.333 33 -103.666 37 -138.999h6c38.667 59.333 69 102.333 91 129l618 752h154l-305 -1434h-127l220 1034c16 72.667 34.667 147.334 56 224.001h-4c-2.66699 -6 -6.33398 -12.833 -11.001 -20.5
s-32 -46.834 -82 -117.501l-614 -746h-56l-277 742c-2 6.66699 -4.83301 15.5 -8.5 26.5s-7.16699 22.833 -10.5 35.5s-6.5 25.834 -9.5 39.501s-4.83301 27.167 -5.5 40.5h-4c-3.33301 -26.667 -9.66602 -66 -18.999 -118s-89.666 -432 -240.999 -1140h-126z" />
    <glyph glyph-name="N" unicode="N" horiz-adv-x="1492" 
d="M378 1434l128.999 -0.000976562l564 -1138c16 -30.667 29.333 -62 40 -94h4l19 123l236 1109h131l-305 -1434h-116l-578 1154c-13.333 26.667 -24.666 56.334 -33.999 89.001h-5l-13 -84l-247 -1159h-128z" />
    <glyph glyph-name="O" unicode="O" horiz-adv-x="1544" 
d="M722 -25c-176.667 0 -317.002 56.501 -421.002 169.501s-156 261.5 -156 445.5c0 163.333 33.833 311.166 101.5 443.499s160.167 236.166 277.5 311.499s248.333 113 393 113c172.667 0 311 -56.167 415 -168.5s156 -259.166 156 -440.499
c0 -160.667 -32.667 -308.5 -98 -443.5s-156.166 -240.5 -272.499 -316.5s-248.166 -114 -395.499 -114zM727.998 94.001c120 0 226.832 31.334 320.499 94.001s167.5 153.667 221.5 273s81 246.666 81 381.999c0 153.333 -40 274.5 -120 363.5s-187.333 133.5 -322 133.5
c-118 0 -225.5 -32.5 -322.5 -97.5s-172.167 -155.5 -225.5 -271.5s-80 -243 -80 -381c0 -154 39.833 -275.167 119.5 -363.5s188.834 -132.5 327.501 -132.5z" />
    <glyph glyph-name="P" unicode="P" horiz-adv-x="1143" 
d="M378 1434l339.999 -0.000976562c132.667 0 235.834 -33.167 309.501 -99.5s110.5 -158.166 110.5 -275.499c0 -154 -50.833 -275.667 -152.5 -365s-240.167 -134 -415.5 -134h-244l-119 -560h-132zM580.999 678.999c136.667 0 241 32.333 313 97s108 155.334 108 272.001
c0 83.333 -26.333 148.666 -79 195.999s-130 71 -232 71h-205l-135 -636h230z" />
    <glyph glyph-name="Q" unicode="Q" horiz-adv-x="1544" 
d="M958 -346l-233.999 321c-178.667 1.33301 -319.834 57.333 -423.501 168s-155.5 259 -155.5 445c0 164 34.833 314.167 104.5 450.5s162.5 240.333 278.5 312s246.333 107.5 391 107.5c172 0 309.833 -55.5 413.5 -166.5s155.5 -259.167 155.5 -444.5
c0 -139.333 -26.333 -271 -79 -395s-126.5 -226.833 -221.5 -308.5s-202.5 -133.167 -322.5 -154.5l266 -335h-173zM728.001 94c119.333 0 226.333 32.001 321 96.001s168.667 154.167 222 270.5s80 243.166 80 380.499c0 152 -39.667 273.167 -119 363.5
s-186.333 135.5 -321 135.5c-118 0 -224.833 -32 -320.5 -96s-171.167 -154 -226.5 -270s-83 -244 -83 -384c0 -154 39.5 -275.167 118.5 -363.5s188.5 -132.5 328.5 -132.5z" />
    <glyph glyph-name="R" unicode="R" horiz-adv-x="1162" 
d="M378 1434l379.001 0.000976562c121.333 0 215.166 -30.833 281.499 -92.5s99.5 -148.167 99.5 -259.5c0 -118.667 -40 -216.834 -120 -294.501s-185 -121.167 -315 -130.5v-4c65.333 -24.667 111 -89.667 137 -195l117 -458h-141l-106 430
c-16.667 66.667 -42.667 116 -78 148s-85 48 -149 48h-143l-133 -626h-132zM600.001 744.001c125.333 0 223.666 29.333 294.999 88s107 138.667 107 240c0 74 -22.667 133 -68 177s-111.666 66 -198.999 66h-249l-121 -571h235z" />
    <glyph glyph-name="S" unicode="S" horiz-adv-x="1018" 
d="M64 199c42.667 -29.333 95.335 -54.167 158.002 -74.5s125 -30.5 187 -30.5c101.333 0 179.666 22.833 234.999 68.5s83 109.167 83 190.5c0 56.667 -16.167 107.5 -48.5 152.5s-93.5 100.167 -183.5 165.5c-90.667 65.333 -154.834 128.5 -192.501 189.5
s-56.5 128.5 -56.5 202.5c0 116 43.167 210.833 129.5 284.5s197.833 110.5 334.5 110.5c103.333 0 205 -19.667 305 -59l-26 -135c-79.333 50.667 -176 76 -290 76c-94.667 0 -170.834 -24.333 -228.501 -73s-86.5 -112 -86.5 -190c0 -62 15.333 -115.333 46 -160
s88.334 -98 173.001 -160c99.333 -72 167.666 -136.667 204.999 -194s56 -121.666 56 -192.999c0 -77.333 -18.5 -146 -55.5 -206s-90.333 -106.5 -160 -139.5s-152.167 -49.5 -247.5 -49.5c-61.333 0 -123.666 7.66699 -186.999 23s-121 36.666 -173 63.999z" />
    <glyph glyph-name="T" unicode="T" horiz-adv-x="1061" 
d="M632 1315h-415l25 119h958l-26 -119h-410l-278 -1315h-133z" />
    <glyph glyph-name="U" unicode="U" horiz-adv-x="1366" 
d="M360 1434l133.001 -0.000976562l-168 -789c-18.667 -84.667 -28 -157 -28 -217c0 -111.333 29.5 -194.833 88.5 -250.5s140.5 -83.5 244.5 -83.5c120.667 0 215.667 34.667 285 104s120.666 180.666 153.999 333.999l192 902h132l-187 -880
c-44.667 -209.333 -113 -358.166 -205 -446.499s-222 -132.5 -390 -132.5c-137.333 0 -246 39.333 -326 118s-120 185.334 -120 320.001c0 71.333 7.33301 141 22 209z" />
    <glyph glyph-name="V" unicode="V" horiz-adv-x="1284" 
d="M238 1434h138l165 -1136c4.66699 -28.667 7 -72 7 -130h4c7.33301 20 19.833 46 37.5 78s247.5 428 689.5 1188h151l-856 -1434h-117z" />
    <glyph glyph-name="W" unicode="W" horiz-adv-x="1830" 
d="M207 1434h138.001l81 -1123l4 -126h4c14.667 42 33 84 55 126l579 1123h98l85 -1126l6 -124h4c22.667 56 47 110.667 73 164l526 1086h146l-719 -1434h-126l-91 1072l-3 137h-5c-12.667 -51.333 -29.334 -96.333 -50.001 -135l-557 -1074h-129z" />
    <glyph glyph-name="X" unicode="X" horiz-adv-x="1179" 
d="M-71 0l626 730c-12.667 37.333 -61.667 159.666 -147 366.999l-138 337h152l201 -537c10.667 -26.667 20 -56 28 -88h4c15.333 28.667 36 58.334 62 89.001l443 536h157l-597 -712l17 -44l271 -678h-151l-208 548l-14 45l-13 46h-4c-19.333 -34 -41 -65 -65 -93
l-456 -546h-168z" />
    <glyph glyph-name="Y" unicode="Y" horiz-adv-x="1119" 
d="M488 542l-257 892h140l182 -674l22 -98h4l53 83l493 689h151l-654 -889l-114 -545h-134z" />
    <glyph glyph-name="Z" unicode="Z" horiz-adv-x="1167" 
d="M1059 1314h-772l25 120h986l-8 -40l-1117 -1274h829l-25 -120h-1037l9 46z" />
    <glyph glyph-name="bracketleft" unicode="[" horiz-adv-x="604" 
d="M408 1434h340l-20 -100h-224l-333 -1560h224l-21 -100h-340z" />
    <glyph glyph-name="backslash" unicode="\" horiz-adv-x="791" 
d="M181 1434h115l344 -1674h-111z" />
    <glyph glyph-name="bracketright" unicode="]" horiz-adv-x="604" 
d="M-123 -226h223l333 1559h-223l20 101h341l-374 -1760h-340z" />
    <glyph glyph-name="asciicircum" unicode="^" horiz-adv-x="1364" 
d="M681 1458h52l418 -791h-121l-319 615h-5l-307 -615h-120z" />
    <glyph glyph-name="underscore" unicode="_" horiz-adv-x="850" 
d="M-149 -178h850l-24 -119h-850z" />
    <glyph glyph-name="grave" unicode="`" horiz-adv-x="661" 
d="M285 1530h123l199 -328h-101z" />
    <glyph glyph-name="a" unicode="a" horiz-adv-x="1089" 
d="M718 0c2.66699 70 14 162 34 276h-4c-61.333 -108 -121.5 -185.167 -180.5 -231.5s-124.5 -69.5 -196.5 -69.5c-92 0 -163.5 32.5 -214.5 97.5s-76.5 156.5 -76.5 274.5c0 127.333 27.5 246.5 82.5 357.5s130 196.167 225 255.5s201.167 89 318.5 89
c86 0 193.333 -13 322 -39l-137 -661c-9.33301 -44 -18.833 -104 -28.5 -180s-14.5 -132.333 -14.5 -169h-130zM883 918c-63.333 14 -127.667 21.001 -193 21.001c-90.667 0 -172.334 -24.667 -245.001 -74s-130.167 -119.333 -172.5 -210s-63.5 -190.334 -63.5 -299.001
c0 -180.667 64 -271 192 -271c54 0 109.333 23.5 166 70.5s108.334 113.5 155.001 199.5s79.667 172.667 99 260z" />
    <glyph glyph-name="b" unicode="b" horiz-adv-x="1089" 
d="M375 1516l126.001 0.000976562l-109 -512l-53 -236h3c102.667 187.333 228 281 376 281c95.333 0 167.666 -32.167 216.999 -96.5s74 -156.833 74 -277.5c0 -130 -27 -249.833 -81 -359.5s-127.167 -193.834 -219.5 -252.501s-195.833 -88 -310.5 -88
c-54 0 -112.167 8.16699 -174.5 24.5s-114.5 37.5 -156.5 63.5zM209.001 136.001c59.333 -34 126.999 -51.002 202.999 -51.002c87.333 0 166.833 25.833 238.5 77.5s127.834 122.5 168.501 212.5s61 187 61 291c0 92.667 -16.167 161.334 -48.5 206.001s-82.5 67 -150.5 67
c-56 0 -112.167 -23.833 -168.5 -71.5s-106.833 -113.167 -151.5 -196.5s-75 -165.666 -91 -246.999z" />
    <glyph glyph-name="c" unicode="c" horiz-adv-x="863" 
d="M443 -25c-113.333 0 -202.167 36.8359 -266.5 110.503s-96.5 174.167 -96.5 301.5c0 121.333 24.167 233.166 72.5 335.499s115.5 182.333 201.5 240s180.667 86.5 284 86.5c96.667 0 178 -22.667 244 -68l-30 -130c-60 58.667 -136 88 -228 88
c-78 0 -149.167 -24.667 -213.5 -74s-114.5 -116.333 -150.5 -201s-54 -174.334 -54 -269.001c0 -98.667 22.667 -175 68 -229s108.333 -81 189 -81c82 0 170.333 34.333 265 103l-30 -138c-53.333 -28.667 -98.333 -48.334 -135 -59.001s-76.667 -16 -120 -16z" />
    <glyph glyph-name="d" unicode="d" horiz-adv-x="1089" 
d="M718 0c2.66699 66.667 13.666 157.67 32.999 273.003h-4c-56 -98.667 -113.667 -173 -173 -223s-127 -75 -203 -75c-91.333 0 -162.666 32.167 -213.999 96.5s-77 156.833 -77 277.5c0 127.333 27 245.666 81 354.999s128.167 194.166 222.5 254.499
s199.5 90.5 315.5 90.5c64 0 132.667 -9.33301 206 -28l105 495h124l-252 -1196c-6 -25.333 -13.167 -77.333 -21.5 -156s-12.5 -133.334 -12.5 -164.001h-130zM881.999 909.003c-61.333 20 -125.664 30 -192.997 30c-90.667 0 -171.834 -24.5 -243.501 -73.5
s-129 -118.833 -172 -209.5s-64.5 -189 -64.5 -295c0 -184 64.333 -276 193 -276c53.333 0 108.166 23.5 164.499 70.5s107.666 112.333 153.999 196s79.833 173.167 100.5 268.5z" />
    <glyph glyph-name="e" unicode="e" horiz-adv-x="975" 
d="M209 388c0 -96 25.3311 -170.501 75.998 -223.501s120.667 -79.5 210 -79.5c91.333 0 189.333 30.667 294 92l-24 -126c-90 -50.667 -186 -76 -288 -76c-127.333 0 -225.333 37.333 -294 112s-103 179.334 -103 314.001c0 115.333 24.833 223.166 74.5 323.499
s116.834 179.5 201.501 237.5s175.667 87 273 87c92.667 0 166.834 -23.167 222.501 -69.5s83.5 -108.166 83.5 -185.499c0 -118 -57.833 -205.667 -173.5 -263s-299.167 -87.333 -550.5 -90zM225.998 548.999c198.667 0 345.003 19 439.003 57s141 97.667 141 179
c0 50 -16.833 88.167 -50.5 114.5s-80.834 39.5 -141.501 39.5c-90.667 0 -172.334 -36.5 -245.001 -109.5s-120.334 -166.5 -143.001 -280.5z" />
    <glyph glyph-name="f" unicode="f" horiz-adv-x="563" 
d="M279 915h-180.999l25 109h180l41 192c46 216 164 324 354 324c43.333 0 84.333 -6 123 -18l-22 -116c-27.333 16.667 -65 25 -113 25c-58.667 0 -105.834 -19.5 -141.501 -58.5s-62.167 -99.833 -79.5 -182.5l-36 -166h258l-26 -109h-257l-268 -1255h-126z" />
    <glyph glyph-name="g" unicode="g" horiz-adv-x="1089" 
d="M-5 -284c97.333 -56.667 190.999 -85.001 280.999 -85.001c113.333 0 203.666 31.833 270.999 95.5s118 169.167 152 316.5l51 230h-4c-58 -101.333 -116.333 -176.333 -175 -225s-125 -73 -199 -73c-92 0 -163.667 32 -215 96s-77 157 -77 279
c0 127.333 26.833 244.833 80.5 352.5s127.834 192.334 222.501 254.001s199 92.5 313 92.5c46 0 101.333 -3.83301 166 -11.5s120 -16.5 166 -26.5l-199 -938c-43.333 -199.333 -110.166 -341.5 -200.499 -426.5s-213.5 -127.5 -369.5 -127.5
c-101.333 0 -197.333 24.667 -288 74zM882.999 917.999c-58.667 14 -125.999 21.001 -201.999 21.001c-86.667 0 -166.167 -24.833 -238.5 -74.5s-129.333 -119.334 -171 -209.001s-62.5 -187.5 -62.5 -293.5c0 -184.667 62.333 -277 187 -277c58 0 116.167 24.5 174.5 73.5
s110.166 116.333 155.499 202s77 170.167 95 253.5z" />
    <glyph glyph-name="h" unicode="h" horiz-adv-x="1120" 
d="M377 1516h124.999l-161 -758h4c122 194 258.333 291 409 291c85.333 0 149.333 -24.167 192 -72.5s64 -118.166 64 -209.499c0 -9.33301 -1.33301 -23.333 -4 -42s-6.66699 -44.167 -12 -76.5s-50 -248.5 -134 -648.5h-127l123 594c16.667 77.333 25 130 25 158
c0 124.667 -54 187 -162 187c-54 0 -112.667 -22.5 -176 -67.5s-118.666 -102.833 -165.999 -173.5s-78.333 -141.334 -93 -212.001l-104 -486h-127z" />
    <glyph glyph-name="i" unicode="i" horiz-adv-x="475" 
d="M265 1024h126.999l-153 -721c-13.333 -68 -20 -115 -20 -141c0 -47.333 25.667 -71 77 -71c30.667 0 58.334 4.66699 83.001 14l-21 -102c-33.333 -13.333 -69 -20 -107 -20c-52 0 -91.833 13.5 -119.5 40.5s-41.5 66.5 -41.5 118.5c0 36.667 7.66699 91.667 23 165z
M401.999 1281c-25.333 0 -46.833 9.16699 -64.5 27.5s-26.5 39.833 -26.5 64.5c0 26 9 47.167 27 63.5s39.333 24.5 64 24.5s46 -8.16699 64 -24.5s27 -37.5 27 -63.5s-9.16699 -47.833 -27.5 -65.5s-39.5 -26.5 -63.5 -26.5z" />
    <glyph glyph-name="j" unicode="j" horiz-adv-x="457" 
d="M-378 -324c44 -32 89.6699 -48 137.003 -48c77.333 0 139.166 30.167 185.499 90.5s83.833 158.833 112.5 295.5l215 1010h126l-208 -979c-40.667 -190 -95.334 -325.167 -164.001 -405.5s-162.334 -120.5 -281.001 -120.5c-26.667 0 -54.5 3.83301 -83.5 11.5
s-50.167 15.5 -63.5 23.5zM316.003 1373c0 26 9.16504 47.167 27.498 63.5s39.833 24.5 64.5 24.5s45.834 -8.16699 63.501 -24.5s26.5 -37.5 26.5 -63.5c0 -25.333 -8.66699 -47 -26 -65s-38.666 -27 -63.999 -27c-13.333 0 -25.333 4.66699 -36 14
c-16 5.33301 -29.333 14.833 -40 28.5s-16 30.167 -16 49.5z" />
    <glyph glyph-name="k" unicode="k" horiz-adv-x="943" 
d="M377 1516h125l-203 -952h4l542 460h169l-587 -489l384 -535h-150l-365 529h-4l-112 -529h-127z" />
    <glyph glyph-name="l" unicode="l" horiz-adv-x="475" 
d="M370 1516h126.999l-258 -1213c-13.333 -68 -20 -115 -20 -141c0 -47.333 25.667 -71 77 -71c30.667 0 58.334 4.66699 83.001 14l-21 -102c-33.333 -13.333 -69 -20 -107 -20c-52 0 -91.833 13.5 -119.5 40.5s-41.5 66.5 -41.5 118.5c0 41.333 7.66699 96.333 23 165z
" />
    <glyph glyph-name="m" unicode="m" horiz-adv-x="1728" 
d="M259 1024l122.999 -0.00195312c-9.33301 -71.333 -23.666 -160.666 -42.999 -267.999h4c121.333 195.333 251.666 293 390.999 293c82.667 0 142.834 -24.667 180.501 -74s57.167 -122 58.5 -218c58 92.667 121.667 164.5 191 215.5s140.333 76.5 213 76.5
c160.667 0 241 -92.667 241 -278c0 -39.333 -10 -107.333 -30 -204l-121 -567h-125l122 594c16.667 76.667 25 132.334 25 167.001c0 118.667 -49 178 -147 178c-48.667 0 -102.167 -21.667 -160.5 -65s-111.333 -101 -159 -173s-79.167 -142 -94.5 -210l-104 -491h-127
l124 594c16.667 76.667 25 129.334 25 158.001c0 124.667 -49 187 -147 187c-48.667 0 -102.5 -22 -161.5 -66s-112.5 -102.5 -160.5 -175.5s-79 -142.833 -93 -209.5l-104 -488h-127l158 735c26.667 129.333 42.667 225.666 48 288.999z" />
    <glyph glyph-name="n" unicode="n" horiz-adv-x="1126" 
d="M263 1024l122.998 -0.000976562c-9.33301 -71.333 -23.666 -160.666 -42.999 -267.999h4c58 94 122.333 166.333 193 217s143.334 76 218.001 76c171.333 0 257 -92.667 257 -278c0 -36.667 -10.667 -104.667 -32 -204l-120 -567h-126l123 594c16 81.333 24 134 24 158
c0 124.667 -53.667 187 -161 187c-53.333 0 -111.666 -22.5 -174.999 -67.5s-118.833 -102.667 -166.5 -173s-78.834 -140.5 -93.501 -210.5l-104 -488h-127l158 735c18.667 92.667 34.667 189 48 289z" />
    <glyph glyph-name="o" unicode="o" horiz-adv-x="1077" 
d="M449 -25c-114 0 -204 35.167 -270 105.5s-99 168.5 -99 294.5c0 124 23.5 237.833 70.5 341.5s113 185 198 244s178.5 88.5 280.5 88.5c113.333 0 203 -35.5 269 -106.5s99 -168.5 99 -292.5c0 -126 -23.5 -240.833 -70.5 -344.5s-112.333 -184.667 -196 -243
s-177.5 -87.5 -281.5 -87.5zM458 85c75.333 0 144.665 24.6689 207.998 74.002s112.833 116.666 148.5 201.999s53.5 178.666 53.5 279.999c0 96.667 -22.167 170.5 -66.5 221.5s-105.166 76.5 -182.499 76.5c-114 0 -210.833 -53.5 -290.5 -160.5
s-119.5 -238.833 -119.5 -395.5c0 -93.333 22.333 -166.333 67 -219s105.334 -79 182.001 -79z" />
    <glyph glyph-name="p" unicode="p" horiz-adv-x="1089" 
d="M234 1024l128 -0.000976562c0 -23.333 -4.33301 -68.333 -13 -135s-15.667 -113.667 -21 -141h4c110.667 200.667 239.667 301 387 301c92.667 0 164.167 -31.667 214.5 -95s75.5 -156.333 75.5 -279c0 -127.333 -27.5 -245.833 -82.5 -355.5s-129 -194.5 -222 -254.5
s-195.5 -90 -307.5 -90c-74.667 0 -146.667 13 -216 39l-104 -492h-126l250 1182c8 41.333 15.5 98.833 22.5 172.5s10.5 122.834 10.5 147.501zM203 124.999c58.667 -26.667 128 -40.002 208 -40.002c87.333 0 167 25.667 239 77s128.333 121.5 169 210.5
s61 185.833 61 290.5c0 184 -65.333 276 -196 276c-54.667 0 -111.167 -24.667 -169.5 -74s-110.333 -115.666 -156 -198.999s-77.5 -168.666 -95.5 -255.999z" />
    <glyph glyph-name="q" unicode="q" horiz-adv-x="1089" 
d="M748 257l-3.00195 0.000976562c-54 -92.667 -111.167 -162.834 -171.5 -210.501s-127.5 -71.5 -201.5 -71.5c-93.333 0 -165.333 32 -216 96s-76 156.667 -76 278c0 127.333 27.333 245.833 82 355.5s128.834 194.5 222.501 254.5s200.167 90 319.5 90
c102.667 0 210.334 -16.667 323.001 -50l-313 -1477h-126c94.667 444.667 148 689.667 160 735zM881.998 909.001c-66 20 -130.667 29.999 -194 29.999c-90 0 -171.333 -25.167 -244 -75.5s-130 -120.833 -172 -211.5s-63 -187.667 -63 -291c0 -184 64.333 -276 193 -276
c54 0 110 24.333 168 73s109.333 113.834 154 195.501s77 168.5 97 260.5z" />
    <glyph glyph-name="r" unicode="r" horiz-adv-x="704" 
d="M256 1024h125.001l-34 -234h4c45.333 86.667 92.833 151.5 142.5 194.5s106.834 64.5 171.501 64.5c38 0 73.667 -7 107 -21l-23 -135h-4c-36 23.333 -73 35 -111 35c-72.667 0 -142.834 -45.167 -210.501 -135.5s-116.5 -204.5 -146.5 -342.5l-96 -450h-126l143 672
c31.333 140.667 50.666 258 57.999 352z" />
    <glyph glyph-name="s" unicode="s" horiz-adv-x="801" 
d="M48 166c31.333 -23.333 70.5 -42.6631 117.5 -57.9961s91.833 -23 134.5 -23c73.333 0 129.166 14.833 167.499 44.5s57.5 73.167 57.5 130.5c0 39.333 -12 73.166 -36 101.499s-67.667 61.833 -131 100.5c-71.333 42.667 -123.166 85.667 -155.499 129
s-48.5 94 -48.5 152c0 88 32.333 161 97 219s148.667 87 252 87c38 0 79.333 -4.33301 124 -13s84 -21.334 118 -38.001l-26 -123c-66 42.667 -140 64 -222 64c-64.667 0 -116.5 -16.833 -155.5 -50.5s-58.5 -77.5 -58.5 -131.5c0 -39.333 10.667 -73.333 32 -102
s64 -62 128 -100c77.333 -47.333 131.833 -92.5 163.5 -135.5s47.5 -92.167 47.5 -147.5c0 -90.667 -33 -162.834 -99 -216.501s-156 -80.5 -270 -80.5c-46 0 -93.167 6.16699 -141.5 18.5s-88.833 28.166 -121.5 47.499z" />
    <glyph glyph-name="t" unicode="t" horiz-adv-x="633" 
d="M277 915l-178.998 -0.000976562l25 109h176l55 259l135 41l-64 -300h267l-25 -109h-265l-127 -597c-12 -54 -18 -98 -18 -132c0 -33.333 7 -57.666 21 -72.999s37.333 -23 70 -23c31.333 0 82.333 15.667 153 47l-25 -114
c-22.667 -11.333 -49.834 -21.166 -81.501 -29.499s-58.834 -12.5 -81.501 -12.5c-122.667 0 -184 63.333 -184 190c0 39.333 6.33301 86.666 19 141.999z" />
    <glyph glyph-name="u" unicode="u" horiz-adv-x="1122" 
d="M260 1024h126.001l-124 -594c-16 -81.333 -24 -134 -24 -158c0 -124.667 53.667 -187 161 -187c52 0 108.167 20.833 168.5 62.5s116 98.834 167 171.501s84.5 145 100.5 217l104 488h126l-157 -736c-22.667 -104 -38.667 -200 -48 -288h-123l43 268h-4
c-58 -94 -122.333 -166.333 -193 -217s-143 -76 -217 -76c-86.667 0 -151.334 24.5 -194.001 73.5s-64 118.5 -64 208.5c0 19.333 3.5 50.666 10.5 93.999s13.833 78.333 20.5 105z" />
    <glyph glyph-name="v" unicode="v" horiz-adv-x="947" 
d="M138 1024h127l114 -733c8 -52.667 12 -100 12 -142h4c20.667 47.333 40.667 87.333 60 120l437 755h143l-617 -1024h-109z" />
    <glyph glyph-name="w" unicode="w" horiz-adv-x="1427" 
d="M134 1024l123.999 -0.000976562l58 -805v-12v-14l-4 -53h7c10.667 34 23 64.667 37 92l418 792h101l59 -823l-5 -62h8c10.667 36.667 22.667 67.334 36 92.001l395 793h130l-531 -1024h-119l-61 748l-2 38l4 58h-4c-3.33301 -9.33301 -8.16602 -21.5 -14.499 -36.5
s-147.833 -284.167 -424.5 -807.5h-120z" />
    <glyph glyph-name="x" unicode="x" horiz-adv-x="906" 
d="M381 507l-229 517h138l158 -398l14 -44h5l58 76l308 366h147l-461 -525l234 -499l-142 -1l-174 426h-5l-58 -76l-294 -349h-155z" />
    <glyph glyph-name="y" unicode="y" horiz-adv-x="957" 
d="M-139 -348c21.333 -12 47.667 -18 79 -18c48 0 91.167 14 129.5 42s75.833 71.333 112.5 130l129 203l-183 1015h129l134 -809l7 -77h4l27 53l496 833h142l-742 -1205c-71.333 -114 -136.5 -192.5 -195.5 -235.5s-126.167 -64.5 -201.5 -64.5c-37.333 0 -68 5 -92 15z
" />
    <glyph glyph-name="z" unicode="z" horiz-adv-x="939" 
d="M768 915h-584l24 109h788l-7 -40l-828 -875h625l-24 -109h-825l9 48z" />
    <glyph glyph-name="braceleft" unicode="{" horiz-adv-x="604" 
d="M198 369c0 87.333 -40.666 137.335 -121.999 150.002l20 86c59.333 8 104.666 28.167 135.999 60.5s55.333 87.166 72 164.499l64 298c21.333 103.333 59 179.666 113 228.999s130 74.666 228 75.999l-20 -97c-57.333 -1.33301 -102 -19 -134 -53
s-55.667 -87.667 -71 -161l-63 -292c-16.667 -76.667 -41 -137.167 -73 -181.5s-74.667 -74.833 -128 -91.5v-4c64 -25.333 96 -83.666 96 -174.999c0 -31.333 -3.66699 -63.666 -11 -96.999l-59 -271c-9.33301 -39.333 -14 -74 -14 -104c0 -37.333 9.66699 -66.333 29 -87
s52 -32.667 98 -36l-20 -93c-77.333 3.33301 -134 23.5 -170 60.5s-54 86.167 -54 147.5c0 20.667 3.66699 50.667 11 90l61 290c7.33301 33.333 11 63.666 11 90.999z" />
    <glyph glyph-name="bar" unicode="|" horiz-adv-x="476" 
d="M179 1567h118v-2048h-118v2048z" />
    <glyph glyph-name="braceright" unicode="}" horiz-adv-x="604" 
d="M385 566v4.00195c-64.667 25.333 -97 83.666 -97 174.999c0 26 3.66699 58.667 11 98l58 270c9.33301 38.667 14 73 14 103c0 38 -9.33301 67.333 -28 88s-51.334 32.334 -98.001 35.001l19 94c150 -6.66699 225 -76 225 -208c0 -26.667 -3.66699 -56.667 -11 -90
l-61 -290c-7.33301 -32 -11 -62.333 -11 -91c0 -88.667 40.667 -138.334 122 -149.001l-20 -88c-60 -6.66699 -105.5 -26.834 -136.5 -60.501s-54.833 -88.5 -71.5 -164.5l-64 -297c-24 -108.667 -63.167 -186.5 -117.5 -233.5s-128.5 -70.5 -222.5 -70.5l19 95
c58.667 2.66699 103.834 21 135.501 55s55.167 87.333 70.5 160l61 291c16 76 40.167 136.333 72.5 181s75.833 75.667 130.5 93z" />
    <glyph glyph-name="asciitilde" unicode="~" horiz-adv-x="1364" 
d="M247 461c4 85.333 28.498 152.166 73.498 200.499s105.833 72.5 182.5 72.5c41.333 0 78.833 -7.83301 112.5 -23.5s67.167 -35.5 100.5 -59.5c58 -43.333 97.333 -69.333 118 -78s44.667 -13 72 -13c43.333 0 77.5 15.167 102.5 45.5s39.167 71.5 42.5 123.5h104
c-4 -85.333 -28.667 -152.166 -74 -200.499s-105.666 -72.5 -180.999 -72.5c-42 0 -81 8.66699 -117 26s-73.333 40.333 -112 69c-33.333 25.333 -62.833 44.333 -88.5 57s-52.5 19 -80.5 19c-93.333 0 -143.666 -55.333 -150.999 -166h-104z" />
    <glyph glyph-name="uni00A0" unicode="&#xa0;" horiz-adv-x="563" 
 />
    <glyph glyph-name="exclamdown" unicode="&#xa1;" horiz-adv-x="590" 
d="M382 857c-26.667 0 -49.334 9.16699 -68.001 27.5s-28 40.833 -28 67.5s9.33301 49.167 28 67.5s41.334 27.5 68.001 27.5c25.333 0 47.166 -9 65.499 -27s27.5 -40.667 27.5 -68c0 -26.667 -9.16699 -49.167 -27.5 -67.5s-40.166 -27.5 -65.499 -27.5zM268 626h109
l-206 -1031h-136zM109 -478z" />
    <glyph glyph-name="cent" unicode="&#xa2;" horiz-adv-x="1078" 
d="M497 162c-92.667 15.333 -166.331 59.334 -220.998 132.001s-82 163.667 -82 273c0 118 23 226.833 69 326.5s109.5 179 190.5 238s171.167 91.167 270.5 96.5l39 181h108l-39 -185c83.333 -11.333 146.666 -32 189.999 -62l-32 -135
c-42.667 48 -103.334 77.333 -182.001 88l-181 -845c79.333 8 159 41.333 239 100l-29 -139c-77.333 -44.667 -155 -69.334 -233 -74.001l-44 -210h-109zM701.003 1113c-109.333 -14.667 -199.667 -74.168 -271 -178.501s-107 -224.166 -107 -359.499
c0 -82 17.5 -148.5 52.5 -199.5s83.5 -83.5 145.5 -97.5zM659.002 1434z" />
    <glyph glyph-name="sterling" unicode="&#xa3;" horiz-adv-x="1078" 
d="M380 650h-212.999l23 113h214l60 276c30 134.667 83.667 238.167 161 310.5s172.333 108.5 285 108.5c80.667 0 149 -13.333 205 -40l-26 -121c-52.667 34.667 -114.334 52 -185.001 52c-167.333 0 -274 -110.333 -320 -331l-55 -255h303l-24 -113h-302l-43 -196
c-38 -167.333 -124 -282.333 -258 -345h709l-24 -109h-883l24 109c168 54 270.333 167.667 307 341z" />
    <glyph glyph-name="currency" unicode="&#xa4;" horiz-adv-x="1139" 
d="M135 354l137 132.002c-53.333 75.333 -80 155 -80 239c0 90 26.667 169.667 80 239l-137 134l75 77l136 -136c72.667 54 152.667 81 240 81c90 0 169.667 -27 239 -81l138 136l75 -77l-138 -134c54 -70.667 81 -150.334 81 -239.001c0 -84.667 -27 -164.334 -81 -239.001
l138 -132l-75 -77l-137 136c-70 -54.667 -150 -82 -240 -82c-91.333 0 -171.333 27.333 -240 82l-136 -136zM586 438.002c78.667 0 146.5 28.5 203.5 85.5s85.5 124.833 85.5 203.5c0 80 -29.167 147.667 -87.5 203s-125.166 83 -200.499 83
c-78.667 0 -146.334 -28 -203.001 -84s-85 -123.333 -85 -202c0 -77.333 28.5 -144.833 85.5 -202.5s124.167 -86.5 201.5 -86.5z" />
    <glyph glyph-name="yen" unicode="&#xa5;" horiz-adv-x="1078" 
d="M432 314l-358.001 -0.000976562l23 109h359l47 228h-358l24 109h318l-223 674h132l168 -551c10 -34.667 18.333 -68.667 25 -102h9c14.667 28.667 37.334 64.334 68.001 107.001l395 546h144l-515 -674h317l-23 -109h-355l-48 -228h355l-23 -109h-355l-67 -314h-125z" />
    <glyph glyph-name="brokenbar" unicode="&#xa6;" horiz-adv-x="476" 
d="M179 1567h118v-852h-118v852zM179 371h118v-852h-118v852z" />
    <glyph glyph-name="section" unicode="&#xa7;" horiz-adv-x="918" 
d="M73 108c30.667 -20 67.5 -36.4951 110.5 -49.4951s79.833 -19.5 110.5 -19.5c152 0 228 59.667 228 179c0 39.333 -10.833 74.666 -32.5 105.999s-66.5 69.333 -134.5 114c-112 73.333 -168 163.333 -168 270c0 63.333 18.333 120.166 55 170.499s96 95.166 178 134.499
c-15.333 20 -29 45.333 -41 76s-18 59 -18 85c0 96 32.167 172.833 96.5 230.5s150.833 86.5 259.5 86.5c72.667 0 140.667 -12.667 204 -38l-25 -118c-56 34 -119 51 -189 51c-68.667 0 -123 -16 -163 -48s-60 -78.333 -60 -139c0 -39.333 11.5 -75.333 34.5 -108
s66.167 -69.334 129.5 -110.001c66 -42.667 112.333 -86.667 139 -132s40 -94.333 40 -147c0 -66.667 -20.667 -126.5 -62 -179.5s-99.333 -94.167 -174 -123.5c36.667 -48 55 -101 55 -159c0 -96.667 -32.333 -171.834 -97 -225.501s-154 -80.5 -268 -80.5
c-38 0 -78.667 4.5 -122 13.5s-80 20.833 -110 35.5zM530 462.005c57.333 22.667 100.501 53.667 129.501 93s43.5 82.333 43.5 129c0 77.333 -46.333 146 -139 206l-82 58c-114 -48 -171 -121.333 -171 -220c0 -42.667 9.33301 -78.167 28 -106.5s55 -61.5 109 -99.5
c35.333 -23.333 62.666 -43.333 81.999 -60z" />
    <glyph glyph-name="dieresis" unicode="&#xa8;" horiz-adv-x="661" 
d="M579 1286c0 21.333 7.66699 40.501 23 57.501s35 25.5 59 25.5c23.333 0 43.666 -8 60.999 -24s26 -35.667 26 -59c0 -24 -8.33301 -44 -25 -60s-36.667 -24 -60 -24s-43.166 7.66699 -59.499 23s-24.5 35.666 -24.5 60.999zM220 1286
c0 22 8.16797 41.3311 24.501 57.998s35.833 25 58.5 25c24 0 44.667 -8 62 -24s26 -35.667 26 -59s-8.5 -43.166 -25.5 -59.499s-37.5 -24.5 -61.5 -24.5c-22.667 0 -42.334 7.83301 -59.001 23.5s-25 35.834 -25 60.501z" />
    <glyph glyph-name="copyright" unicode="&#xa9;" horiz-adv-x="1897" 
d="M239 714c0 137.333 33.668 263 101.001 377s158.666 203.667 273.999 269s240 98 374 98c136 0 261.667 -32.833 377 -98.5s206 -155.5 272 -269.5s99 -238 99 -372c0 -134.667 -33 -259 -99 -373s-156.5 -204.167 -271.5 -270.5s-240.833 -99.5 -377.5 -99.5
c-137.333 0 -263.5 32.333 -378.5 97s-205.5 154 -271.5 268s-99 238.667 -99 374zM987.001 51c116 0 225.002 28.6699 327.002 86.0029s183.667 137.666 245 240.999s92 215.666 92 336.999c0 120 -29.5 231 -88.5 333s-140.167 182.667 -243.5 242s-214 89 -332 89
c-121.333 0 -233 -29.667 -335 -89s-182.333 -140.5 -241 -243.5s-88 -213.5 -88 -331.5c0 -120 29.667 -231.333 89 -334s140.166 -183.334 242.499 -242.001s213.166 -88 332.499 -88zM1276 268.003c-49.333 -26 -92.835 -44.167 -130.502 -54.5
s-80.167 -15.5 -127.5 -15.5c-139.333 0 -256.333 47.167 -351 141.5s-142 213.5 -142 357.5c0 102.667 21.5 194.5 64.5 275.5s103.667 144 182 189s165.833 67.5 262.5 67.5c39.333 0 82.5 -5.16699 129.5 -15.5s83.167 -23.166 108.5 -38.499v-115
c-30 19.333 -68.667 34.833 -116 46.5s-93.333 17.5 -138 17.5c-70 0 -134.167 -17.167 -192.5 -51.5s-103.833 -82.666 -136.5 -144.999s-49 -132.833 -49 -211.5c0 -122.667 36.833 -222.334 110.5 -299.001s167.5 -115 281.5 -115c42.667 0 87.334 7.16699 134.001 21.5
s83.334 31.166 110.001 50.499v-106z" />
    <glyph glyph-name="ordfeminine" unicode="&#xaa;" horiz-adv-x="850" 
d="M643 716c2.66699 52 9.33398 109.333 20.001 172h-3c-78 -126 -166.667 -189 -266 -189c-65.333 0 -115.5 23 -150.5 69s-52.5 112 -52.5 198s19 167.167 57 243.5s90.667 136.666 158 180.999s143 66.5 227 66.5c69.333 0 150.666 -9.33301 243.999 -28l-97 -475
c-20.667 -97.333 -31 -176.666 -31 -237.999h-106zM761 1352c-54.667 10.667 -100.665 16.001 -137.998 16.001c-62.667 0 -118.834 -17.833 -168.501 -53.5s-88.334 -84.334 -116.001 -146.001s-41.5 -126.5 -41.5 -194.5c0 -123.333 43.333 -185 130 -185
c57.333 0 114.5 35.333 171.5 106s95.833 152 116.5 244z" />
    <glyph glyph-name="guillemotleft" unicode="&#xab;" horiz-adv-x="996" 
d="M454 538l357 344h146l-371 -354l212 -326h-128zM96 538l356 344h146l-369 -354l212 -326h-129z" />
    <glyph glyph-name="logicalnot" unicode="&#xac;" horiz-adv-x="1364" 
d="M239 721h923v-525h-107v419h-816v106z" />
    <glyph glyph-name="uni00AD" unicode="&#xad;" horiz-adv-x="817" 
d="M162 640h547l-25 -108h-547z" />
    <glyph glyph-name="registered" unicode="&#xae;" horiz-adv-x="1813" 
d="M857 255c-166.667 0 -308.501 58.333 -425.501 175s-175.5 257.667 -175.5 423c0 167.333 58.833 309.333 176.5 426s258.834 175 423.501 175c165.333 0 307 -58.5 425 -175.5s177 -257.833 177 -422.5c0 -166.667 -58.5 -308.5 -175.5 -425.5
s-258.833 -175.5 -425.5 -175.5zM852.999 1372c-140.667 0 -260.501 -50.833 -359.501 -152.5s-148.5 -223.834 -148.5 -366.501c0 -142 49.167 -263.5 147.5 -364.5s218.5 -151.5 360.5 -151.5c142.667 0 264.334 50.5 365.001 151.5s151 222.5 151 364.5
c0 142.667 -50.5 264.834 -151.5 366.501s-222.5 152.5 -364.5 152.5zM1040 482l-92 190c-26.667 57.333 -52.5 95.833 -77.5 115.5s-53.167 29.5 -84.5 29.5h-70v-335h-97v772h226c85.333 0 152.666 -18.5 201.999 -55.5s74 -86.167 74 -147.5
c0 -118 -67.333 -189.333 -202 -214v-3c38.667 -9.33301 81.334 -56 128.001 -140l102 -212h-109zM715.998 1174v-276h132c52 0 93.667 11.667 125 35s47 58.333 47 105c0 90.667 -63.667 136 -191 136h-113z" />
    <glyph glyph-name="macron" unicode="&#xaf;" horiz-adv-x="850" 
d="M187 1491h849l-20 -98h-850z" />
    <glyph glyph-name="degree" unicode="&#xb0;" horiz-adv-x="782" 
d="M531 915c-72 0 -134 25.665 -186 76.998s-78 114 -78 188c0 72.667 25.833 134.334 77.5 185.001s113.167 76 184.5 76c73.333 0 135.833 -25.667 187.5 -77s77.5 -112.666 77.5 -183.999c0 -72 -25.667 -134.167 -77 -186.5s-113.333 -78.5 -186 -78.5zM529 1010
c45.333 0 84.166 16.833 116.499 50.5s48.5 73.5 48.5 119.5c0 46.667 -15.833 86 -47.5 118s-70.167 48 -115.5 48s-84.166 -16.333 -116.499 -49s-48.5 -71.667 -48.5 -117c0 -46.667 16 -86.667 48 -120s70.333 -50 115 -50z" />
    <glyph glyph-name="plusminus" unicode="&#xb1;" horiz-adv-x="1364" 
d="M244 748h409v408h105v-408h408v-107h-408v-408h-105v408h-409v107zM244 107h922v-107h-922v107z" />
    <glyph glyph-name="uni00B2" unicode="&#xb2;" horiz-adv-x="709" 
d="M669 1538c0 34.667 -12.167 62.498 -36.5 83.498s-56.5 31.5 -96.5 31.5c-66.667 0 -139 -27.333 -217 -82l27 127c74.667 37.333 144.334 56 209.001 56c71.333 0 127.166 -18.333 167.499 -55s60.5 -85.667 60.5 -147c0 -58.667 -18.5 -116 -55.5 -172
s-105.5 -124 -205.5 -204l-231 -184l-1 -3h385l-22 -105h-527l21 99l313 260c82.667 68.667 138.167 123.834 166.5 165.501s42.5 84.834 42.5 129.501z" />
    <glyph glyph-name="uni00B3" unicode="&#xb3;" horiz-adv-x="709" 
d="M186 1021c61.333 -39.333 128.666 -59 201.999 -59c66 0 117 14.5 153 43.5s54 68.833 54 119.5c0 45.333 -16.333 81 -49 107s-83 39 -151 39h-74l22 99h75c74 0 132.5 15.833 175.5 47.5s64.5 72.5 64.5 122.5c0 32.667 -11.333 59.834 -34 81.501
s-56.667 32.5 -102 32.5c-64.667 0 -130 -18.667 -196 -56l27 117c60.667 26 123.334 39 188.001 39c70 0 125.5 -17.333 166.5 -52s61.5 -81.667 61.5 -141c0 -62 -19.333 -113.333 -58 -154s-91.667 -68 -159 -82v-4c101.333 -24.667 152 -88.667 152 -192
c0 -80.667 -29 -145.167 -87 -193.5s-137 -72.5 -237 -72.5c-40 0 -80.667 4.66699 -122 14s-73 20.666 -95 33.999z" />
    <glyph glyph-name="acute" unicode="&#xb4;" horiz-adv-x="661" 
d="M612 1530h134l-314 -328h-109z" />
    <glyph glyph-name="uni00B5" unicode="&#xb5;" horiz-adv-x="1151" 
d="M260 1024l126.002 0.000976562l-124 -594c-16.667 -84.667 -25 -137.334 -25 -158.001c0 -124.667 54 -187 162 -187c53.333 0 111.166 22 173.499 66s117.833 101.5 166.5 172.5s80.667 141.833 96 212.5l104 488h126l-156 -732c-11.333 -48 -17 -89.333 -17 -124
c0 -26.667 7.83301 -46 23.5 -58s34.834 -18 57.501 -18c29.333 0 53.666 3.66699 72.999 11l-21 -104c-30.667 -10.667 -66.334 -16 -107.001 -16c-102 0 -153 49 -153 147c0 30.667 5 76.667 15 138h-4c-115.333 -195.333 -249 -293 -401 -293
c-94.667 0 -157.667 37 -189 111l-122 -567h-125z" />
    <glyph glyph-name="paragraph" unicode="&#xb6;" horiz-adv-x="956" 
d="M425 903c-69.333 0 -128.167 24.833 -176.5 74.5s-72.5 113.167 -72.5 190.5s24.5 141 73.5 191s109.833 75 182.5 75h494v-94h-129v-1340h-95v1340h-180v-1340h-97v903z" />
    <glyph glyph-name="periodcentered" unicode="&#xb7;" horiz-adv-x="455" 
d="M270 573c-26.667 0 -48.834 9.33301 -66.501 28s-26.5 41.334 -26.5 68.001s8.83301 48.834 26.5 66.501s39.834 26.5 66.501 26.5s49.334 -8.83301 68.001 -26.5s28 -39.834 28 -66.501s-9.33301 -49.334 -28 -68.001s-41.334 -28 -68.001 -28z" />
    <glyph glyph-name="cedilla" unicode="&#xb8;" horiz-adv-x="661" 
d="M54 -346c28.667 -6 56.332 -9.00098 82.999 -9.00098c112 0 168 30.667 168 92c0 54.667 -41.667 82 -125 82l-59 -4l39 185h83l-24 -111c57.333 0 103 -12 137 -36s51 -59 51 -105c0 -57.333 -23.167 -102.166 -69.5 -134.499s-115.166 -48.5 -206.499 -48.5
c-26.667 0 -57.667 2.66699 -93 8z" />
    <glyph glyph-name="uni00B9" unicode="&#xb9;" horiz-adv-x="709" 
d="M204 980h188l137 635l-217 -60l23 105l330 94l-166 -774h191l-22 -96h-486z" />
    <glyph glyph-name="ordmasculine" unicode="&#xba;" horiz-adv-x="915" 
d="M524 696c-90 0 -160.833 27.668 -212.5 83.001s-77.5 128.666 -77.5 219.999c0 134.667 36.667 244.167 110 328.5s170 126.5 290 126.5c88 0 157.833 -26.833 209.5 -80.5s77.5 -125.167 77.5 -214.5c0 -138.667 -36 -250.5 -108 -335.5s-168.333 -127.5 -289 -127.5z
M529 789.001c87.333 0 156.333 33.167 207 99.5s76 153.166 76 260.499c0 66.667 -16.5 118.834 -49.5 156.501s-78.833 56.5 -137.5 56.5c-84.667 0 -152.667 -32.667 -204 -98s-77 -151 -77 -257c0 -67.333 16.167 -120.5 48.5 -159.5s77.833 -58.5 136.5 -58.5z" />
    <glyph glyph-name="guillemotright" unicode="&#xbb;" horiz-adv-x="996" 
d="M768 555l-214 327h128l219 -336l-357 -344h-146zM410 555l-212 327h129l215 -336l-356 -344h-147z" />
    <glyph glyph-name="onequarter" unicode="&#xbc;" horiz-adv-x="1717" 
d="M1430 1434h125l-1161 -1434h-127zM152 680h188l137 635l-217 -60l23 105l330 94l-166 -774h191l-22 -96h-486zM1445 851h128l-116 -546h112l-19 -91h-111l-46 -213h-106l46 213h-388l15 77zM1351 305l74 349l24 88l-3 1l-35 -48l-327 -390h267z" />
    <glyph glyph-name="onehalf" unicode="&#xbd;" horiz-adv-x="1768" 
d="M1410 1434h125l-1161 -1434h-127zM141 680h188l137 635l-217 -60l23 105l330 94l-166 -774h191l-22 -96h-486zM1524 655c0 34.667 -12.167 62.498 -36.5 83.498s-56.5 31.5 -96.5 31.5c-66.667 0 -139 -27.333 -217 -82l27 127c74.667 37.333 144.334 56 209.001 56
c71.333 0 127.166 -18.333 167.499 -55s60.5 -85.667 60.5 -147c0 -58.667 -18.5 -116 -55.5 -172s-105.5 -124 -205.5 -204l-231 -184l-1 -3h385l-22 -105h-527l21 99l313 260c82.667 68.667 138.167 123.834 166.5 165.501s42.5 84.834 42.5 129.501z" />
    <glyph glyph-name="threequarters" unicode="&#xbe;" horiz-adv-x="1759" 
d="M1447 1434h125l-1161 -1434h-127zM1485 851h128l-116 -546h112l-19 -91h-111l-46 -213h-106l46 213h-388l15 77zM1391 305l74 349l24 88l-3 1l-35 -48l-327 -390h267zM157 721c61.333 -39.333 128.666 -59 201.999 -59c66 0 117 14.5 153 43.5s54 68.833 54 119.5
c0 45.333 -16.333 81 -49 107s-83 39 -151 39h-74l22 99h75c74 0 132.5 15.833 175.5 47.5s64.5 72.5 64.5 122.5c0 32.667 -11.333 59.834 -34 81.501s-56.667 32.5 -102 32.5c-64.667 0 -130 -18.667 -196 -56l27 117c60.667 26 123.334 39 188.001 39
c70 0 125.5 -17.333 166.5 -52s61.5 -81.667 61.5 -141c0 -62 -19.333 -113.333 -58 -154s-91.667 -68 -159 -82v-4c101.333 -24.667 152 -88.667 152 -192c0 -80.667 -29 -145.167 -87 -193.5s-137 -72.5 -237 -72.5c-40 0 -80.667 4.66699 -122 14s-73 20.666 -95 33.999z
" />
    <glyph glyph-name="questiondown" unicode="&#xbf;" horiz-adv-x="814" 
d="M550 857c-25.333 0 -47.5 9 -66.5 27s-28.5 40.667 -28.5 68s9.5 50 28.5 68s41.167 27 66.5 27c26.667 0 49 -9.16699 67 -27.5s27 -40.833 27 -67.5s-9 -49.167 -27 -67.5s-40.333 -27.5 -67 -27.5zM279 -431c-95.333 0 -173.332 28.333 -233.999 85
s-91 131.334 -91 224.001c0 82 20.5 155.833 61.5 221.5s110.167 132.5 207.5 200.5c74.667 52.667 125 100 151 142s46.667 103.333 62 184h117c-20 -108 -47.333 -189 -82 -243s-89 -106 -163 -156c-83.333 -56 -142.333 -109.833 -177 -161.5s-52 -109.834 -52 -174.501
s19.667 -116.5 59 -155.5s91.666 -58.5 156.999 -58.5c91.333 0 183.333 28.333 276 85l-18 -132c-90.667 -40.667 -182 -61 -274 -61zM293.001 -478z" />
    <glyph glyph-name="Agrave" unicode="&#xc0;" horiz-adv-x="1247" 
d="M749 1434h131l240 -1434h-135l-69 425h-612l-250 -425h-147zM897 544l-98 639.001c-4.66699 36 -7 70.333 -7 103h-4l-9 -22c-4 -10.667 -13.333 -29.834 -28 -57.501s-141.667 -248.5 -381 -662.5h527zM625 1878h123l199 -328h-101z" />
    <glyph glyph-name="Aacute" unicode="&#xc1;" horiz-adv-x="1247" 
d="M749 1434h131l240 -1434h-135l-69 425h-612l-250 -425h-147zM897 544l-98 639.001c-4.66699 36 -7 70.333 -7 103h-4l-9 -22c-4 -10.667 -13.333 -29.834 -28 -57.501s-141.667 -248.5 -381 -662.5h527zM980 1875h134l-314 -328h-109z" />
    <glyph glyph-name="Acircumflex" unicode="&#xc2;" horiz-adv-x="1247" 
d="M749 1434h131l240 -1434h-135l-69 425h-612l-250 -425h-147zM897 544l-98 639.001c-4.66699 36 -7 70.333 -7 103h-4l-9 -22c-4 -10.667 -13.333 -29.834 -28 -57.501s-141.667 -248.5 -381 -662.5h527zM845 1883h86l151 -334h-95l-113 239l-209 -239h-102z" />
    <glyph glyph-name="Atilde" unicode="&#xc3;" horiz-adv-x="1247" 
d="M749 1434h131l240 -1434h-135l-69 425h-612l-250 -425h-147zM897 544l-98 639.001c-4.66699 36 -7 70.333 -7 103h-4l-9 -22c-4 -10.667 -13.333 -29.834 -28 -57.501s-141.667 -248.5 -381 -662.5h527zM502 1548c9.33301 70 33.335 124.333 72.002 163s88 58 148 58
c28.667 0 53 -6 73 -18s38.5 -25.167 55.5 -39.5s34.167 -27.5 51.5 -39.5s37.666 -18 60.999 -18c30 0 55.667 11.5 77 34.5s35.666 55.167 42.999 96.5h84c-10.667 -68.667 -34.834 -122.667 -72.501 -162s-85.167 -59 -142.5 -59c-31.333 0 -57.166 5.83301 -77.499 17.5
s-39 24.667 -56 39s-33.833 27.333 -50.5 39s-36.334 17.5 -59.001 17.5c-67.333 0 -108.666 -43 -123.999 -129h-83z" />
    <glyph glyph-name="Adieresis" unicode="&#xc4;" horiz-adv-x="1247" 
d="M749 1434h131l240 -1434h-135l-69 425h-612l-250 -425h-147zM897 544l-98 639.001c-4.66699 36 -7 70.333 -7 103h-4l-9 -22c-4 -10.667 -13.333 -29.834 -28 -57.501s-141.667 -248.5 -381 -662.5h527zM924 1631c0 21.333 7.66699 40.501 23 57.501s35 25.5 59 25.5
c23.333 0 43.666 -8 60.999 -24s26 -35.667 26 -59c0 -24 -8.33301 -44 -25 -60s-36.667 -24 -60 -24s-43.166 7.66699 -59.499 23s-24.5 35.666 -24.5 60.999zM565 1631c0 22 8.16797 41.3311 24.501 57.998s35.833 25 58.5 25c24 0 44.667 -8 62 -24s26 -35.667 26 -59
s-8.5 -43.166 -25.5 -59.499s-37.5 -24.5 -61.5 -24.5c-22.667 0 -42.334 7.83301 -59.001 23.5s-25 35.834 -25 60.501z" />
    <glyph glyph-name="Aring" unicode="&#xc5;" horiz-adv-x="1247" 
d="M719 1382c-69.333 30.667 -103.999 85.332 -103.999 163.999c0 56.667 19.667 102.834 59 138.501s88 53.5 146 53.5c57.333 0 105.166 -18 143.499 -54s57.5 -81 57.5 -135c0 -42 -12.167 -78.333 -36.5 -109s-55.833 -52.667 -94.5 -66l230 -1374h-135l-69 425h-612
l-250 -425h-147zM818.001 1434c36 0 65.333 10.666 88 31.999s34 49 34 83c0 34.667 -11.333 62.334 -34 83.001s-52 31 -88 31s-65.167 -10.5 -87.5 -31.5s-33.5 -48.5 -33.5 -82.5c0 -36 11.333 -64.167 34 -84.5s51.667 -30.5 87 -30.5zM897.001 543.997l-97.999 639
c-4.66699 44.667 -7.33398 79 -8.00098 103h-4c-21.333 -50 -39 -87 -53 -111l-364 -631h527z" />
    <glyph glyph-name="AE" unicode="&#xc6;" horiz-adv-x="1689" 
d="M915 1434h844l-26 -123h-564l-113 -533h522l-25 -118h-522l-115 -541h596l-24 -119h-729l90 425h-505l-303 -425h-159zM875 546l162 765h-70l-536 -765h444z" />
    <glyph glyph-name="Ccedilla" unicode="&#xc7;" horiz-adv-x="1301" 
d="M722 -25c-176.667 0 -317 55.8311 -421 167.498s-156 261.5 -156 449.5c0 168.667 34.5 318.834 103.5 450.501s165.5 233.834 289.5 306.501s263.333 109 418 109c142 0 271 -31 387 -93l-28 -138c-104.667 75.333 -228 113 -370 113
c-127.333 0 -241.5 -31.167 -342.5 -93.5s-179.833 -149.5 -236.5 -261.5s-85 -237.333 -85 -376c0 -162 41.5 -288.333 124.5 -379s197.5 -136 343.5 -136c138 0 266 33.667 384 101l-31 -141c-60.667 -28 -120 -48.167 -178 -60.5s-123.333 -18.5 -196 -18.5h-6z
M515 -346.002c28.667 -6 56.332 -9.00098 82.999 -9.00098c112 0 168 30.667 168 92c0 54.667 -41.667 82 -125 82l-59 -4l39 185h83l-24 -111c57.333 0 103 -12 137 -36s51 -59 51 -105c0 -57.333 -23.167 -102.166 -69.5 -134.499s-115.166 -48.5 -206.499 -48.5
c-26.667 0 -57.667 2.66699 -93 8z" />
    <glyph glyph-name="Egrave" unicode="&#xc8;" horiz-adv-x="1004" 
d="M378 1434h696l-25 -119h-563l-114 -535h522l-25 -119h-523l-115 -542h597l-24 -119h-729zM535 1878h123l199 -328h-101z" />
    <glyph glyph-name="Eacute" unicode="&#xc9;" horiz-adv-x="1004" 
d="M378 1434h696l-25 -119h-563l-114 -535h522l-25 -119h-523l-115 -542h597l-24 -119h-729zM907 1876h134l-314 -328h-109z" />
    <glyph glyph-name="Ecircumflex" unicode="&#xca;" horiz-adv-x="1004" 
d="M378 1434h696l-25 -119h-563l-114 -535h522l-25 -119h-523l-115 -542h597l-24 -119h-729zM774 1885h86l151 -334h-95l-113 239l-209 -239h-102z" />
    <glyph glyph-name="Edieresis" unicode="&#xcb;" horiz-adv-x="1004" 
d="M378 1434h696l-25 -119h-563l-114 -535h522l-25 -119h-523l-115 -542h597l-24 -119h-729zM839 1634c0 21.333 7.66699 40.501 23 57.501s35 25.5 59 25.5c23.333 0 43.666 -8 60.999 -24s26 -35.667 26 -59c0 -24 -8.33301 -44 -25 -60s-36.667 -24 -60 -24
s-43.166 7.66699 -59.499 23s-24.5 35.666 -24.5 60.999zM480 1634c0 22 8.16797 41.3311 24.501 57.998s35.833 25 58.5 25c24 0 44.667 -8 62 -24s26 -35.667 26 -59s-8.5 -43.166 -25.5 -59.499s-37.5 -24.5 -61.5 -24.5c-22.667 0 -42.334 7.83301 -59.001 23.5
s-25 35.834 -25 60.501z" />
    <glyph glyph-name="Igrave" unicode="&#xcc;" horiz-adv-x="503" 
d="M378 1434h133l-304 -1434h-132zM264 1878h123l199 -328h-101z" />
    <glyph glyph-name="Iacute" unicode="&#xcd;" horiz-adv-x="503" 
d="M378 1434h133l-304 -1434h-132zM635 1878h134l-314 -328h-109z" />
    <glyph glyph-name="Icircumflex" unicode="&#xce;" horiz-adv-x="503" 
d="M378 1434h133l-304 -1434h-132zM481 1885h86l151 -334h-95l-113 239l-209 -239h-102z" />
    <glyph glyph-name="Idieresis" unicode="&#xcf;" horiz-adv-x="503" 
d="M378 1434h133l-304 -1434h-132zM571 1634c0 21.333 7.66699 40.501 23 57.501s35 25.5 59 25.5c23.333 0 43.666 -8 60.999 -24s26 -35.667 26 -59c0 -24 -8.33301 -44 -25 -60s-36.667 -24 -60 -24s-43.166 7.66699 -59.499 23s-24.5 35.666 -24.5 60.999zM212 1634
c0 22 8.16797 41.3311 24.501 57.998s35.833 25 58.5 25c24 0 44.667 -8 62 -24s26 -35.667 26 -59s-8.5 -43.166 -25.5 -59.499s-37.5 -24.5 -61.5 -24.5c-22.667 0 -42.334 7.83301 -59.001 23.5s-25 35.834 -25 60.501z" />
    <glyph glyph-name="Eth" unicode="&#xd0;" horiz-adv-x="1419" 
d="M216 658h-159l23 119h161l140 657h359c196.667 0 350.167 -51.333 460.5 -154s165.5 -247 165.5 -433c0 -169.333 -34.5 -318 -103.5 -446s-169 -226.833 -300 -296.5s-284.5 -104.5 -460.5 -104.5h-427zM504 119c230 0 408.5 63.333 535.5 190s190.5 302.667 190.5 528
c0 154.667 -43.167 273 -129.5 355s-214.833 123 -385.5 123h-228l-115 -538h374l-24 -119h-375l-115 -539h272z" />
    <glyph glyph-name="Ntilde" unicode="&#xd1;" horiz-adv-x="1492" 
d="M378 1434l128.999 -0.000976562l564 -1138c16 -30.667 29.333 -62 40 -94h4l19 123l236 1109h131l-305 -1434h-116l-578 1154c-13.333 26.667 -24.666 56.334 -33.999 89.001h-5l-13 -84l-247 -1159h-128zM647.999 1548c9.33301 70 33.335 124.333 72.002 163
s88 58 148 58c28.667 0 53 -6 73 -18s38.5 -25.167 55.5 -39.5s34.167 -27.5 51.5 -39.5s37.666 -18 60.999 -18c30 0 55.667 11.5 77 34.5s35.666 55.167 42.999 96.5h84c-10.667 -68.667 -34.834 -122.667 -72.501 -162s-85.167 -59 -142.5 -59
c-31.333 0 -57.166 5.83301 -77.499 17.5s-39 24.667 -56 39s-33.833 27.333 -50.5 39s-36.334 17.5 -59.001 17.5c-67.333 0 -108.666 -43 -123.999 -129h-83z" />
    <glyph glyph-name="Ograve" unicode="&#xd2;" horiz-adv-x="1544" 
d="M722 -25c-176.667 0 -317.002 56.501 -421.002 169.501s-156 261.5 -156 445.5c0 163.333 33.833 311.166 101.5 443.499s160.167 236.166 277.5 311.499s248.333 113 393 113c172.667 0 311 -56.167 415 -168.5s156 -259.166 156 -440.499
c0 -160.667 -32.667 -308.5 -98 -443.5s-156.166 -240.5 -272.499 -316.5s-248.166 -114 -395.499 -114zM727.998 94.001c120 0 226.832 31.334 320.499 94.001s167.5 153.667 221.5 273s81 246.666 81 381.999c0 153.333 -40 274.5 -120 363.5s-187.333 133.5 -322 133.5
c-118 0 -225.5 -32.5 -322.5 -97.5s-172.167 -155.5 -225.5 -271.5s-80 -243 -80 -381c0 -154 39.833 -275.167 119.5 -363.5s188.834 -132.5 327.501 -132.5zM753.997 1877h123l199 -328h-101z" />
    <glyph glyph-name="Oacute" unicode="&#xd3;" horiz-adv-x="1544" 
d="M722 -25c-176.667 0 -317.002 56.501 -421.002 169.501s-156 261.5 -156 445.5c0 163.333 33.833 311.166 101.5 443.499s160.167 236.166 277.5 311.499s248.333 113 393 113c172.667 0 311 -56.167 415 -168.5s156 -259.166 156 -440.499
c0 -160.667 -32.667 -308.5 -98 -443.5s-156.166 -240.5 -272.499 -316.5s-248.166 -114 -395.499 -114zM727.998 94.001c120 0 226.832 31.334 320.499 94.001s167.5 153.667 221.5 273s81 246.666 81 381.999c0 153.333 -40 274.5 -120 363.5s-187.333 133.5 -322 133.5
c-118 0 -225.5 -32.5 -322.5 -97.5s-172.167 -155.5 -225.5 -271.5s-80 -243 -80 -381c0 -154 39.833 -275.167 119.5 -363.5s188.834 -132.5 327.501 -132.5zM1072 1878h134l-314 -328h-109z" />
    <glyph glyph-name="Ocircumflex" unicode="&#xd4;" horiz-adv-x="1544" 
d="M722 -25c-176.667 0 -317.002 56.501 -421.002 169.501s-156 261.5 -156 445.5c0 163.333 33.833 311.166 101.5 443.499s160.167 236.166 277.5 311.499s248.333 113 393 113c172.667 0 311 -56.167 415 -168.5s156 -259.166 156 -440.499
c0 -160.667 -32.667 -308.5 -98 -443.5s-156.166 -240.5 -272.499 -316.5s-248.166 -114 -395.499 -114zM727.998 94.001c120 0 226.832 31.334 320.499 94.001s167.5 153.667 221.5 273s81 246.666 81 381.999c0 153.333 -40 274.5 -120 363.5s-187.333 133.5 -322 133.5
c-118 0 -225.5 -32.5 -322.5 -97.5s-172.167 -155.5 -225.5 -271.5s-80 -243 -80 -381c0 -154 39.833 -275.167 119.5 -363.5s188.834 -132.5 327.501 -132.5zM941.997 1884h86l151 -334h-95l-113 239l-209 -239h-102z" />
    <glyph glyph-name="Otilde" unicode="&#xd5;" horiz-adv-x="1544" 
d="M722 -25c-176.667 0 -317.002 56.501 -421.002 169.501s-156 261.5 -156 445.5c0 163.333 33.833 311.166 101.5 443.499s160.167 236.166 277.5 311.499s248.333 113 393 113c172.667 0 311 -56.167 415 -168.5s156 -259.166 156 -440.499
c0 -160.667 -32.667 -308.5 -98 -443.5s-156.166 -240.5 -272.499 -316.5s-248.166 -114 -395.499 -114zM727.998 94.001c120 0 226.832 31.334 320.499 94.001s167.5 153.667 221.5 273s81 246.666 81 381.999c0 153.333 -40 274.5 -120 363.5s-187.333 133.5 -322 133.5
c-118 0 -225.5 -32.5 -322.5 -97.5s-172.167 -155.5 -225.5 -271.5s-80 -243 -80 -381c0 -154 39.833 -275.167 119.5 -363.5s188.834 -132.5 327.501 -132.5zM602.997 1548c9.33301 70 33.335 124.333 72.002 163s88 58 148 58c28.667 0 53 -6 73 -18
s38.5 -25.167 55.5 -39.5s34.167 -27.5 51.5 -39.5s37.666 -18 60.999 -18c30 0 55.667 11.5 77 34.5s35.666 55.167 42.999 96.5h84c-10.667 -68.667 -34.834 -122.667 -72.501 -162s-85.167 -59 -142.5 -59c-31.333 0 -57.166 5.83301 -77.499 17.5s-39 24.667 -56 39
s-33.833 27.333 -50.5 39s-36.334 17.5 -59.001 17.5c-67.333 0 -108.666 -43 -123.999 -129h-83z" />
    <glyph glyph-name="Odieresis" unicode="&#xd6;" horiz-adv-x="1544" 
d="M722 -25c-176.667 0 -317.002 56.501 -421.002 169.501s-156 261.5 -156 445.5c0 163.333 33.833 311.166 101.5 443.499s160.167 236.166 277.5 311.499s248.333 113 393 113c172.667 0 311 -56.167 415 -168.5s156 -259.166 156 -440.499
c0 -160.667 -32.667 -308.5 -98 -443.5s-156.166 -240.5 -272.499 -316.5s-248.166 -114 -395.499 -114zM727.998 94.001c120 0 226.832 31.334 320.499 94.001s167.5 153.667 221.5 273s81 246.666 81 381.999c0 153.333 -40 274.5 -120 363.5s-187.333 133.5 -322 133.5
c-118 0 -225.5 -32.5 -322.5 -97.5s-172.167 -155.5 -225.5 -271.5s-80 -243 -80 -381c0 -154 39.833 -275.167 119.5 -363.5s188.834 -132.5 327.501 -132.5zM1034 1632c0 21.333 7.66699 40.501 23 57.501s35 25.5 59 25.5c23.333 0 43.666 -8 60.999 -24
s26 -35.667 26 -59c0 -24 -8.33301 -44 -25 -60s-36.667 -24 -60 -24s-43.166 7.66699 -59.499 23s-24.5 35.666 -24.5 60.999zM674.997 1632c0 22 8.16797 41.3311 24.501 57.998s35.833 25 58.5 25c24 0 44.667 -8 62 -24s26 -35.667 26 -59s-8.5 -43.166 -25.5 -59.499
s-37.5 -24.5 -61.5 -24.5c-22.667 0 -42.334 7.83301 -59.001 23.5s-25 35.834 -25 60.501z" />
    <glyph glyph-name="multiply" unicode="&#xd7;" horiz-adv-x="1364" 
d="M1111 260l-75 -75l-336 338l-336 -338l-76 75l337 336l-337 338l76 75l336 -338l336 338l75 -75l-337 -338z" />
    <glyph glyph-name="Oslash" unicode="&#xd8;" horiz-adv-x="1544" 
d="M238 223c-62 106 -92.999 228.332 -92.999 366.999c0 166 34.167 314.833 102.5 446.5s161 234.5 278 308.5s247.833 111 392.5 111c168 0 302.667 -51.333 404 -154l166 169l69 -68l-174 -174c70 -105.333 105 -232.666 105 -381.999
c0 -159.333 -32.667 -306.5 -98 -441.5s-155.833 -240.5 -271.5 -316.5s-248.834 -114 -399.501 -114c-178.667 0 -319 56.667 -421 170l-173 -173l-72 66zM1228 1209c-80.667 86 -186 129 -316 129c-119.333 0 -227 -31 -323 -93s-171.333 -151.5 -226 -268.5
s-82 -246.5 -82 -388.5c0 -100 18.667 -189.333 56 -268zM392.001 236.999c77.333 -95.333 189.331 -142.999 335.998 -142.999c120.667 0 227.834 31.333 321.501 94s167.334 152.667 221.001 270s80.5 246.333 80.5 387c0 109.333 -22.667 204.666 -68 285.999z" />
    <glyph glyph-name="Ugrave" unicode="&#xd9;" horiz-adv-x="1366" 
d="M360 1434l133.001 -0.000976562l-168 -789c-18.667 -84.667 -28 -157 -28 -217c0 -111.333 29.5 -194.833 88.5 -250.5s140.5 -83.5 244.5 -83.5c120.667 0 215.667 34.667 285 104s120.666 180.666 153.999 333.999l192 902h132l-187 -880
c-44.667 -209.333 -113 -358.166 -205 -446.499s-222 -132.5 -390 -132.5c-137.333 0 -246 39.333 -326 118s-120 185.334 -120 320.001c0 71.333 7.33301 141 22 209zM696.001 1878h123l199 -328h-101z" />
    <glyph glyph-name="Uacute" unicode="&#xda;" horiz-adv-x="1366" 
d="M360 1434l133.001 -0.000976562l-168 -789c-18.667 -84.667 -28 -157 -28 -217c0 -111.333 29.5 -194.833 88.5 -250.5s140.5 -83.5 244.5 -83.5c120.667 0 215.667 34.667 285 104s120.666 180.666 153.999 333.999l192 902h132l-187 -880
c-44.667 -209.333 -113 -358.166 -205 -446.499s-222 -132.5 -390 -132.5c-137.333 0 -246 39.333 -326 118s-120 185.334 -120 320.001c0 71.333 7.33301 141 22 209zM1043 1877h134l-314 -328h-109z" />
    <glyph glyph-name="Ucircumflex" unicode="&#xdb;" horiz-adv-x="1366" 
d="M360 1434l133.001 -0.000976562l-168 -789c-18.667 -84.667 -28 -157 -28 -217c0 -111.333 29.5 -194.833 88.5 -250.5s140.5 -83.5 244.5 -83.5c120.667 0 215.667 34.667 285 104s120.666 180.666 153.999 333.999l192 902h132l-187 -880
c-44.667 -209.333 -113 -358.166 -205 -446.499s-222 -132.5 -390 -132.5c-137.333 0 -246 39.333 -326 118s-120 185.334 -120 320.001c0 71.333 7.33301 141 22 209zM912.001 1885h86l151 -334h-95l-113 239l-209 -239h-102z" />
    <glyph glyph-name="Udieresis" unicode="&#xdc;" horiz-adv-x="1366" 
d="M360 1434l133.001 -0.000976562l-168 -789c-18.667 -84.667 -28 -157 -28 -217c0 -111.333 29.5 -194.833 88.5 -250.5s140.5 -83.5 244.5 -83.5c120.667 0 215.667 34.667 285 104s120.666 180.666 153.999 333.999l192 902h132l-187 -880
c-44.667 -209.333 -113 -358.166 -205 -446.499s-222 -132.5 -390 -132.5c-137.333 0 -246 39.333 -326 118s-120 185.334 -120 320.001c0 71.333 7.33301 141 22 209zM982.001 1635c0 21.333 7.66699 40.501 23 57.501s35 25.5 59 25.5c23.333 0 43.666 -8 60.999 -24
s26 -35.667 26 -59c0 -24 -8.33301 -44 -25 -60s-36.667 -24 -60 -24s-43.166 7.66699 -59.499 23s-24.5 35.666 -24.5 60.999zM623.001 1635c0 22 8.16797 41.3311 24.501 57.998s35.833 25 58.5 25c24 0 44.667 -8 62 -24s26 -35.667 26 -59s-8.5 -43.166 -25.5 -59.499
s-37.5 -24.5 -61.5 -24.5c-22.667 0 -42.334 7.83301 -59.001 23.5s-25 35.834 -25 60.501z" />
    <glyph glyph-name="Yacute" unicode="&#xdd;" horiz-adv-x="1119" 
d="M488 542l-257 892h140l182 -674l22 -98h4l53 83l493 689h151l-654 -889l-114 -545h-134zM926 1895h134l-314 -328h-109z" />
    <glyph glyph-name="Thorn" unicode="&#xde;" horiz-adv-x="1143" 
d="M378 1434h133l-49 -232h206c134 0 237.667 -33.5 311 -100.5s110 -158.167 110 -273.5c0 -154 -50.333 -275.833 -151 -365.5s-237.667 -134.5 -411 -134.5h-7h-242l-71 -328h-132zM531 447c136.667 0 241 32.333 313 97s108 155.667 108 273
c0 85.333 -27.333 151 -82 197s-132.667 69 -234 69h-199l-135 -636h229z" />
    <glyph glyph-name="germandbls" unicode="&#xdf;" horiz-adv-x="1095" 
d="M737 1540c92.667 0 167.833 -28.666 225.5 -85.999s86.5 -133 86.5 -227c0 -98 -32 -185.333 -96 -262s-146 -128 -246 -154v-4c88 -22 156.667 -65.333 206 -130s74 -145.334 74 -242.001c0 -137.333 -43.167 -248.333 -129.5 -333s-201.5 -127 -345.5 -127
c-26 0 -58.833 3.5 -98.5 10.5s-64.834 12.833 -75.501 17.5l27 122c54.667 -26.667 106.667 -40 156 -40c102 0 183.167 31.5 243.5 94.5s90.5 145.833 90.5 248.5c0 196 -106.667 305.667 -320 329l21 104c115.333 17.333 204.5 57.5 267.5 120.5s94.5 141.5 94.5 235.5
c0 64 -17.333 115.667 -52 155s-81 59 -139 59c-79.333 0 -144.666 -26.5 -195.999 -79.5s-89.333 -137.5 -114 -253.5l-233 -1098h-127l241 1130c58 273.333 204.333 410 439 410z" />
    <glyph glyph-name="agrave" unicode="&#xe0;" horiz-adv-x="1089" 
d="M718 0c2.66699 70 14 162 34 276h-4c-61.333 -108 -121.5 -185.167 -180.5 -231.5s-124.5 -69.5 -196.5 -69.5c-92 0 -163.5 32.5 -214.5 97.5s-76.5 156.5 -76.5 274.5c0 127.333 27.5 246.5 82.5 357.5s130 196.167 225 255.5s201.167 89 318.5 89
c86 0 193.333 -13 322 -39l-137 -661c-9.33301 -44 -18.833 -104 -28.5 -180s-14.5 -132.333 -14.5 -169h-130zM883 918c-63.333 14 -127.667 21.001 -193 21.001c-90.667 0 -172.334 -24.667 -245.001 -74s-130.167 -119.333 -172.5 -210s-63.5 -190.334 -63.5 -299.001
c0 -180.667 64 -271 192 -271c54 0 109.333 23.5 166 70.5s108.334 113.5 155.001 199.5s79.667 172.667 99 260zM502.999 1530h123l199 -328h-101z" />
    <glyph glyph-name="aacute" unicode="&#xe1;" horiz-adv-x="1089" 
d="M718 0c2.66699 70 14 162 34 276h-4c-61.333 -108 -121.5 -185.167 -180.5 -231.5s-124.5 -69.5 -196.5 -69.5c-92 0 -163.5 32.5 -214.5 97.5s-76.5 156.5 -76.5 274.5c0 127.333 27.5 246.5 82.5 357.5s130 196.167 225 255.5s201.167 89 318.5 89
c86 0 193.333 -13 322 -39l-137 -661c-9.33301 -44 -18.833 -104 -28.5 -180s-14.5 -132.333 -14.5 -169h-130zM883 918c-63.333 14 -127.667 21.001 -193 21.001c-90.667 0 -172.334 -24.667 -245.001 -74s-130.167 -119.333 -172.5 -210s-63.5 -190.334 -63.5 -299.001
c0 -180.667 64 -271 192 -271c54 0 109.333 23.5 166 70.5s108.334 113.5 155.001 199.5s79.667 172.667 99 260zM876.999 1530h134l-314 -328h-109z" />
    <glyph glyph-name="acircumflex" unicode="&#xe2;" horiz-adv-x="1089" 
d="M718 0c2.66699 70 14 162 34 276h-4c-61.333 -108 -121.5 -185.167 -180.5 -231.5s-124.5 -69.5 -196.5 -69.5c-92 0 -163.5 32.5 -214.5 97.5s-76.5 156.5 -76.5 274.5c0 127.333 27.5 246.5 82.5 357.5s130 196.167 225 255.5s201.167 89 318.5 89
c86 0 193.333 -13 322 -39l-137 -661c-9.33301 -44 -18.833 -104 -28.5 -180s-14.5 -132.333 -14.5 -169h-130zM883 918c-63.333 14 -127.667 21.001 -193 21.001c-90.667 0 -172.334 -24.667 -245.001 -74s-130.167 -119.333 -172.5 -210s-63.5 -190.334 -63.5 -299.001
c0 -180.667 64 -271 192 -271c54 0 109.333 23.5 166 70.5s108.334 113.5 155.001 199.5s79.667 172.667 99 260zM732.999 1536h86l151 -334h-95l-113 239l-209 -239h-102z" />
    <glyph glyph-name="atilde" unicode="&#xe3;" horiz-adv-x="1089" 
d="M718 0c2.66699 70 14 162 34 276h-4c-61.333 -108 -121.5 -185.167 -180.5 -231.5s-124.5 -69.5 -196.5 -69.5c-92 0 -163.5 32.5 -214.5 97.5s-76.5 156.5 -76.5 274.5c0 127.333 27.5 246.5 82.5 357.5s130 196.167 225 255.5s201.167 89 318.5 89
c86 0 193.333 -13 322 -39l-137 -661c-9.33301 -44 -18.833 -104 -28.5 -180s-14.5 -132.333 -14.5 -169h-130zM883 918c-63.333 14 -127.667 21.001 -193 21.001c-90.667 0 -172.334 -24.667 -245.001 -74s-130.167 -119.333 -172.5 -210s-63.5 -190.334 -63.5 -299.001
c0 -180.667 64 -271 192 -271c54 0 109.333 23.5 166 70.5s108.334 113.5 155.001 199.5s79.667 172.667 99 260zM358.999 1202c9.33301 70 33.335 124.333 72.002 163s88 58 148 58c28.667 0 53 -6 73 -18s38.5 -25.167 55.5 -39.5s34.167 -27.5 51.5 -39.5
s37.666 -18 60.999 -18c30 0 55.667 11.5 77 34.5s35.666 55.167 42.999 96.5h84c-10.667 -68.667 -34.834 -122.667 -72.501 -162s-85.167 -59 -142.5 -59c-31.333 0 -57.166 5.83301 -77.499 17.5s-39 24.667 -56 39s-33.833 27.333 -50.5 39s-36.334 17.5 -59.001 17.5
c-67.333 0 -108.666 -43 -123.999 -129h-83z" />
    <glyph glyph-name="adieresis" unicode="&#xe4;" horiz-adv-x="1089" 
d="M718 0c2.66699 70 14 162 34 276h-4c-61.333 -108 -121.5 -185.167 -180.5 -231.5s-124.5 -69.5 -196.5 -69.5c-92 0 -163.5 32.5 -214.5 97.5s-76.5 156.5 -76.5 274.5c0 127.333 27.5 246.5 82.5 357.5s130 196.167 225 255.5s201.167 89 318.5 89
c86 0 193.333 -13 322 -39l-137 -661c-9.33301 -44 -18.833 -104 -28.5 -180s-14.5 -132.333 -14.5 -169h-130zM883 918c-63.333 14 -127.667 21.001 -193 21.001c-90.667 0 -172.334 -24.667 -245.001 -74s-130.167 -119.333 -172.5 -210s-63.5 -190.334 -63.5 -299.001
c0 -180.667 64 -271 192 -271c54 0 109.333 23.5 166 70.5s108.334 113.5 155.001 199.5s79.667 172.667 99 260zM783.999 1286c0 21.333 7.66699 40.501 23 57.501s35 25.5 59 25.5c23.333 0 43.666 -8 60.999 -24s26 -35.667 26 -59c0 -24 -8.33301 -44 -25 -60
s-36.667 -24 -60 -24s-43.166 7.66699 -59.499 23s-24.5 35.666 -24.5 60.999zM424.999 1286c0 22 8.16797 41.3311 24.501 57.998s35.833 25 58.5 25c24 0 44.667 -8 62 -24s26 -35.667 26 -59s-8.5 -43.166 -25.5 -59.499s-37.5 -24.5 -61.5 -24.5
c-22.667 0 -42.334 7.83301 -59.001 23.5s-25 35.834 -25 60.501z" />
    <glyph glyph-name="aring" unicode="&#xe5;" horiz-adv-x="1089" 
d="M718 0c2.66699 70 14 162 34 276h-4c-61.333 -108 -121.5 -185.167 -180.5 -231.5s-124.5 -69.5 -196.5 -69.5c-92 0 -163.5 32.5 -214.5 97.5s-76.5 156.5 -76.5 274.5c0 127.333 27.5 246.5 82.5 357.5s130 196.167 225 255.5s201.167 89 318.5 89
c86 0 193.333 -13 322 -39l-137 -661c-9.33301 -44 -18.833 -104 -28.5 -180s-14.5 -132.333 -14.5 -169h-130zM883 918c-63.333 14 -127.667 21.001 -193 21.001c-90.667 0 -172.334 -24.667 -245.001 -74s-130.167 -119.333 -172.5 -210s-63.5 -190.334 -63.5 -299.001
c0 -180.667 64 -271 192 -271c54 0 109.333 23.5 166 70.5s108.334 113.5 155.001 199.5s79.667 172.667 99 260zM519.999 1369c0 56 19.333 101.833 58 137.5s87.667 53.5 147 53.5s107.5 -17.667 144.5 -53s55.5 -80 55.5 -134s-19.5 -99.333 -58.5 -136
s-87.167 -55 -144.5 -55c-58.667 0 -107 17.5 -145 52.5s-57 79.833 -57 134.5zM721.999 1256c35.333 0 64.5 10.999 87.5 32.999s34.5 49.667 34.5 83c0 34.667 -11.333 62.334 -34 83.001s-52 31 -88 31s-65 -10.5 -87 -31.5s-33 -48.5 -33 -82.5
c0 -36 11.5 -64.333 34.5 -85s51.5 -31 85.5 -31z" />
    <glyph glyph-name="ae" unicode="&#xe6;" horiz-adv-x="1681" 
d="M794 356c-67.333 -132 -137.167 -228.5 -209.5 -289.5s-150.833 -91.5 -235.5 -91.5c-86 0 -152.333 30.667 -199 92s-70 151.333 -70 270c0 128 29.667 248 89 360s139.666 198.667 240.999 260s214.333 92 339 92c60 0 113.833 -6.33301 161.5 -19
s96.167 -32 145.5 -58c78.667 51.333 169.334 77 272.001 77c92.667 0 168.167 -23.5 226.5 -70.5s87.5 -108.5 87.5 -184.5c0 -118.667 -58 -206.167 -174 -262.5s-300 -85.833 -552 -88.5l-2 -26v-25c0 -97.333 24.833 -172.833 74.5 -226.5s120.5 -80.5 212.5 -80.5
c92.667 0 190.667 30.667 294 92l-24 -126c-88 -50.667 -184 -76 -288 -76c-118 0 -210.667 33.5 -278 100.5s-103 160.5 -107 280.5h-4zM925.999 552c201.333 0 349.334 19.001 444.001 57.001s142 96.333 142 175c0 50 -17.833 88.333 -53.5 115s-84.834 40 -147.501 40
c-99.333 0 -183.5 -34.833 -252.5 -104.5s-113.167 -163.834 -132.5 -282.501zM963 892.001c-61.333 31.333 -137 47 -227 47c-98.667 0 -188.334 -26 -269.001 -78s-144.5 -125.333 -191.5 -220s-70.5 -193.667 -70.5 -297c0 -80.667 13.167 -144 39.5 -190
s66.5 -69 120.5 -69c164 0 309.667 167.333 437 502c54.667 143.333 108.334 245 161.001 305z" />
    <glyph glyph-name="ccedilla" unicode="&#xe7;" horiz-adv-x="863" 
d="M443 -25c-113.333 0 -202.167 36.8359 -266.5 110.503s-96.5 174.167 -96.5 301.5c0 121.333 24.167 233.166 72.5 335.499s115.5 182.333 201.5 240s180.667 86.5 284 86.5c96.667 0 178 -22.667 244 -68l-30 -130c-60 58.667 -136 88 -228 88
c-78 0 -149.167 -24.667 -213.5 -74s-114.5 -116.333 -150.5 -201s-54 -174.334 -54 -269.001c0 -98.667 22.667 -175 68 -229s108.333 -81 189 -81c82 0 170.333 34.333 265 103l-30 -138c-53.333 -28.667 -98.333 -48.334 -135 -59.001s-76.667 -16 -120 -16z
M243.999 -345.997c28.667 -6 56.332 -9.00098 82.999 -9.00098c112 0 168 30.667 168 92c0 54.667 -41.667 82 -125 82l-59 -4l39 185h83l-24 -111c57.333 0 103 -12 137 -36s51 -59 51 -105c0 -57.333 -23.167 -102.166 -69.5 -134.499s-115.166 -48.5 -206.499 -48.5
c-26.667 0 -57.667 2.66699 -93 8z" />
    <glyph glyph-name="egrave" unicode="&#xe8;" horiz-adv-x="975" 
d="M209 388c0 -96 25.3311 -170.501 75.998 -223.501s120.667 -79.5 210 -79.5c91.333 0 189.333 30.667 294 92l-24 -126c-90 -50.667 -186 -76 -288 -76c-127.333 0 -225.333 37.333 -294 112s-103 179.334 -103 314.001c0 115.333 24.833 223.166 74.5 323.499
s116.834 179.5 201.501 237.5s175.667 87 273 87c92.667 0 166.834 -23.167 222.501 -69.5s83.5 -108.166 83.5 -185.499c0 -118 -57.833 -205.667 -173.5 -263s-299.167 -87.333 -550.5 -90zM225.998 548.999c198.667 0 345.003 19 439.003 57s141 97.667 141 179
c0 50 -16.833 88.167 -50.5 114.5s-80.834 39.5 -141.501 39.5c-90.667 0 -172.334 -36.5 -245.001 -109.5s-120.334 -166.5 -143.001 -280.5zM461.001 1530h123l199 -328h-101z" />
    <glyph glyph-name="eacute" unicode="&#xe9;" horiz-adv-x="975" 
d="M209 388c0 -96 25.3311 -170.501 75.998 -223.501s120.667 -79.5 210 -79.5c91.333 0 189.333 30.667 294 92l-24 -126c-90 -50.667 -186 -76 -288 -76c-127.333 0 -225.333 37.333 -294 112s-103 179.334 -103 314.001c0 115.333 24.833 223.166 74.5 323.499
s116.834 179.5 201.501 237.5s175.667 87 273 87c92.667 0 166.834 -23.167 222.501 -69.5s83.5 -108.166 83.5 -185.499c0 -118 -57.833 -205.667 -173.5 -263s-299.167 -87.333 -550.5 -90zM225.998 548.999c198.667 0 345.003 19 439.003 57s141 97.667 141 179
c0 50 -16.833 88.167 -50.5 114.5s-80.834 39.5 -141.501 39.5c-90.667 0 -172.334 -36.5 -245.001 -109.5s-120.334 -166.5 -143.001 -280.5zM831.001 1530h134l-314 -328h-109z" />
    <glyph glyph-name="ecircumflex" unicode="&#xea;" horiz-adv-x="975" 
d="M209 388c0 -96 25.3311 -170.501 75.998 -223.501s120.667 -79.5 210 -79.5c91.333 0 189.333 30.667 294 92l-24 -126c-90 -50.667 -186 -76 -288 -76c-127.333 0 -225.333 37.333 -294 112s-103 179.334 -103 314.001c0 115.333 24.833 223.166 74.5 323.499
s116.834 179.5 201.501 237.5s175.667 87 273 87c92.667 0 166.834 -23.167 222.501 -69.5s83.5 -108.166 83.5 -185.499c0 -118 -57.833 -205.667 -173.5 -263s-299.167 -87.333 -550.5 -90zM225.998 548.999c198.667 0 345.003 19 439.003 57s141 97.667 141 179
c0 50 -16.833 88.167 -50.5 114.5s-80.834 39.5 -141.501 39.5c-90.667 0 -172.334 -36.5 -245.001 -109.5s-120.334 -166.5 -143.001 -280.5zM661.001 1536h86l151 -334h-95l-113 239l-209 -239h-102z" />
    <glyph glyph-name="edieresis" unicode="&#xeb;" horiz-adv-x="975" 
d="M209 388c0 -96 25.3311 -170.501 75.998 -223.501s120.667 -79.5 210 -79.5c91.333 0 189.333 30.667 294 92l-24 -126c-90 -50.667 -186 -76 -288 -76c-127.333 0 -225.333 37.333 -294 112s-103 179.334 -103 314.001c0 115.333 24.833 223.166 74.5 323.499
s116.834 179.5 201.501 237.5s175.667 87 273 87c92.667 0 166.834 -23.167 222.501 -69.5s83.5 -108.166 83.5 -185.499c0 -118 -57.833 -205.667 -173.5 -263s-299.167 -87.333 -550.5 -90zM225.998 548.999c198.667 0 345.003 19 439.003 57s141 97.667 141 179
c0 50 -16.833 88.167 -50.5 114.5s-80.834 39.5 -141.501 39.5c-90.667 0 -172.334 -36.5 -245.001 -109.5s-120.334 -166.5 -143.001 -280.5zM724.001 1286c0 21.333 7.66699 40.501 23 57.501s35 25.5 59 25.5c23.333 0 43.666 -8 60.999 -24s26 -35.667 26 -59
c0 -24 -8.33301 -44 -25 -60s-36.667 -24 -60 -24s-43.166 7.66699 -59.499 23s-24.5 35.666 -24.5 60.999zM365.001 1286c0 22 8.16797 41.3311 24.501 57.998s35.833 25 58.5 25c24 0 44.667 -8 62 -24s26 -35.667 26 -59s-8.5 -43.166 -25.5 -59.499
s-37.5 -24.5 -61.5 -24.5c-22.667 0 -42.334 7.83301 -59.001 23.5s-25 35.834 -25 60.501z" />
    <glyph glyph-name="igrave" unicode="&#xec;" horiz-adv-x="475" 
d="M265 1024h126.999l-153 -721c-13.333 -68 -20 -115 -20 -141c0 -47.333 25.667 -71 77 -71c30.667 0 58.334 4.66699 83.001 14l-21 -102c-33.333 -13.333 -69 -20 -107 -20c-52 0 -91.833 13.5 -119.5 40.5s-41.5 66.5 -41.5 118.5c0 41.333 7.66699 96.333 23 165z
M183.999 1530h123l199 -328h-101z" />
    <glyph glyph-name="iacute" unicode="&#xed;" horiz-adv-x="475" 
d="M265 1024h126.999l-153 -721c-13.333 -68 -20 -115 -20 -141c0 -47.333 25.667 -71 77 -71c30.667 0 58.334 4.66699 83.001 14l-21 -102c-33.333 -13.333 -69 -20 -107 -20c-52 0 -91.833 13.5 -119.5 40.5s-41.5 66.5 -41.5 118.5c0 41.333 7.66699 96.333 23 165z
M528.999 1530h134l-314 -328h-109z" />
    <glyph glyph-name="icircumflex" unicode="&#xee;" horiz-adv-x="475" 
d="M265 1024h126.999l-153 -721c-13.333 -68 -20 -115 -20 -141c0 -47.333 25.667 -71 77 -71c30.667 0 58.334 4.66699 83.001 14l-21 -102c-33.333 -13.333 -69 -20 -107 -20c-52 0 -91.833 13.5 -119.5 40.5s-41.5 66.5 -41.5 118.5c0 41.333 7.66699 96.333 23 165z
M386.999 1536h86l151 -334h-95l-113 239l-209 -239h-102z" />
    <glyph glyph-name="idieresis" unicode="&#xef;" horiz-adv-x="475" 
d="M265 1024h126.999l-153 -721c-13.333 -68 -20 -115 -20 -141c0 -47.333 25.667 -71 77 -71c30.667 0 58.334 4.66699 83.001 14l-21 -102c-33.333 -13.333 -69 -20 -107 -20c-52 0 -91.833 13.5 -119.5 40.5s-41.5 66.5 -41.5 118.5c0 41.333 7.66699 96.333 23 165z
M466.999 1286c0 21.333 7.66699 40.501 23 57.501s35 25.5 59 25.5c23.333 0 43.666 -8 60.999 -24s26 -35.667 26 -59c0 -24 -8.33301 -44 -25 -60s-36.667 -24 -60 -24s-43.166 7.66699 -59.499 23s-24.5 35.666 -24.5 60.999zM107.999 1286
c0 22 8.16797 41.3311 24.501 57.998s35.833 25 58.5 25c24 0 44.667 -8 62 -24s26 -35.667 26 -59s-8.5 -43.166 -25.5 -59.499s-37.5 -24.5 -61.5 -24.5c-22.667 0 -42.334 7.83301 -59.001 23.5s-25 35.834 -25 60.501z" />
    <glyph glyph-name="eth" unicode="&#xf0;" horiz-adv-x="1077" 
d="M344 1211l287.002 118.995c-46 53.333 -118.667 115.333 -218 186h178c49.333 -36.667 99 -82 149 -136l304 127l37 -82l-280 -118c132.667 -172 199 -380 199 -624c0 -127.333 -24.333 -246.166 -73 -356.499s-115.5 -196.5 -200.5 -258.5s-178.833 -93 -281.5 -93
c-114 0 -203.5 35.167 -268.5 105.5s-97.5 167.5 -97.5 291.5c0 122.667 24.833 236.834 74.5 342.501s115 187.834 196 246.501s168.167 88 261.5 88c53.333 0 100.166 -10.5 140.499 -31.5s72.166 -49.833 95.499 -86.5h4c-11.333 52.667 -32 109.834 -62 171.501
s-62.667 113.834 -98 156.501l-313 -135zM455.002 84.9951c74 0 143.167 26.332 207.5 78.999s115.166 124.167 152.499 214.5s56 184.166 56 281.499c0 88 -22.167 156.5 -66.5 205.5s-106.166 73.5 -185.499 73.5c-72 0 -140.167 -25.667 -204.5 -77
s-114.833 -120.166 -151.5 -206.499s-55 -178.166 -55 -275.499c0 -91.333 21.667 -163.333 65 -216s104 -79 182 -79z" />
    <glyph glyph-name="ntilde" unicode="&#xf1;" horiz-adv-x="1126" 
d="M263 1024l122.998 -0.000976562c-9.33301 -71.333 -23.666 -160.666 -42.999 -267.999h4c58 94 122.333 166.333 193 217s143.334 76 218.001 76c171.333 0 257 -92.667 257 -278c0 -36.667 -10.667 -104.667 -32 -204l-120 -567h-126l123 594c16 81.333 24 134 24 158
c0 124.667 -53.667 187 -161 187c-53.333 0 -111.666 -22.5 -174.999 -67.5s-118.833 -102.667 -166.5 -173s-78.834 -140.5 -93.501 -210.5l-104 -488h-127l158 735c18.667 92.667 34.667 189 48 289zM374.998 1202c9.33301 70 33.335 124.333 72.002 163s88 58 148 58
c28.667 0 53 -6 73 -18s38.5 -25.167 55.5 -39.5s34.167 -27.5 51.5 -39.5s37.666 -18 60.999 -18c30 0 55.667 11.5 77 34.5s35.666 55.167 42.999 96.5h84c-10.667 -68.667 -34.834 -122.667 -72.501 -162s-85.167 -59 -142.5 -59c-31.333 0 -57.166 5.83301 -77.499 17.5
s-39 24.667 -56 39s-33.833 27.333 -50.5 39s-36.334 17.5 -59.001 17.5c-67.333 0 -108.666 -43 -123.999 -129h-83z" />
    <glyph glyph-name="ograve" unicode="&#xf2;" horiz-adv-x="1077" 
d="M449 -25c-114 0 -204 35.167 -270 105.5s-99 168.5 -99 294.5c0 124 23.5 237.833 70.5 341.5s113 185 198 244s178.5 88.5 280.5 88.5c113.333 0 203 -35.5 269 -106.5s99 -168.5 99 -292.5c0 -126 -23.5 -240.833 -70.5 -344.5s-112.333 -184.667 -196 -243
s-177.5 -87.5 -281.5 -87.5zM458 85c75.333 0 144.665 24.6689 207.998 74.002s112.833 116.666 148.5 201.999s53.5 178.666 53.5 279.999c0 96.667 -22.167 170.5 -66.5 221.5s-105.166 76.5 -182.499 76.5c-114 0 -210.833 -53.5 -290.5 -160.5
s-119.5 -238.833 -119.5 -395.5c0 -93.333 22.333 -166.333 67 -219s105.334 -79 182.001 -79zM485.999 1530h123l199 -328h-101z" />
    <glyph glyph-name="oacute" unicode="&#xf3;" horiz-adv-x="1077" 
d="M449 -25c-114 0 -204 35.167 -270 105.5s-99 168.5 -99 294.5c0 124 23.5 237.833 70.5 341.5s113 185 198 244s178.5 88.5 280.5 88.5c113.333 0 203 -35.5 269 -106.5s99 -168.5 99 -292.5c0 -126 -23.5 -240.833 -70.5 -344.5s-112.333 -184.667 -196 -243
s-177.5 -87.5 -281.5 -87.5zM458 85c75.333 0 144.665 24.6689 207.998 74.002s112.833 116.666 148.5 201.999s53.5 178.666 53.5 279.999c0 96.667 -22.167 170.5 -66.5 221.5s-105.166 76.5 -182.499 76.5c-114 0 -210.833 -53.5 -290.5 -160.5
s-119.5 -238.833 -119.5 -395.5c0 -93.333 22.333 -166.333 67 -219s105.334 -79 182.001 -79zM832.999 1530h134l-314 -328h-109z" />
    <glyph glyph-name="ocircumflex" unicode="&#xf4;" horiz-adv-x="1077" 
d="M449 -25c-114 0 -204 35.167 -270 105.5s-99 168.5 -99 294.5c0 124 23.5 237.833 70.5 341.5s113 185 198 244s178.5 88.5 280.5 88.5c113.333 0 203 -35.5 269 -106.5s99 -168.5 99 -292.5c0 -126 -23.5 -240.833 -70.5 -344.5s-112.333 -184.667 -196 -243
s-177.5 -87.5 -281.5 -87.5zM458 85c75.333 0 144.665 24.6689 207.998 74.002s112.833 116.666 148.5 201.999s53.5 178.666 53.5 279.999c0 96.667 -22.167 170.5 -66.5 221.5s-105.166 76.5 -182.499 76.5c-114 0 -210.833 -53.5 -290.5 -160.5
s-119.5 -238.833 -119.5 -395.5c0 -93.333 22.333 -166.333 67 -219s105.334 -79 182.001 -79zM678.999 1536h86l151 -334h-95l-113 239l-209 -239h-102z" />
    <glyph glyph-name="otilde" unicode="&#xf5;" horiz-adv-x="1077" 
d="M449 -25c-114 0 -204 35.167 -270 105.5s-99 168.5 -99 294.5c0 124 23.5 237.833 70.5 341.5s113 185 198 244s178.5 88.5 280.5 88.5c113.333 0 203 -35.5 269 -106.5s99 -168.5 99 -292.5c0 -126 -23.5 -240.833 -70.5 -344.5s-112.333 -184.667 -196 -243
s-177.5 -87.5 -281.5 -87.5zM458 85c75.333 0 144.665 24.6689 207.998 74.002s112.833 116.666 148.5 201.999s53.5 178.666 53.5 279.999c0 96.667 -22.167 170.5 -66.5 221.5s-105.166 76.5 -182.499 76.5c-114 0 -210.833 -53.5 -290.5 -160.5
s-119.5 -238.833 -119.5 -395.5c0 -93.333 22.333 -166.333 67 -219s105.334 -79 182.001 -79zM351.999 1202c9.33301 70 33.335 124.333 72.002 163s88 58 148 58c28.667 0 53 -6 73 -18s38.5 -25.167 55.5 -39.5s34.167 -27.5 51.5 -39.5s37.666 -18 60.999 -18
c30 0 55.667 11.5 77 34.5s35.666 55.167 42.999 96.5h84c-10.667 -68.667 -34.834 -122.667 -72.501 -162s-85.167 -59 -142.5 -59c-31.333 0 -57.166 5.83301 -77.499 17.5s-39 24.667 -56 39s-33.833 27.333 -50.5 39s-36.334 17.5 -59.001 17.5
c-67.333 0 -108.666 -43 -123.999 -129h-83z" />
    <glyph glyph-name="odieresis" unicode="&#xf6;" horiz-adv-x="1077" 
d="M449 -25c-114 0 -204 35.167 -270 105.5s-99 168.5 -99 294.5c0 124 23.5 237.833 70.5 341.5s113 185 198 244s178.5 88.5 280.5 88.5c113.333 0 203 -35.5 269 -106.5s99 -168.5 99 -292.5c0 -126 -23.5 -240.833 -70.5 -344.5s-112.333 -184.667 -196 -243
s-177.5 -87.5 -281.5 -87.5zM458 85c75.333 0 144.665 24.6689 207.998 74.002s112.833 116.666 148.5 201.999s53.5 178.666 53.5 279.999c0 96.667 -22.167 170.5 -66.5 221.5s-105.166 76.5 -182.499 76.5c-114 0 -210.833 -53.5 -290.5 -160.5
s-119.5 -238.833 -119.5 -395.5c0 -93.333 22.333 -166.333 67 -219s105.334 -79 182.001 -79zM751.999 1286c0 21.333 7.66699 40.501 23 57.501s35 25.5 59 25.5c23.333 0 43.666 -8 60.999 -24s26 -35.667 26 -59c0 -24 -8.33301 -44 -25 -60s-36.667 -24 -60 -24
s-43.166 7.66699 -59.499 23s-24.5 35.666 -24.5 60.999zM392.999 1286c0 22 8.16797 41.3311 24.501 57.998s35.833 25 58.5 25c24 0 44.667 -8 62 -24s26 -35.667 26 -59s-8.5 -43.166 -25.5 -59.499s-37.5 -24.5 -61.5 -24.5c-22.667 0 -42.334 7.83301 -59.001 23.5
s-25 35.834 -25 60.501z" />
    <glyph glyph-name="divide" unicode="&#xf7;" horiz-adv-x="1364" 
d="M709 867c-25.333 0 -46.667 8.66797 -64 26.001s-26 38.666 -26 63.999s8.5 46.833 25.5 64.5s38.5 26.5 64.5 26.5c28 0 50.167 -8 66.5 -24s24.5 -38 24.5 -66c0 -26 -9 -47.667 -27 -65s-39.333 -26 -64 -26zM243.999 651.001h922v-108h-922v108zM615.999 235.001
c0 25.333 8.66895 47 26.002 65s39 27 65 27c27.333 0 49.166 -8.16699 65.499 -24.5s24.5 -38.5 24.5 -66.5c0 -26 -8.83301 -47.5 -26.5 -64.5s-38.834 -25.5 -63.501 -25.5c-25.333 0 -46.833 8.5 -64.5 25.5s-26.5 38.167 -26.5 63.5z" />
    <glyph glyph-name="oslash" unicode="&#xf8;" horiz-adv-x="1077" 
d="M-58 8l176.001 167c-25.333 63.333 -38 130 -38 200c0 124 23.667 237.833 71 341.5s113.166 185 197.499 244s177.833 88.5 280.5 88.5c120 0 213.667 -39.667 281 -119l182 173l67 -69l-199 -190c24.667 -55.333 37 -120 37 -194c0 -126 -23.5 -240.833 -70.5 -344.5
s-112.667 -184.667 -197 -243s-177.833 -87.5 -280.5 -87.5c-121.333 0 -214.333 39.333 -279 118l-164 -155zM816.001 840c-42.667 66 -108.333 99 -197 99c-114 0 -210.833 -53.5 -290.5 -160.5s-119.5 -239.5 -119.5 -397.5c0 -42 4.33301 -77.333 13 -106zM262.002 182
c44 -64.667 109.333 -96.999 196 -96.999c75.333 0 144.5 24.5 207.5 73.5s112.5 116.333 148.5 202s54 180.167 54 283.5c0 37.333 -4 71.666 -12 102.999z" />
    <glyph glyph-name="ugrave" unicode="&#xf9;" horiz-adv-x="1122" 
d="M260 1024h126.001l-124 -594c-16 -81.333 -24 -134 -24 -158c0 -124.667 53.667 -187 161 -187c52 0 108.167 20.833 168.5 62.5s116 98.834 167 171.501s84.5 145 100.5 217l104 488h126l-157 -736c-22.667 -104 -38.667 -200 -48 -288h-123l43 268h-4
c-58 -94 -122.333 -166.333 -193 -217s-143 -76 -217 -76c-86.667 0 -151.334 24.5 -194.001 73.5s-64 118.5 -64 208.5c0 19.333 3.5 50.666 10.5 93.999s13.833 78.333 20.5 105zM483.001 1530h123l199 -328h-101z" />
    <glyph glyph-name="uacute" unicode="&#xfa;" horiz-adv-x="1122" 
d="M260 1024h126.001l-124 -594c-16 -81.333 -24 -134 -24 -158c0 -124.667 53.667 -187 161 -187c52 0 108.167 20.833 168.5 62.5s116 98.834 167 171.501s84.5 145 100.5 217l104 488h126l-157 -736c-22.667 -104 -38.667 -200 -48 -288h-123l43 268h-4
c-58 -94 -122.333 -166.333 -193 -217s-143 -76 -217 -76c-86.667 0 -151.334 24.5 -194.001 73.5s-64 118.5 -64 208.5c0 19.333 3.5 50.666 10.5 93.999s13.833 78.333 20.5 105zM891.001 1530h134l-314 -328h-109z" />
    <glyph glyph-name="ucircumflex" unicode="&#xfb;" horiz-adv-x="1122" 
d="M260 1024h126.001l-124 -594c-16 -81.333 -24 -134 -24 -158c0 -124.667 53.667 -187 161 -187c52 0 108.167 20.833 168.5 62.5s116 98.834 167 171.501s84.5 145 100.5 217l104 488h126l-157 -736c-22.667 -104 -38.667 -200 -48 -288h-123l43 268h-4
c-58 -94 -122.333 -166.333 -193 -217s-143 -76 -217 -76c-86.667 0 -151.334 24.5 -194.001 73.5s-64 118.5 -64 208.5c0 19.333 3.5 50.666 10.5 93.999s13.833 78.333 20.5 105zM728.001 1536h86l151 -334h-95l-113 239l-209 -239h-102z" />
    <glyph glyph-name="udieresis" unicode="&#xfc;" horiz-adv-x="1122" 
d="M260 1024h126.001l-124 -594c-16 -81.333 -24 -134 -24 -158c0 -124.667 53.667 -187 161 -187c52 0 108.167 20.833 168.5 62.5s116 98.834 167 171.501s84.5 145 100.5 217l104 488h126l-157 -736c-22.667 -104 -38.667 -200 -48 -288h-123l43 268h-4
c-58 -94 -122.333 -166.333 -193 -217s-143 -76 -217 -76c-86.667 0 -151.334 24.5 -194.001 73.5s-64 118.5 -64 208.5c0 19.333 3.5 50.666 10.5 93.999s13.833 78.333 20.5 105zM814.001 1286c0 21.333 7.66699 40.501 23 57.501s35 25.5 59 25.5
c23.333 0 43.666 -8 60.999 -24s26 -35.667 26 -59c0 -24 -8.33301 -44 -25 -60s-36.667 -24 -60 -24s-43.166 7.66699 -59.499 23s-24.5 35.666 -24.5 60.999zM455.001 1286c0 22 8.16797 41.3311 24.501 57.998s35.833 25 58.5 25c24 0 44.667 -8 62 -24
s26 -35.667 26 -59s-8.5 -43.166 -25.5 -59.499s-37.5 -24.5 -61.5 -24.5c-22.667 0 -42.334 7.83301 -59.001 23.5s-25 35.834 -25 60.501z" />
    <glyph glyph-name="yacute" unicode="&#xfd;" horiz-adv-x="957" 
d="M-139 -348c21.333 -12 47.667 -18 79 -18c48 0 91.167 14 129.5 42s75.833 71.333 112.5 130l129 203l-183 1015h129l134 -809l7 -77h4l27 53l496 833h142l-742 -1205c-71.333 -114 -136.5 -192.5 -195.5 -235.5s-126.167 -64.5 -201.5 -64.5c-37.333 0 -68 5 -92 15z
M802.001 1530h134l-314 -328h-109z" />
    <glyph glyph-name="thorn" unicode="&#xfe;" horiz-adv-x="1089" 
d="M374 1516h124l-111 -519c-16 -79.333 -35.667 -162.333 -59 -249h4c113.333 200.667 242.333 301 387 301c92.667 0 164.167 -31.667 214.5 -95s75.5 -156.333 75.5 -279c0 -127.333 -27.5 -245.833 -82.5 -355.5s-129 -194.5 -222 -254.5s-195.5 -90 -307.5 -90
c-74.667 0 -146.667 13 -216 39l-104 -492h-126zM203 125c58.667 -26.667 128 -40.002 208 -40.002c87.333 0 167 25.667 239 77s128.333 121.5 169 210.5s61 185.833 61 290.5c0 184 -65.333 276 -196 276c-54.667 0 -111.167 -24.667 -169.5 -74
s-110.333 -115.666 -156 -198.999s-77.5 -168.666 -95.5 -255.999z" />
    <glyph glyph-name="ydieresis" unicode="&#xff;" horiz-adv-x="957" 
d="M-139 -348c21.333 -12 47.667 -18 79 -18c48 0 91.167 14 129.5 42s75.833 71.333 112.5 130l129 203l-183 1015h129l134 -809l7 -77h4l27 53l496 833h142l-742 -1205c-71.333 -114 -136.5 -192.5 -195.5 -235.5s-126.167 -64.5 -201.5 -64.5c-37.333 0 -68 5 -92 15z
M701.001 1286c0 21.333 7.66699 40.501 23 57.501s35 25.5 59 25.5c23.333 0 43.666 -8 60.999 -24s26 -35.667 26 -59c0 -24 -8.33301 -44 -25 -60s-36.667 -24 -60 -24s-43.166 7.66699 -59.499 23s-24.5 35.666 -24.5 60.999zM342.001 1286
c0 22 8.16797 41.3311 24.501 57.998s35.833 25 58.5 25c24 0 44.667 -8 62 -24s26 -35.667 26 -59s-8.5 -43.166 -25.5 -59.499s-37.5 -24.5 -61.5 -24.5c-22.667 0 -42.334 7.83301 -59.001 23.5s-25 35.834 -25 60.501z" />
    <glyph glyph-name="Amacron" unicode="&#x100;" horiz-adv-x="1247" 
d="M749 1434h131l240 -1434h-135l-69 425h-612l-250 -425h-147zM897 544l-98 639.001c-4.66699 36 -7 70.333 -7 103h-4l-9 -22c-4 -10.667 -13.333 -29.834 -28 -57.501s-141.667 -248.5 -381 -662.5h527zM581 1655h508l-17 -95h-508z" />
    <glyph glyph-name="amacron" unicode="&#x101;" horiz-adv-x="1089" 
d="M718 0c2.66699 70 14 162 34 276h-4c-61.333 -108 -121.5 -185.167 -180.5 -231.5s-124.5 -69.5 -196.5 -69.5c-92 0 -163.5 32.5 -214.5 97.5s-76.5 156.5 -76.5 274.5c0 127.333 27.5 246.5 82.5 357.5s130 196.167 225 255.5s201.167 89 318.5 89
c86 0 193.333 -13 322 -39l-137 -661c-9.33301 -44 -18.833 -104 -28.5 -180s-14.5 -132.333 -14.5 -169h-130zM883 918c-63.333 14 -127.667 21.001 -193 21.001c-90.667 0 -172.334 -24.667 -245.001 -74s-130.167 -119.333 -172.5 -210s-63.5 -190.334 -63.5 -299.001
c0 -180.667 64 -271 192 -271c54 0 109.333 23.5 166 70.5s108.334 113.5 155.001 199.5s79.667 172.667 99 260zM472.999 1308h508l-17 -95h-508z" />
    <glyph glyph-name="Abreve" unicode="&#x102;" horiz-adv-x="1247" 
d="M749 1434h131l240 -1434h-135l-69 425h-612l-250 -425h-147zM897 544l-98 639.001c-4.66699 36 -7 70.333 -7 103h-4l-9 -22c-4 -10.667 -13.333 -29.834 -28 -57.501s-141.667 -248.5 -381 -662.5h527zM681 1800l-1.99902 -23c0 -43.333 13.5 -76.5 40.5 -99.5
s63.167 -34.5 108.5 -34.5c52.667 0 95.667 12.167 129 36.5s59.666 64.5 78.999 120.5h98c-24 -79.333 -62.5 -139.833 -115.5 -181.5s-117.833 -62.5 -194.5 -62.5c-72.667 0 -130.667 18.833 -174 56.5s-65 89.167 -65 154.5l3 33h93z" />
    <glyph glyph-name="abreve" unicode="&#x103;" horiz-adv-x="1089" 
d="M718 0c2.66699 70 14 162 34 276h-4c-61.333 -108 -121.5 -185.167 -180.5 -231.5s-124.5 -69.5 -196.5 -69.5c-92 0 -163.5 32.5 -214.5 97.5s-76.5 156.5 -76.5 274.5c0 127.333 27.5 246.5 82.5 357.5s130 196.167 225 255.5s201.167 89 318.5 89
c86 0 193.333 -13 322 -39l-137 -661c-9.33301 -44 -18.833 -104 -28.5 -180s-14.5 -132.333 -14.5 -169h-130zM883 918c-63.333 14 -127.667 21.001 -193 21.001c-90.667 0 -172.334 -24.667 -245.001 -74s-130.167 -119.333 -172.5 -210s-63.5 -190.334 -63.5 -299.001
c0 -180.667 64 -271 192 -271c54 0 109.333 23.5 166 70.5s108.334 113.5 155.001 199.5s79.667 172.667 99 260zM576.999 1446l-1.99902 -23c0 -43.333 13.5 -76.5 40.5 -99.5s63.167 -34.5 108.5 -34.5c52.667 0 95.667 12.167 129 36.5s59.666 64.5 78.999 120.5h98
c-24 -79.333 -62.5 -139.833 -115.5 -181.5s-117.833 -62.5 -194.5 -62.5c-72.667 0 -130.667 18.833 -174 56.5s-65 89.167 -65 154.5l3 33h93z" />
    <glyph glyph-name="Aogonek" unicode="&#x104;" horiz-adv-x="1247" 
d="M749 1434h131l240 -1434h-135l-69 425h-612l-250 -425h-147zM897 544l-98 639.001c-4.66699 36 -7 70.333 -7 103h-4l-9 -22c-4 -10.667 -13.333 -29.834 -28 -57.501s-141.667 -248.5 -381 -662.5h527zM962 -412.999c-50 0 -88.8311 13.667 -116.498 41
s-41.5 65 -41.5 113c0 84 61 170.333 183 259h94c-63.333 -54 -108.833 -100 -136.5 -138s-41.5 -73.667 -41.5 -107c0 -56 27.333 -84 82 -84c23.333 0 51.666 7 84.999 21l-7 -85c-32.667 -13.333 -66.334 -20 -101.001 -20z" />
    <glyph glyph-name="aogonek" unicode="&#x105;" horiz-adv-x="1089" 
d="M718 0c2.66699 70 14 162 34 276h-4c-61.333 -108 -121.5 -185.167 -180.5 -231.5s-124.5 -69.5 -196.5 -69.5c-92 0 -163.5 32.5 -214.5 97.5s-76.5 156.5 -76.5 274.5c0 127.333 27.5 246.5 82.5 357.5s130 196.167 225 255.5s201.167 89 318.5 89
c86 0 193.333 -13 322 -39l-137 -661c-9.33301 -44 -18.833 -104 -28.5 -180s-14.5 -132.333 -14.5 -169h-130zM883 918c-63.333 14 -127.667 21.001 -193 21.001c-90.667 0 -172.334 -24.667 -245.001 -74s-130.167 -119.333 -172.5 -210s-63.5 -190.334 -63.5 -299.001
c0 -180.667 64 -271 192 -271c54 0 109.333 23.5 166 70.5s108.334 113.5 155.001 199.5s79.667 172.667 99 260zM704.999 -412.999c-50 0 -88.8311 13.667 -116.498 41s-41.5 65 -41.5 113c0 84 61 170.333 183 259h94c-63.333 -54 -108.833 -100 -136.5 -138
s-41.5 -73.667 -41.5 -107c0 -56 27.333 -84 82 -84c23.333 0 51.666 7 84.999 21l-7 -85c-32.667 -13.333 -66.334 -20 -101.001 -20z" />
    <glyph glyph-name="Cacute" unicode="&#x106;" horiz-adv-x="1301" 
d="M722 -25c-176.667 0 -317 55.8311 -421 167.498s-156 261.5 -156 449.5c0 168.667 34.5 318.834 103.5 450.501s165.5 233.834 289.5 306.501s263.333 109 418 109c142 0 271 -31 387 -93l-28 -138c-104.667 75.333 -228 113 -370 113
c-127.333 0 -241.5 -31.167 -342.5 -93.5s-179.833 -149.5 -236.5 -261.5s-85 -237.333 -85 -376c0 -162 41.5 -288.333 124.5 -379s197.5 -136 343.5 -136c138 0 266 33.667 384 101l-31 -141c-60.667 -28 -120 -48.167 -178 -60.5s-123.333 -18.5 -196 -18.5h-6z
M1091 1884h134l-314 -328h-109z" />
    <glyph glyph-name="cacute" unicode="&#x107;" horiz-adv-x="863" 
d="M443 -25c-113.333 0 -202.167 36.8359 -266.5 110.503s-96.5 174.167 -96.5 301.5c0 121.333 24.167 233.166 72.5 335.499s115.5 182.333 201.5 240s180.667 86.5 284 86.5c96.667 0 178 -22.667 244 -68l-30 -130c-60 58.667 -136 88 -228 88
c-78 0 -149.167 -24.667 -213.5 -74s-114.5 -116.333 -150.5 -201s-54 -174.334 -54 -269.001c0 -98.667 22.667 -175 68 -229s108.333 -81 189 -81c82 0 170.333 34.333 265 103l-30 -138c-53.333 -28.667 -98.333 -48.334 -135 -59.001s-76.667 -16 -120 -16z
M840.999 1530h134l-314 -328h-109z" />
    <glyph glyph-name="Ccircumflex" unicode="&#x108;" horiz-adv-x="1301" 
d="M722 -25c-176.667 0 -317 55.8311 -421 167.498s-156 261.5 -156 449.5c0 168.667 34.5 318.834 103.5 450.501s165.5 233.834 289.5 306.501s263.333 109 418 109c142 0 271 -31 387 -93l-28 -138c-104.667 75.333 -228 113 -370 113
c-127.333 0 -241.5 -31.167 -342.5 -93.5s-179.833 -149.5 -236.5 -261.5s-85 -237.333 -85 -376c0 -162 41.5 -288.333 124.5 -379s197.5 -136 343.5 -136c138 0 266 33.667 384 101l-31 -141c-60.667 -28 -120 -48.167 -178 -60.5s-123.333 -18.5 -196 -18.5h-6zM968 1890
h86l151 -334h-95l-113 239l-209 -239h-102z" />
    <glyph glyph-name="ccircumflex" unicode="&#x109;" horiz-adv-x="863" 
d="M443 -25c-113.333 0 -202.167 36.8359 -266.5 110.503s-96.5 174.167 -96.5 301.5c0 121.333 24.167 233.166 72.5 335.499s115.5 182.333 201.5 240s180.667 86.5 284 86.5c96.667 0 178 -22.667 244 -68l-30 -130c-60 58.667 -136 88 -228 88
c-78 0 -149.167 -24.667 -213.5 -74s-114.5 -116.333 -150.5 -201s-54 -174.334 -54 -269.001c0 -98.667 22.667 -175 68 -229s108.333 -81 189 -81c82 0 170.333 34.333 265 103l-30 -138c-53.333 -28.667 -98.333 -48.334 -135 -59.001s-76.667 -16 -120 -16z
M668.999 1536h86l151 -334h-95l-113 239l-209 -239h-102z" />
    <glyph glyph-name="Cdotaccent" unicode="&#x10a;" horiz-adv-x="1301" 
d="M722 -25c-176.667 0 -317 55.8311 -421 167.498s-156 261.5 -156 449.5c0 168.667 34.5 318.834 103.5 450.501s165.5 233.834 289.5 306.501s263.333 109 418 109c142 0 271 -31 387 -93l-28 -138c-104.667 75.333 -228 113 -370 113
c-127.333 0 -241.5 -31.167 -342.5 -93.5s-179.833 -149.5 -236.5 -261.5s-85 -237.333 -85 -376c0 -162 41.5 -288.333 124.5 -379s197.5 -136 343.5 -136c138 0 266 33.667 384 101l-31 -141c-60.667 -28 -120 -48.167 -178 -60.5s-123.333 -18.5 -196 -18.5h-6zM982 1550
c-24.667 0 -45.332 8.66699 -61.999 26s-25 38 -25 62c0 25.333 8.66699 45.666 26 60.999s37.333 23 60 23c23.333 0 43.833 -7.66699 61.5 -23s26.5 -35.666 26.5 -60.999c0 -24.667 -8.33301 -45.5 -25 -62.5s-37.334 -25.5 -62.001 -25.5z" />
    <glyph glyph-name="cdotaccent" unicode="&#x10b;" horiz-adv-x="863" 
d="M443 -25c-113.333 0 -202.167 36.8359 -266.5 110.503s-96.5 174.167 -96.5 301.5c0 121.333 24.167 233.166 72.5 335.499s115.5 182.333 201.5 240s180.667 86.5 284 86.5c96.667 0 178 -22.667 244 -68l-30 -130c-60 58.667 -136 88 -228 88
c-78 0 -149.167 -24.667 -213.5 -74s-114.5 -116.333 -150.5 -201s-54 -174.334 -54 -269.001c0 -98.667 22.667 -175 68 -229s108.333 -81 189 -81c82 0 170.333 34.333 265 103l-30 -138c-53.333 -28.667 -98.333 -48.334 -135 -59.001s-76.667 -16 -120 -16z
M686.999 1202c-24.667 0 -45.332 8.66699 -61.999 26s-25 38 -25 62c0 25.333 8.66699 45.666 26 60.999s37.333 23 60 23c23.333 0 43.833 -7.66699 61.5 -23s26.5 -35.666 26.5 -60.999c0 -24.667 -8.33301 -45.5 -25 -62.5s-37.334 -25.5 -62.001 -25.5z" />
    <glyph glyph-name="Ccaron" unicode="&#x10c;" horiz-adv-x="1301" 
d="M722 -25c-176.667 0 -317 55.8311 -421 167.498s-156 261.5 -156 449.5c0 168.667 34.5 318.834 103.5 450.501s165.5 233.834 289.5 306.501s263.333 109 418 109c142 0 271 -31 387 -93l-28 -138c-104.667 75.333 -228 113 -370 113
c-127.333 0 -241.5 -31.167 -342.5 -93.5s-179.833 -149.5 -236.5 -261.5s-85 -237.333 -85 -376c0 -162 41.5 -288.333 124.5 -379s197.5 -136 343.5 -136c138 0 266 33.667 384 101l-31 -141c-60.667 -28 -120 -48.167 -178 -60.5s-123.333 -18.5 -196 -18.5h-6zM741 1889
h94l114 -239l210 239h101l-281 -334h-87z" />
    <glyph glyph-name="ccaron" unicode="&#x10d;" horiz-adv-x="863" 
d="M443 -25c-113.333 0 -202.167 36.8359 -266.5 110.503s-96.5 174.167 -96.5 301.5c0 121.333 24.167 233.166 72.5 335.499s115.5 182.333 201.5 240s180.667 86.5 284 86.5c96.667 0 178 -22.667 244 -68l-30 -130c-60 58.667 -136 88 -228 88
c-78 0 -149.167 -24.667 -213.5 -74s-114.5 -116.333 -150.5 -201s-54 -174.334 -54 -269.001c0 -98.667 22.667 -175 68 -229s108.333 -81 189 -81c82 0 170.333 34.333 265 103l-30 -138c-53.333 -28.667 -98.333 -48.334 -135 -59.001s-76.667 -16 -120 -16z
M458.999 1536h94l114 -239l210 239h101l-281 -334h-87z" />
    <glyph glyph-name="Dcaron" unicode="&#x10e;" horiz-adv-x="1419" 
d="M381 1434l362.998 -0.000976562c197.333 0 350.333 -51.167 459 -153.5s163 -245.166 163 -428.499c0 -170 -34.667 -319.5 -104 -448.5s-169.166 -228.5 -299.499 -298.5s-283.166 -105 -458.499 -105h-429zM510.998 118.999c222.667 0 398.167 64.168 526.5 192.501
s192.5 305.166 192.5 530.499c0 315.333 -171.667 473 -515 473h-228l-255 -1196h279zM587.998 1889h94l114 -239l210 239h101l-281 -334h-87z" />
    <glyph glyph-name="dcaron" unicode="&#x10f;" horiz-adv-x="1238" 
d="M718 0c2.66699 66.667 13.666 157.67 32.999 273.003h-4c-56 -98.667 -113.667 -173 -173 -223s-127 -75 -203 -75c-91.333 0 -162.666 32.167 -213.999 96.5s-77 156.833 -77 277.5c0 127.333 27 245.666 81 354.999s128.167 194.166 222.5 254.499
s199.5 90.5 315.5 90.5c64 0 132.667 -9.33301 206 -28l105 495h124l-252 -1196c-6 -25.333 -13.167 -77.333 -21.5 -156s-12.5 -133.334 -12.5 -164.001h-130zM881.999 909.003c-61.333 20 -125.664 30 -192.997 30c-90.667 0 -171.834 -24.5 -243.501 -73.5
s-129 -118.833 -172 -209.5s-64.5 -189 -64.5 -295c0 -184 64.333 -276 193 -276c53.333 0 108.166 23.5 164.499 70.5s107.666 112.333 153.999 196s79.833 173.167 100.5 268.5zM1367 1516h139l-199 -260h-99z" />
    <glyph glyph-name="Dcroat" unicode="&#x110;" horiz-adv-x="1419" 
d="M216 658h-159l23 119h161l140 657h359c196.667 0 350.167 -51.333 460.5 -154s165.5 -247 165.5 -433c0 -169.333 -34.5 -318 -103.5 -446s-169 -226.833 -300 -296.5s-284.5 -104.5 -460.5 -104.5h-427zM504 119c230 0 408.5 63.333 535.5 190s190.5 302.667 190.5 528
c0 154.667 -43.167 273 -129.5 355s-214.833 123 -385.5 123h-228l-115 -538h374l-24 -119h-375l-115 -539h272z" />
    <glyph glyph-name="dcroat" unicode="&#x111;" horiz-adv-x="1089" 
d="M718 0c2.66699 66.667 13.666 157.67 32.999 273.003h-4c-56 -98.667 -113.667 -173 -173 -223s-127 -75 -203 -75c-91.333 0 -162.666 32.167 -213.999 96.5s-77 156.833 -77 277.5c0 127.333 27 245.666 81 354.999s128.167 194.166 222.5 254.499
s199.5 90.5 315.5 90.5c64 0 132.667 -9.33301 206 -28l41 197h-363l23 106h363l41 192h124l-41 -192h136l-23 -106h-135l-189 -898c-6 -25.333 -13.167 -77.333 -21.5 -156s-12.5 -133.334 -12.5 -164.001h-130zM881.999 909.003
c-61.333 20 -125.666 29.999 -192.999 29.999c-90.667 0 -171.834 -24.5 -243.501 -73.5s-129 -118.833 -172 -209.5s-64.5 -189 -64.5 -295c0 -184 64.333 -276 193 -276c54.667 0 110.5 24.667 167.5 74s108.333 115.833 154 199.5s78.167 170.834 97.5 261.501z" />
    <glyph glyph-name="Emacron" unicode="&#x112;" horiz-adv-x="1004" 
d="M378 1434h696l-25 -119h-563l-114 -535h522l-25 -119h-523l-115 -542h597l-24 -119h-729zM495 1655h508l-17 -95h-508z" />
    <glyph glyph-name="emacron" unicode="&#x113;" horiz-adv-x="975" 
d="M209 388c0 -96 25.3311 -170.501 75.998 -223.501s120.667 -79.5 210 -79.5c91.333 0 189.333 30.667 294 92l-24 -126c-90 -50.667 -186 -76 -288 -76c-127.333 0 -225.333 37.333 -294 112s-103 179.334 -103 314.001c0 115.333 24.833 223.166 74.5 323.499
s116.834 179.5 201.501 237.5s175.667 87 273 87c92.667 0 166.834 -23.167 222.501 -69.5s83.5 -108.166 83.5 -185.499c0 -118 -57.833 -205.667 -173.5 -263s-299.167 -87.333 -550.5 -90zM225.998 548.999c198.667 0 345.003 19 439.003 57s141 97.667 141 179
c0 50 -16.833 88.167 -50.5 114.5s-80.834 39.5 -141.501 39.5c-90.667 0 -172.334 -36.5 -245.001 -109.5s-120.334 -166.5 -143.001 -280.5zM400.001 1308h508l-17 -95h-508z" />
    <glyph glyph-name="Ebreve" unicode="&#x114;" horiz-adv-x="1004" 
d="M378 1434h696l-25 -119h-563l-114 -535h522l-25 -119h-523l-115 -542h597l-24 -119h-729zM589 1800l-1.99902 -23c0 -43.333 13.5 -76.5 40.5 -99.5s63.167 -34.5 108.5 -34.5c52.667 0 95.667 12.167 129 36.5s59.666 64.5 78.999 120.5h98
c-24 -79.333 -62.5 -139.833 -115.5 -181.5s-117.833 -62.5 -194.5 -62.5c-72.667 0 -130.667 18.833 -174 56.5s-65 89.167 -65 154.5l3 33h93z" />
    <glyph glyph-name="ebreve" unicode="&#x115;" horiz-adv-x="975" 
d="M209 388c0 -96 25.3311 -170.501 75.998 -223.501s120.667 -79.5 210 -79.5c91.333 0 189.333 30.667 294 92l-24 -126c-90 -50.667 -186 -76 -288 -76c-127.333 0 -225.333 37.333 -294 112s-103 179.334 -103 314.001c0 115.333 24.833 223.166 74.5 323.499
s116.834 179.5 201.501 237.5s175.667 87 273 87c92.667 0 166.834 -23.167 222.501 -69.5s83.5 -108.166 83.5 -185.499c0 -118 -57.833 -205.667 -173.5 -263s-299.167 -87.333 -550.5 -90zM225.998 548.999c198.667 0 345.003 19 439.003 57s141 97.667 141 179
c0 50 -16.833 88.167 -50.5 114.5s-80.834 39.5 -141.501 39.5c-90.667 0 -172.334 -36.5 -245.001 -109.5s-120.334 -166.5 -143.001 -280.5zM515.001 1446l-1.99902 -23c0 -43.333 13.5 -76.5 40.5 -99.5s63.167 -34.5 108.5 -34.5c52.667 0 95.667 12.167 129 36.5
s59.666 64.5 78.999 120.5h98c-24 -79.333 -62.5 -139.833 -115.5 -181.5s-117.833 -62.5 -194.5 -62.5c-72.667 0 -130.667 18.833 -174 56.5s-65 89.167 -65 154.5l3 33h93z" />
    <glyph glyph-name="Edotaccent" unicode="&#x116;" horiz-adv-x="1004" 
d="M378 1434h696l-25 -119h-563l-114 -535h522l-25 -119h-523l-115 -542h597l-24 -119h-729zM749 1555c-24.667 0 -45.332 8.66699 -61.999 26s-25 38 -25 62c0 25.333 8.66699 45.666 26 60.999s37.333 23 60 23c23.333 0 43.833 -7.66699 61.5 -23
s26.5 -35.666 26.5 -60.999c0 -24.667 -8.33301 -45.5 -25 -62.5s-37.334 -25.5 -62.001 -25.5z" />
    <glyph glyph-name="edotaccent" unicode="&#x117;" horiz-adv-x="975" 
d="M209 388c0 -96 25.3311 -170.501 75.998 -223.501s120.667 -79.5 210 -79.5c91.333 0 189.333 30.667 294 92l-24 -126c-90 -50.667 -186 -76 -288 -76c-127.333 0 -225.333 37.333 -294 112s-103 179.334 -103 314.001c0 115.333 24.833 223.166 74.5 323.499
s116.834 179.5 201.501 237.5s175.667 87 273 87c92.667 0 166.834 -23.167 222.501 -69.5s83.5 -108.166 83.5 -185.499c0 -118 -57.833 -205.667 -173.5 -263s-299.167 -87.333 -550.5 -90zM225.998 548.999c198.667 0 345.003 19 439.003 57s141 97.667 141 179
c0 50 -16.833 88.167 -50.5 114.5s-80.834 39.5 -141.501 39.5c-90.667 0 -172.334 -36.5 -245.001 -109.5s-120.334 -166.5 -143.001 -280.5zM675.001 1202c-24.667 0 -45.332 8.66699 -61.999 26s-25 38 -25 62c0 25.333 8.66699 45.666 26 60.999s37.333 23 60 23
c23.333 0 43.833 -7.66699 61.5 -23s26.5 -35.666 26.5 -60.999c0 -24.667 -8.33301 -45.5 -25 -62.5s-37.334 -25.5 -62.001 -25.5z" />
    <glyph glyph-name="Eogonek" unicode="&#x118;" horiz-adv-x="1004" 
d="M378 1434h696l-25 -119h-563l-114 -535h522l-25 -119h-523l-115 -542h597l-24 -119h-729zM613 -413c-50 0 -88.8311 13.667 -116.498 41s-41.5 65 -41.5 113c0 84 61 170.333 183 259h94c-63.333 -54 -108.833 -100 -136.5 -138s-41.5 -73.667 -41.5 -107
c0 -56 27.333 -84 82 -84c23.333 0 51.666 7 84.999 21l-7 -85c-32.667 -13.333 -66.334 -20 -101.001 -20z" />
    <glyph glyph-name="eogonek" unicode="&#x119;" horiz-adv-x="975" 
d="M209 388c0 -96 25.3311 -170.501 75.998 -223.501s120.667 -79.5 210 -79.5c91.333 0 189.333 30.667 294 92l-24 -126c-90 -50.667 -186 -76 -288 -76c-127.333 0 -225.333 37.333 -294 112s-103 179.334 -103 314.001c0 115.333 24.833 223.166 74.5 323.499
s116.834 179.5 201.501 237.5s175.667 87 273 87c92.667 0 166.834 -23.167 222.501 -69.5s83.5 -108.166 83.5 -185.499c0 -118 -57.833 -205.667 -173.5 -263s-299.167 -87.333 -550.5 -90zM225.998 548.999c198.667 0 345.003 19 439.003 57s141 97.667 141 179
c0 50 -16.833 88.167 -50.5 114.5s-80.834 39.5 -141.501 39.5c-90.667 0 -172.334 -36.5 -245.001 -109.5s-120.334 -166.5 -143.001 -280.5zM385.001 -413.001c-50 0 -88.8311 13.667 -116.498 41s-41.5 65 -41.5 113c0 84 61 170.333 183 259h94
c-63.333 -54 -108.833 -100 -136.5 -138s-41.5 -73.667 -41.5 -107c0 -56 27.333 -84 82 -84c23.333 0 51.666 7 84.999 21l-7 -85c-32.667 -13.333 -66.334 -20 -101.001 -20z" />
    <glyph glyph-name="Ecaron" unicode="&#x11a;" horiz-adv-x="1004" 
d="M378 1434h696l-25 -119h-563l-114 -535h522l-25 -119h-523l-115 -542h597l-24 -119h-729zM545 1889h94l114 -239l210 239h101l-281 -334h-87z" />
    <glyph glyph-name="ecaron" unicode="&#x11b;" horiz-adv-x="975" 
d="M209 388c0 -96 25.3311 -170.501 75.998 -223.501s120.667 -79.5 210 -79.5c91.333 0 189.333 30.667 294 92l-24 -126c-90 -50.667 -186 -76 -288 -76c-127.333 0 -225.333 37.333 -294 112s-103 179.334 -103 314.001c0 115.333 24.833 223.166 74.5 323.499
s116.834 179.5 201.501 237.5s175.667 87 273 87c92.667 0 166.834 -23.167 222.501 -69.5s83.5 -108.166 83.5 -185.499c0 -118 -57.833 -205.667 -173.5 -263s-299.167 -87.333 -550.5 -90zM225.998 548.999c198.667 0 345.003 19 439.003 57s141 97.667 141 179
c0 50 -16.833 88.167 -50.5 114.5s-80.834 39.5 -141.501 39.5c-90.667 0 -172.334 -36.5 -245.001 -109.5s-120.334 -166.5 -143.001 -280.5zM465.001 1536h94l114 -239l210 239h101l-281 -334h-87z" />
    <glyph glyph-name="Gcircumflex" unicode="&#x11c;" horiz-adv-x="1415" 
d="M1148 608l-347.999 0.000976562l26 117h482l-138 -648c-128.667 -68.667 -266 -103 -412 -103c-122.667 0 -230.5 26 -323.5 78s-164.5 126.833 -214.5 224.5s-75 208.5 -75 332.5c0 166.667 34 314.667 102 444s164.333 229.166 289 299.499
s267.334 105.5 428.001 105.5c143.333 0 281.666 -31.333 414.999 -94l-28 -134c-126.667 73.333 -262.667 110 -408 110c-200 0 -360.333 -66 -481 -198s-181 -305.667 -181 -521c0 -165.333 43.167 -294.5 129.5 -387.5s206.5 -139.5 360.5 -139.5
c99.333 0 192.666 18 279.999 54zM968.001 1891h86l151 -334h-95l-113 239l-209 -239h-102z" />
    <glyph glyph-name="gcircumflex" unicode="&#x11d;" horiz-adv-x="1089" 
d="M-5 -284c97.333 -56.667 190.999 -85.001 280.999 -85.001c113.333 0 203.666 31.833 270.999 95.5s118 169.167 152 316.5l51 230h-4c-58 -101.333 -116.333 -176.333 -175 -225s-125 -73 -199 -73c-92 0 -163.667 32 -215 96s-77 157 -77 279
c0 127.333 26.833 244.833 80.5 352.5s127.834 192.334 222.501 254.001s199 92.5 313 92.5c46 0 101.333 -3.83301 166 -11.5s120 -16.5 166 -26.5l-199 -938c-43.333 -199.333 -110.166 -341.5 -200.499 -426.5s-213.5 -127.5 -369.5 -127.5
c-101.333 0 -197.333 24.667 -288 74zM882.999 917.999c-58.667 14 -125.999 21.001 -201.999 21.001c-86.667 0 -166.167 -24.833 -238.5 -74.5s-129.333 -119.334 -171 -209.001s-62.5 -187.5 -62.5 -293.5c0 -184.667 62.333 -277 187 -277c58 0 116.167 24.5 174.5 73.5
s110.166 116.333 155.499 202s77 170.167 95 253.5zM722 1536h86l151 -334h-95l-113 239l-209 -239h-102z" />
    <glyph glyph-name="Gbreve" unicode="&#x11e;" horiz-adv-x="1415" 
d="M1148 608l-347.999 0.000976562l26 117h482l-138 -648c-128.667 -68.667 -266 -103 -412 -103c-122.667 0 -230.5 26 -323.5 78s-164.5 126.833 -214.5 224.5s-75 208.5 -75 332.5c0 166.667 34 314.667 102 444s164.333 229.166 289 299.499
s267.334 105.5 428.001 105.5c143.333 0 281.666 -31.333 414.999 -94l-28 -134c-126.667 73.333 -262.667 110 -408 110c-200 0 -360.333 -66 -481 -198s-181 -305.667 -181 -521c0 -165.333 43.167 -294.5 129.5 -387.5s206.5 -139.5 360.5 -139.5
c99.333 0 192.666 18 279.999 54zM828.001 1798l-1.99902 -23c0 -43.333 13.5 -76.5 40.5 -99.5s63.167 -34.5 108.5 -34.5c52.667 0 95.667 12.167 129 36.5s59.666 64.5 78.999 120.5h98c-24 -79.333 -62.5 -139.833 -115.5 -181.5s-117.833 -62.5 -194.5 -62.5
c-72.667 0 -130.667 18.833 -174 56.5s-65 89.167 -65 154.5l3 33h93z" />
    <glyph glyph-name="gbreve" unicode="&#x11f;" horiz-adv-x="1089" 
d="M-5 -284c97.333 -56.667 190.999 -85.001 280.999 -85.001c113.333 0 203.666 31.833 270.999 95.5s118 169.167 152 316.5l51 230h-4c-58 -101.333 -116.333 -176.333 -175 -225s-125 -73 -199 -73c-92 0 -163.667 32 -215 96s-77 157 -77 279
c0 127.333 26.833 244.833 80.5 352.5s127.834 192.334 222.501 254.001s199 92.5 313 92.5c46 0 101.333 -3.83301 166 -11.5s120 -16.5 166 -26.5l-199 -938c-43.333 -199.333 -110.166 -341.5 -200.499 -426.5s-213.5 -127.5 -369.5 -127.5
c-101.333 0 -197.333 24.667 -288 74zM882.999 917.999c-58.667 14 -125.999 21.001 -201.999 21.001c-86.667 0 -166.167 -24.833 -238.5 -74.5s-129.333 -119.334 -171 -209.001s-62.5 -187.5 -62.5 -293.5c0 -184.667 62.333 -277 187 -277c58 0 116.167 24.5 174.5 73.5
s110.166 116.333 155.499 202s77 170.167 95 253.5zM580 1446l-1.99902 -23c0 -43.333 13.5 -76.5 40.5 -99.5s63.167 -34.5 108.5 -34.5c52.667 0 95.667 12.167 129 36.5s59.666 64.5 78.999 120.5h98c-24 -79.333 -62.5 -139.833 -115.5 -181.5
s-117.833 -62.5 -194.5 -62.5c-72.667 0 -130.667 18.833 -174 56.5s-65 89.167 -65 154.5l3 33h93z" />
    <glyph glyph-name="Gdotaccent" unicode="&#x120;" horiz-adv-x="1415" 
d="M1148 608l-347.999 0.000976562l26 117h482l-138 -648c-128.667 -68.667 -266 -103 -412 -103c-122.667 0 -230.5 26 -323.5 78s-164.5 126.833 -214.5 224.5s-75 208.5 -75 332.5c0 166.667 34 314.667 102 444s164.333 229.166 289 299.499
s267.334 105.5 428.001 105.5c143.333 0 281.666 -31.333 414.999 -94l-28 -134c-126.667 73.333 -262.667 110 -408 110c-200 0 -360.333 -66 -481 -198s-181 -305.667 -181 -521c0 -165.333 43.167 -294.5 129.5 -387.5s206.5 -139.5 360.5 -139.5
c99.333 0 192.666 18 279.999 54zM998.001 1555c-24.667 0 -45.332 8.66699 -61.999 26s-25 38 -25 62c0 25.333 8.66699 45.666 26 60.999s37.333 23 60 23c23.333 0 43.833 -7.66699 61.5 -23s26.5 -35.666 26.5 -60.999c0 -24.667 -8.33301 -45.5 -25 -62.5
s-37.334 -25.5 -62.001 -25.5z" />
    <glyph glyph-name="gdotaccent" unicode="&#x121;" horiz-adv-x="1089" 
d="M-5 -284c97.333 -56.667 190.999 -85.001 280.999 -85.001c113.333 0 203.666 31.833 270.999 95.5s118 169.167 152 316.5l51 230h-4c-58 -101.333 -116.333 -176.333 -175 -225s-125 -73 -199 -73c-92 0 -163.667 32 -215 96s-77 157 -77 279
c0 127.333 26.833 244.833 80.5 352.5s127.834 192.334 222.501 254.001s199 92.5 313 92.5c46 0 101.333 -3.83301 166 -11.5s120 -16.5 166 -26.5l-199 -938c-43.333 -199.333 -110.166 -341.5 -200.499 -426.5s-213.5 -127.5 -369.5 -127.5
c-101.333 0 -197.333 24.667 -288 74zM882.999 917.999c-58.667 14 -125.999 21.001 -201.999 21.001c-86.667 0 -166.167 -24.833 -238.5 -74.5s-129.333 -119.334 -171 -209.001s-62.5 -187.5 -62.5 -293.5c0 -184.667 62.333 -277 187 -277c58 0 116.167 24.5 174.5 73.5
s110.166 116.333 155.499 202s77 170.167 95 253.5zM733 1202c-24.667 0 -45.332 8.66699 -61.999 26s-25 38 -25 62c0 25.333 8.66699 45.666 26 60.999s37.333 23 60 23c23.333 0 43.833 -7.66699 61.5 -23s26.5 -35.666 26.5 -60.999c0 -24.667 -8.33301 -45.5 -25 -62.5
s-37.334 -25.5 -62.001 -25.5z" />
    <glyph glyph-name="Gcommaaccent" unicode="&#x122;" horiz-adv-x="1415" 
d="M1148 608l-347.999 0.000976562l26 117h482l-138 -648c-128.667 -68.667 -266 -103 -412 -103c-122.667 0 -230.5 26 -323.5 78s-164.5 126.833 -214.5 224.5s-75 208.5 -75 332.5c0 166.667 34 314.667 102 444s164.333 229.166 289 299.499
s267.334 105.5 428.001 105.5c143.333 0 281.666 -31.333 414.999 -94l-28 -134c-126.667 73.333 -262.667 110 -408 110c-200 0 -360.333 -66 -481 -198s-181 -305.667 -181 -521c0 -165.333 43.167 -294.5 129.5 -387.5s206.5 -139.5 360.5 -139.5
c99.333 0 192.666 18 279.999 54zM695.001 -116.999h139l-199 -260h-99z" />
    <glyph glyph-name="gcommaaccent" unicode="&#x123;" horiz-adv-x="1089" 
d="M-5 -284c97.333 -56.667 190.999 -85.001 280.999 -85.001c113.333 0 203.666 31.833 270.999 95.5s118 169.167 152 316.5l51 230h-4c-58 -101.333 -116.333 -176.333 -175 -225s-125 -73 -199 -73c-92 0 -163.667 32 -215 96s-77 157 -77 279
c0 127.333 26.833 244.833 80.5 352.5s127.834 192.334 222.501 254.001s199 92.5 313 92.5c46 0 101.333 -3.83301 166 -11.5s120 -16.5 166 -26.5l-199 -938c-43.333 -199.333 -110.166 -341.5 -200.499 -426.5s-213.5 -127.5 -369.5 -127.5
c-101.333 0 -197.333 24.667 -288 74zM882.999 917.999c-58.667 14 -125.999 21.001 -201.999 21.001c-86.667 0 -166.167 -24.833 -238.5 -74.5s-129.333 -119.334 -171 -209.001s-62.5 -187.5 -62.5 -293.5c0 -184.667 62.333 -277 187 -277c58 0 116.167 24.5 174.5 73.5
s110.166 116.333 155.499 202s77 170.167 95 253.5zM773 1217h-139l199 260h99z" />
    <glyph glyph-name="Hcircumflex" unicode="&#x124;" horiz-adv-x="1415" 
d="M378 1434h133l-137 -644h780l138 644h132l-304 -1434h-132l141 669h-781l-140 -669h-133zM930 1889h86l151 -334h-95l-113 239l-209 -239h-102z" />
    <glyph glyph-name="hcircumflex" unicode="&#x125;" horiz-adv-x="1120" 
d="M377 1516h124.999l-161 -758h4c122 194 258.333 291 409 291c85.333 0 149.333 -24.167 192 -72.5s64 -118.166 64 -209.499c0 -9.33301 -1.33301 -23.333 -4 -42s-6.66699 -44.167 -12 -76.5s-50 -248.5 -134 -648.5h-127l123 594c16.667 77.333 25 130 25 158
c0 124.667 -54 187 -162 187c-54 0 -112.667 -22.5 -176 -67.5s-118.666 -102.833 -165.999 -173.5s-78.333 -141.334 -93 -212.001l-104 -486h-127zM748.999 1965h86l151 -334h-95l-113 239l-209 -239h-102z" />
    <glyph glyph-name="Hbar" unicode="&#x126;" horiz-adv-x="1415" 
d="M294 1037h-140l26 119h140l59 278h133l-59 -278h780l60 278h132l-59 -278h139l-26 -119h-139l-220 -1037h-132l141 669h-780l-141 -669h-133zM1155 790l53 247h-781l-53 -247h781z" />
    <glyph glyph-name="hbar" unicode="&#x127;" horiz-adv-x="1120" 
d="M314 1218h-136.001l23 106h135l41 192h125l-41 -192h363l-23 -106h-362l-98 -460h4c122 194 258.333 291 409 291c85.333 0 149.333 -24.167 192 -72.5s64 -118.166 64 -209.499c0 -9.33301 -1.33301 -23.333 -4 -42s-6.66699 -44.167 -12 -76.5s-50 -248.5 -134 -648.5
h-127l123 594c16.667 77.333 25 130 25 158c0 124.667 -54 187 -162 187c-54 0 -112.667 -22.5 -176 -67.5s-118.666 -102.833 -165.999 -173.5s-78.333 -141.334 -93 -212.001l-104 -486h-127z" />
    <glyph glyph-name="Itilde" unicode="&#x128;" horiz-adv-x="503" 
d="M378 1434h133l-304 -1434h-132zM136 1552c9.33301 70 33.335 124.333 72.002 163s88 58 148 58c28.667 0 53 -6 73 -18s38.5 -25.167 55.5 -39.5s34.167 -27.5 51.5 -39.5s37.666 -18 60.999 -18c30 0 55.667 11.5 77 34.5s35.666 55.167 42.999 96.5h84
c-10.667 -68.667 -34.834 -122.667 -72.501 -162s-85.167 -59 -142.5 -59c-31.333 0 -57.166 5.83301 -77.499 17.5s-39 24.667 -56 39s-33.833 27.333 -50.5 39s-36.334 17.5 -59.001 17.5c-67.333 0 -108.666 -43 -123.999 -129h-83z" />
    <glyph glyph-name="itilde" unicode="&#x129;" horiz-adv-x="475" 
d="M265 1024h126.999l-153 -721c-13.333 -68 -20 -115 -20 -141c0 -47.333 25.667 -71 77 -71c30.667 0 58.334 4.66699 83.001 14l-21 -102c-33.333 -13.333 -69 -20 -107 -20c-52 0 -91.833 13.5 -119.5 40.5s-41.5 66.5 -41.5 118.5c0 41.333 7.66699 96.333 23 165z
M56.999 1202c9.33301 70 33.335 124.333 72.002 163s88 58 148 58c28.667 0 53 -6 73 -18s38.5 -25.167 55.5 -39.5s34.167 -27.5 51.5 -39.5s37.666 -18 60.999 -18c30 0 55.667 11.5 77 34.5s35.666 55.167 42.999 96.5h84c-10.667 -68.667 -34.834 -122.667 -72.501 -162
s-85.167 -59 -142.5 -59c-31.333 0 -57.166 5.83301 -77.499 17.5s-39 24.667 -56 39s-33.833 27.333 -50.5 39s-36.334 17.5 -59.001 17.5c-67.333 0 -108.666 -43 -123.999 -129h-83z" />
    <glyph glyph-name="Imacron" unicode="&#x12a;" horiz-adv-x="503" 
d="M378 1434h133l-304 -1434h-132zM229 1655h508l-17 -95h-508z" />
    <glyph glyph-name="imacron" unicode="&#x12b;" horiz-adv-x="475" 
d="M265 1024h126.999l-153 -721c-13.333 -68 -20 -115 -20 -141c0 -47.333 25.667 -71 77 -71c30.667 0 58.334 4.66699 83.001 14l-21 -102c-33.333 -13.333 -69 -20 -107 -20c-52 0 -91.833 13.5 -119.5 40.5s-41.5 66.5 -41.5 118.5c0 41.333 7.66699 96.333 23 165z
M127.999 1308h508l-17 -95h-508z" />
    <glyph glyph-name="Ibreve" unicode="&#x12c;" horiz-adv-x="503" 
d="M378 1434h133l-304 -1434h-132zM326 1799l-1.99902 -23c0 -43.333 13.5 -76.5 40.5 -99.5s63.167 -34.5 108.5 -34.5c52.667 0 95.667 12.167 129 36.5s59.666 64.5 78.999 120.5h98c-24 -79.333 -62.5 -139.833 -115.5 -181.5s-117.833 -62.5 -194.5 -62.5
c-72.667 0 -130.667 18.833 -174 56.5s-65 89.167 -65 154.5l3 33h93z" />
    <glyph glyph-name="ibreve" unicode="&#x12d;" horiz-adv-x="475" 
d="M265 1024h126.999l-153 -721c-13.333 -68 -20 -115 -20 -141c0 -47.333 25.667 -71 77 -71c30.667 0 58.334 4.66699 83.001 14l-21 -102c-33.333 -13.333 -69 -20 -107 -20c-52 0 -91.833 13.5 -119.5 40.5s-41.5 66.5 -41.5 118.5c0 41.333 7.66699 96.333 23 165z
M213.999 1446l-1.99902 -23c0 -43.333 13.5 -76.5 40.5 -99.5s63.167 -34.5 108.5 -34.5c52.667 0 95.667 12.167 129 36.5s59.666 64.5 78.999 120.5h98c-24 -79.333 -62.5 -139.833 -115.5 -181.5s-117.833 -62.5 -194.5 -62.5c-72.667 0 -130.667 18.833 -174 56.5
s-65 89.167 -65 154.5l3 33h93z" />
    <glyph glyph-name="Iogonek" unicode="&#x12e;" horiz-adv-x="503" 
d="M378 1434h133l-304 -1434h-132zM57 -413c-50 0 -88.8311 13.667 -116.498 41s-41.5 65 -41.5 113c0 84 61 170.333 183 259h94c-63.333 -54 -108.833 -100 -136.5 -138s-41.5 -73.667 -41.5 -107c0 -56 27.333 -84 82 -84c23.333 0 51.666 7 84.999 21l-7 -85
c-32.667 -13.333 -66.334 -20 -101.001 -20z" />
    <glyph glyph-name="iogonek" unicode="&#x12f;" horiz-adv-x="475" 
d="M265 1024h126.999l-153 -721c-13.333 -68 -20 -115 -20 -141c0 -47.333 25.667 -71 77 -71c30.667 0 58.334 4.66699 83.001 14l-21 -102c-33.333 -13.333 -69 -20 -107 -20c-52 0 -91.833 13.5 -119.5 40.5s-41.5 66.5 -41.5 118.5c0 36.667 7.66699 91.667 23 165z
M401.999 1281c-25.333 0 -46.833 9.16699 -64.5 27.5s-26.5 39.833 -26.5 64.5c0 26 9 47.167 27 63.5s39.333 24.5 64 24.5s46 -8.16699 64 -24.5s27 -37.5 27 -63.5s-9.16699 -47.833 -27.5 -65.5s-39.5 -26.5 -63.5 -26.5zM199.999 -413
c-50 0 -88.8311 13.667 -116.498 41s-41.5 65 -41.5 113c0 84 61 170.333 183 259h94c-63.333 -54 -108.833 -100 -136.5 -138s-41.5 -73.667 -41.5 -107c0 -56 27.333 -84 82 -84c23.333 0 51.666 7 84.999 21l-7 -85c-32.667 -13.333 -66.334 -20 -101.001 -20z" />
    <glyph glyph-name="Idotaccent" unicode="&#x130;" horiz-adv-x="503" 
d="M378 1434h133l-304 -1434h-132zM478 1571c-24.667 0 -45.332 8.66699 -61.999 26s-25 38 -25 62c0 25.333 8.66699 45.666 26 60.999s37.333 23 60 23c23.333 0 43.833 -7.66699 61.5 -23s26.5 -35.666 26.5 -60.999c0 -24.667 -8.33301 -45.5 -25 -62.5
s-37.334 -25.5 -62.001 -25.5z" />
    <glyph glyph-name="dotlessi" unicode="&#x131;" horiz-adv-x="475" 
d="M265 1024h126.999l-153 -721c-13.333 -68 -20 -115 -20 -141c0 -47.333 25.667 -71 77 -71c30.667 0 58.334 4.66699 83.001 14l-21 -102c-33.333 -13.333 -69 -20 -107 -20c-52 0 -91.833 13.5 -119.5 40.5s-41.5 66.5 -41.5 118.5c0 41.333 7.66699 96.333 23 165z" />
    <glyph glyph-name="IJ" unicode="&#x132;" horiz-adv-x="1194" 
d="M378 1434h133l-304 -1434h-132zM430 132c12.667 -10.667 33.166 -19.833 61.499 -27.5s51.5 -11.5 69.5 -11.5c86 0 153.333 29.833 202 89.5s87.334 157.5 116.001 293.5l204 958h132l-203 -952c-39.333 -182 -94.5 -312 -165.5 -390s-168.5 -117 -292.5 -117
c-19.333 0 -45.833 3.5 -79.5 10.5s-56.5 13.833 -68.5 20.5z" />
    <glyph glyph-name="ij" unicode="&#x133;" horiz-adv-x="925" 
d="M270 1024h126.999l-153 -721c-13.333 -68 -20 -115 -20 -141c0 -47.333 25.667 -71 77 -71c30.667 0 58.334 4.66699 83.001 14l-21 -102c-33.333 -13.333 -69 -20 -107 -20c-52 0 -91.833 13.5 -119.5 40.5s-41.5 66.5 -41.5 118.5c0 36.667 7.66699 91.667 23 165z
M406.999 1281c-25.333 0 -46.833 9.16699 -64.5 27.5s-26.5 39.833 -26.5 64.5c0 26 9 47.167 27 63.5s39.333 24.5 64 24.5s46 -8.16699 64 -24.5s27 -37.5 27 -63.5s-9.16699 -47.833 -27.5 -65.5s-39.5 -26.5 -63.5 -26.5zM92.999 -324c44 -32 89.6699 -48 137.003 -48
c77.333 0 139.166 30.167 185.499 90.5s83.833 158.833 112.5 295.5l215 1010h126l-208 -979c-40.667 -190 -95.334 -325.167 -164.001 -405.5s-162.334 -120.5 -281.001 -120.5c-26.667 0 -54.5 3.83301 -83.5 11.5s-50.167 15.5 -63.5 23.5zM787.002 1373
c0 26 9.16504 47.167 27.498 63.5s39.833 24.5 64.5 24.5s45.834 -8.16699 63.501 -24.5s26.5 -37.5 26.5 -63.5c0 -25.333 -8.66699 -47 -26 -65s-38.666 -27 -63.999 -27c-13.333 0 -25.333 4.66699 -36 14c-16 5.33301 -29.333 14.833 -40 28.5s-16 30.167 -16 49.5z" />
    <glyph glyph-name="Jcircumflex" unicode="&#x134;" horiz-adv-x="680" 
d="M-78 132c12.667 -10.667 33.166 -19.833 61.499 -27.5s51.5 -11.5 69.5 -11.5c86 0 153.333 29.833 202 89.5s87.334 157.5 116.001 293.5l204 958h132l-203 -952c-39.333 -182 -94.5 -312 -165.5 -390s-168.5 -117 -292.5 -117c-19.333 0 -45.833 3.5 -79.5 10.5
s-56.5 13.833 -68.5 20.5zM649.999 1889h86l151 -334h-95l-113 239l-209 -239h-102z" />
    <glyph glyph-name="jcircumflex" unicode="&#x135;" horiz-adv-x="457" 
d="M-378 -324c44 -32 89.668 -48 137.001 -48c77.333 0 139.166 30.167 185.499 90.5s83.833 158.833 112.5 295.5l215 1010h126l-208 -979c-40 -187.333 -95.167 -321.833 -165.5 -403.5s-163.5 -122.5 -279.5 -122.5c-26.667 0 -54.5 3.83301 -83.5 11.5
s-50.167 15.5 -63.5 23.5zM374.001 1536h86l151 -334h-95l-113 239l-209 -239h-102z" />
    <glyph glyph-name="Kcommaaccent" unicode="&#x136;" horiz-adv-x="1148" 
d="M378 1434h133l-143 -675h4l21 22l714 653h177l-788 -706l508 -728h-163l-452 666l-27 50h-4l-151 -716h-132zM467 -120h139l-174 -260h-99z" />
    <glyph glyph-name="kcommaaccent" unicode="&#x137;" horiz-adv-x="943" 
d="M377 1516h125l-203 -952h4l542 460h169l-587 -489l384 -535h-150l-365 529h-4l-112 -529h-127zM366 -120h139l-174 -260h-99z" />
    <glyph glyph-name="kgreenlandic" unicode="&#x138;" horiz-adv-x="943" 
d="M272 1024h125l-99 -468h4l543 468h169l-588 -496l385 -528h-150l-366 521h-4l-111 -521h-127z" />
    <glyph glyph-name="Lacute" unicode="&#x139;" horiz-adv-x="905" 
d="M378 1434h133l-278 -1314h573l-25 -120h-706zM944 1883h134l-314 -328h-109z" />
    <glyph glyph-name="lacute" unicode="&#x13a;" horiz-adv-x="475" 
d="M370 1516h126.999l-258 -1213c-13.333 -68 -20 -115 -20 -141c0 -47.333 25.667 -71 77 -71c30.667 0 58.334 4.66699 83.001 14l-21 -102c-33.333 -13.333 -69 -20 -107 -20c-52 0 -91.833 13.5 -119.5 40.5s-41.5 66.5 -41.5 118.5c0 41.333 7.66699 96.333 23 165z
M623.999 1963h134l-314 -328h-109z" />
    <glyph glyph-name="Lcommaaccent" unicode="&#x13b;" horiz-adv-x="905" 
d="M378 1434h133l-278 -1314h573l-25 -120h-706zM267 -346c28.667 -6 56.332 -9.00098 82.999 -9.00098c112 0 168 30.667 168 92c0 54.667 -41.667 82 -125 82l-59 -4l39 185h83l-24 -111c57.333 0 103 -12 137 -36s51 -59 51 -105
c0 -57.333 -23.167 -102.166 -69.5 -134.499s-115.166 -48.5 -206.499 -48.5c-26.667 0 -57.667 2.66699 -93 8z" />
    <glyph glyph-name="lcommaaccent" unicode="&#x13c;" horiz-adv-x="475" 
d="M370 1516h126.999l-258 -1213c-13.333 -68 -20 -115 -20 -141c0 -47.333 25.667 -71 77 -71c30.667 0 58.334 4.66699 83.001 14l-21 -102c-33.333 -13.333 -69 -20 -107 -20c-52 0 -91.833 13.5 -119.5 40.5s-41.5 66.5 -41.5 118.5c0 41.333 7.66699 96.333 23 165z
M70.999 -346c28.667 -6 56.332 -9.00098 82.999 -9.00098c112 0 168 30.667 168 92c0 54.667 -41.667 82 -125 82l-59 -4l39 185h83l-24 -111c57.333 0 103 -12 137 -36s51 -59 51 -105c0 -57.333 -23.167 -102.166 -69.5 -134.499s-115.166 -48.5 -206.499 -48.5
c-26.667 0 -57.667 2.66699 -93 8z" />
    <glyph glyph-name="Lcaron" unicode="&#x13d;" horiz-adv-x="905" 
d="M378 1434h133l-278 -1314h573l-25 -120h-706zM876 1435h139l-199 -260h-99z" />
    <glyph glyph-name="lcaron" unicode="&#x13e;" horiz-adv-x="603" 
d="M370 1516h126.999l-258 -1213c-13.333 -68 -20 -115 -20 -141c0 -47.333 25.667 -71 77 -71c30.667 0 58.334 4.66699 83.001 14l-21 -102c-33.333 -13.333 -69 -20 -107 -20c-52 0 -91.833 13.5 -119.5 40.5s-41.5 66.5 -41.5 118.5c0 41.333 7.66699 96.333 23 165z
M736.999 1516h139l-199 -260h-99z" />
    <glyph glyph-name="Ldot" unicode="&#x13f;" horiz-adv-x="905" 
d="M378 1434h133l-278 -1314h573l-25 -120h-706zM748 641c-24.667 0 -45.332 8.66699 -61.999 26s-25 38 -25 62c0 25.333 8.66699 45.666 26 60.999s37.333 23 60 23c23.333 0 43.833 -7.66699 61.5 -23s26.5 -35.666 26.5 -60.999c0 -24.667 -8.33301 -45.5 -25 -62.5
s-37.334 -25.5 -62.001 -25.5z" />
    <glyph glyph-name="ldot" unicode="&#x140;" horiz-adv-x="587" 
d="M370 1516h126.999l-258 -1213c-13.333 -68 -20 -115 -20 -141c0 -47.333 25.667 -71 77 -71c30.667 0 58.334 4.66699 83.001 14l-21 -102c-33.333 -13.333 -69 -20 -107 -20c-52 0 -91.833 13.5 -119.5 40.5s-41.5 66.5 -41.5 118.5c0 41.333 7.66699 96.333 23 165z
M554.999 641c-24.667 0 -45.332 8.66699 -61.999 26s-25 38 -25 62c0 25.333 8.66699 45.666 26 60.999s37.333 23 60 23c23.333 0 43.833 -7.66699 61.5 -23s26.5 -35.666 26.5 -60.999c0 -24.667 -8.33301 -45.5 -25 -62.5s-37.334 -25.5 -62.001 -25.5z" />
    <glyph glyph-name="Lslash" unicode="&#x141;" horiz-adv-x="905" 
d="M197 577l-144 -73l26 131l146 75l153 724h133l-137 -649l331 179l-26 -130l-334 -182l-112 -532h573l-25 -120h-706z" />
    <glyph glyph-name="lslash" unicode="&#x142;" horiz-adv-x="475" 
d="M185 633l-180.001 -110l27 130l180 108l160 755h127l-143 -670l185 112l-28 -129l-184 -111l-87 -415c-14 -64 -21 -111 -21 -141c0 -47.333 25.667 -71 77 -71c30.667 0 58.667 4.66699 84 14l-22 -102c-33.333 -13.333 -69 -20 -107 -20
c-52 0 -91.833 13.5 -119.5 40.5s-41.5 66.5 -41.5 118.5c0 24 2.83301 53 8.5 87s33.834 168.667 84.501 404z" />
    <glyph glyph-name="Nacute" unicode="&#x143;" horiz-adv-x="1492" 
d="M378 1434l128.999 -0.000976562l564 -1138c16 -30.667 29.333 -62 40 -94h4l19 123l236 1109h131l-305 -1434h-116l-578 1154c-13.333 26.667 -24.666 56.334 -33.999 89.001h-5l-13 -84l-247 -1159h-128zM1094 1883h134l-314 -328h-109z" />
    <glyph glyph-name="nacute" unicode="&#x144;" horiz-adv-x="1126" 
d="M263 1024l122.998 -0.000976562c-9.33301 -71.333 -23.666 -160.666 -42.999 -267.999h4c58 94 122.333 166.333 193 217s143.334 76 218.001 76c171.333 0 257 -92.667 257 -278c0 -36.667 -10.667 -104.667 -32 -204l-120 -567h-126l123 594c16 81.333 24 134 24 158
c0 124.667 -53.667 187 -161 187c-53.333 0 -111.666 -22.5 -174.999 -67.5s-118.833 -102.667 -166.5 -173s-78.834 -140.5 -93.501 -210.5l-104 -488h-127l158 735c18.667 92.667 34.667 189 48 289zM913.998 1530h134l-314 -328h-109z" />
    <glyph glyph-name="Ncommaaccent" unicode="&#x145;" horiz-adv-x="1492" 
d="M378 1434l128.999 -0.000976562l564 -1138c16 -30.667 29.333 -62 40 -94h4l19 123l236 1109h131l-305 -1434h-116l-578 1154c-13.333 26.667 -24.666 56.334 -33.999 89.001h-5l-13 -84l-247 -1159h-128zM606.999 -120.001h139l-174 -260h-99z" />
    <glyph glyph-name="ncommaaccent" unicode="&#x146;" horiz-adv-x="1126" 
d="M263 1024l122.998 -0.000976562c-9.33301 -71.333 -23.666 -160.666 -42.999 -267.999h4c58 94 122.333 166.333 193 217s143.334 76 218.001 76c171.333 0 257 -92.667 257 -278c0 -36.667 -10.667 -104.667 -32 -204l-120 -567h-126l123 594c16 81.333 24 134 24 158
c0 124.667 -53.667 187 -161 187c-53.333 0 -111.666 -22.5 -174.999 -67.5s-118.833 -102.667 -166.5 -173s-78.834 -140.5 -93.501 -210.5l-104 -488h-127l158 735c18.667 92.667 34.667 189 48 289zM417.998 -120.001h139l-174 -260h-99z" />
    <glyph glyph-name="Ncaron" unicode="&#x147;" horiz-adv-x="1492" 
d="M378 1434l128.999 -0.000976562l564 -1138c16 -30.667 29.333 -62 40 -94h4l19 123l236 1109h131l-305 -1434h-116l-578 1154c-13.333 26.667 -24.666 56.334 -33.999 89.001h-5l-13 -84l-247 -1159h-128zM749.999 1889h94l114 -239l210 239h101l-281 -334h-87z" />
    <glyph glyph-name="ncaron" unicode="&#x148;" horiz-adv-x="1126" 
d="M263 1024l122.998 -0.000976562c-9.33301 -71.333 -23.666 -160.666 -42.999 -267.999h4c58 94 122.333 166.333 193 217s143.334 76 218.001 76c171.333 0 257 -92.667 257 -278c0 -36.667 -10.667 -104.667 -32 -204l-120 -567h-126l123 594c16 81.333 24 134 24 158
c0 124.667 -53.667 187 -161 187c-53.333 0 -111.666 -22.5 -174.999 -67.5s-118.833 -102.667 -166.5 -173s-78.834 -140.5 -93.501 -210.5l-104 -488h-127l158 735c18.667 92.667 34.667 189 48 289zM499.998 1536h94l114 -239l210 239h101l-281 -334h-87z" />
    <glyph glyph-name="napostrophe" unicode="&#x149;" horiz-adv-x="1209" 
d="M347 1024l122.998 -0.000976562c-9.33301 -71.333 -23.666 -160.666 -42.999 -267.999h4c58 94 122.333 166.333 193 217s143.334 76 218.001 76c171.333 0 257 -92.667 257 -278c0 -36.667 -10.667 -104.667 -32 -204l-120 -567h-126l123 594c16 81.333 24 134 24 158
c0 124.667 -53.667 187 -161 187c-53.333 0 -111.666 -22.5 -174.999 -67.5s-118.833 -102.667 -166.5 -173s-78.834 -140.5 -93.501 -210.5l-104 -488h-127l158 735c18.667 92.667 34.667 189 48 289zM236.998 1434h123l-179 -448h-93z" />
    <glyph glyph-name="Eng" unicode="&#x14a;" horiz-adv-x="1492" 
d="M378 1434l128.998 0.000976562l560 -1157c18.667 -37.333 32.334 -68.333 41.001 -93h4l16 100l19 101l223 1049h131l-305 -1434c-32 -150.667 -80 -258.834 -144 -324.501s-149.667 -98.5 -257 -98.5c-59.333 0 -108.666 8 -147.999 24l25 119
c42 -19.333 83.667 -29 125 -29c71.333 0 127.5 21.667 168.5 65s74.833 125 101.5 245l-557 1146c-14 25.333 -27.667 58 -41 98h-5l-13 -84l-248 -1161h-128z" />
    <glyph glyph-name="eng" unicode="&#x14b;" horiz-adv-x="1126" 
d="M338 -270c15.333 -11.333 36.665 -21.334 63.998 -30.001s50 -13 68 -13c70 0 127.167 28.667 171.5 86s78.833 145 103.5 263l115 558c16 81.333 24 134 24 158c0 124.667 -53.667 187 -161 187c-53.333 0 -111.666 -22.5 -174.999 -67.5s-118.833 -102.667 -166.5 -173
s-78.834 -140.5 -93.501 -210.5l-104 -488h-127l158 735c18.667 92.667 34.667 189 48 289h123c-9.33301 -71.333 -23.666 -160.666 -42.999 -267.999h4c58 94 122.333 166.333 193 217s143.334 76 218.001 76c171.333 0 257 -92.667 257 -278
c0 -36.667 -10.667 -104.667 -32 -204l-99 -466c-41.333 -191.333 -94.5 -326.333 -159.5 -405s-152.833 -118 -263.5 -118c-54 0 -103 11 -147 33z" />
    <glyph glyph-name="Omacron" unicode="&#x14c;" horiz-adv-x="1544" 
d="M722 -25c-176.667 0 -317.002 56.501 -421.002 169.501s-156 261.5 -156 445.5c0 163.333 33.833 311.166 101.5 443.499s160.167 236.166 277.5 311.499s248.333 113 393 113c172.667 0 311 -56.167 415 -168.5s156 -259.166 156 -440.499
c0 -160.667 -32.667 -308.5 -98 -443.5s-156.166 -240.5 -272.499 -316.5s-248.166 -114 -395.499 -114zM727.998 94.001c120 0 226.832 31.334 320.499 94.001s167.5 153.667 221.5 273s81 246.666 81 381.999c0 153.333 -40 274.5 -120 363.5s-187.333 133.5 -322 133.5
c-118 0 -225.5 -32.5 -322.5 -97.5s-172.167 -155.5 -225.5 -271.5s-80 -243 -80 -381c0 -154 39.833 -275.167 119.5 -363.5s188.834 -132.5 327.501 -132.5zM704.997 1655h508l-17 -95h-508z" />
    <glyph glyph-name="omacron" unicode="&#x14d;" horiz-adv-x="1077" 
d="M449 -25c-114 0 -204 35.167 -270 105.5s-99 168.5 -99 294.5c0 124 23.5 237.833 70.5 341.5s113 185 198 244s178.5 88.5 280.5 88.5c113.333 0 203 -35.5 269 -106.5s99 -168.5 99 -292.5c0 -126 -23.5 -240.833 -70.5 -344.5s-112.333 -184.667 -196 -243
s-177.5 -87.5 -281.5 -87.5zM458 85c75.333 0 144.665 24.6689 207.998 74.002s112.833 116.666 148.5 201.999s53.5 178.666 53.5 279.999c0 96.667 -22.167 170.5 -66.5 221.5s-105.166 76.5 -182.499 76.5c-114 0 -210.833 -53.5 -290.5 -160.5
s-119.5 -238.833 -119.5 -395.5c0 -93.333 22.333 -166.333 67 -219s105.334 -79 182.001 -79zM409.999 1308h508l-17 -95h-508z" />
    <glyph glyph-name="Obreve" unicode="&#x14e;" horiz-adv-x="1544" 
d="M722 -25c-176.667 0 -317.002 56.501 -421.002 169.501s-156 261.5 -156 445.5c0 163.333 33.833 311.166 101.5 443.499s160.167 236.166 277.5 311.499s248.333 113 393 113c172.667 0 311 -56.167 415 -168.5s156 -259.166 156 -440.499
c0 -160.667 -32.667 -308.5 -98 -443.5s-156.166 -240.5 -272.499 -316.5s-248.166 -114 -395.499 -114zM727.998 94.001c120 0 226.832 31.334 320.499 94.001s167.5 153.667 221.5 273s81 246.666 81 381.999c0 153.333 -40 274.5 -120 363.5s-187.333 133.5 -322 133.5
c-118 0 -225.5 -32.5 -322.5 -97.5s-172.167 -155.5 -225.5 -271.5s-80 -243 -80 -381c0 -154 39.833 -275.167 119.5 -363.5s188.834 -132.5 327.501 -132.5zM796.997 1800l-1.99902 -23c0 -43.333 13.5 -76.5 40.5 -99.5s63.167 -34.5 108.5 -34.5
c52.667 0 95.667 12.167 129 36.5s59.666 64.5 78.999 120.5h98c-24 -79.333 -62.5 -139.833 -115.5 -181.5s-117.833 -62.5 -194.5 -62.5c-72.667 0 -130.667 18.833 -174 56.5s-65 89.167 -65 154.5l3 33h93z" />
    <glyph glyph-name="obreve" unicode="&#x14f;" horiz-adv-x="1077" 
d="M449 -25c-114 0 -204 35.167 -270 105.5s-99 168.5 -99 294.5c0 124 23.5 237.833 70.5 341.5s113 185 198 244s178.5 88.5 280.5 88.5c113.333 0 203 -35.5 269 -106.5s99 -168.5 99 -292.5c0 -126 -23.5 -240.833 -70.5 -344.5s-112.333 -184.667 -196 -243
s-177.5 -87.5 -281.5 -87.5zM458 85c75.333 0 144.665 24.6689 207.998 74.002s112.833 116.666 148.5 201.999s53.5 178.666 53.5 279.999c0 96.667 -22.167 170.5 -66.5 221.5s-105.166 76.5 -182.499 76.5c-114 0 -210.833 -53.5 -290.5 -160.5
s-119.5 -238.833 -119.5 -395.5c0 -93.333 22.333 -166.333 67 -219s105.334 -79 182.001 -79zM515.999 1446l-1.99902 -23c0 -43.333 13.5 -76.5 40.5 -99.5s63.167 -34.5 108.5 -34.5c52.667 0 95.667 12.167 129 36.5s59.666 64.5 78.999 120.5h98
c-24 -79.333 -62.5 -139.833 -115.5 -181.5s-117.833 -62.5 -194.5 -62.5c-72.667 0 -130.667 18.833 -174 56.5s-65 89.167 -65 154.5l3 33h93z" />
    <glyph glyph-name="Ohungarumlaut" unicode="&#x150;" horiz-adv-x="1544" 
d="M722 -25c-176.667 0 -317.002 56.501 -421.002 169.501s-156 261.5 -156 445.5c0 163.333 33.833 311.166 101.5 443.499s160.167 236.166 277.5 311.499s248.333 113 393 113c172.667 0 311 -56.167 415 -168.5s156 -259.166 156 -440.499
c0 -160.667 -32.667 -308.5 -98 -443.5s-156.166 -240.5 -272.499 -316.5s-248.166 -114 -395.499 -114zM727.998 94.001c120 0 226.832 31.334 320.499 94.001s167.5 153.667 221.5 273s81 246.666 81 381.999c0 153.333 -40 274.5 -120 363.5s-187.333 133.5 -322 133.5
c-118 0 -225.5 -32.5 -322.5 -97.5s-172.167 -155.5 -225.5 -271.5s-80 -243 -80 -381c0 -154 39.833 -275.167 119.5 -363.5s188.834 -132.5 327.501 -132.5zM1171 1877h125l-266 -321h-86zM934.997 1877h122l-264 -321h-87z" />
    <glyph glyph-name="ohungarumlaut" unicode="&#x151;" horiz-adv-x="1077" 
d="M449 -25c-114 0 -204 35.167 -270 105.5s-99 168.5 -99 294.5c0 124 23.5 237.833 70.5 341.5s113 185 198 244s178.5 88.5 280.5 88.5c113.333 0 203 -35.5 269 -106.5s99 -168.5 99 -292.5c0 -126 -23.5 -240.833 -70.5 -344.5s-112.333 -184.667 -196 -243
s-177.5 -87.5 -281.5 -87.5zM458 85c75.333 0 144.665 24.6689 207.998 74.002s112.833 116.666 148.5 201.999s53.5 178.666 53.5 279.999c0 96.667 -22.167 170.5 -66.5 221.5s-105.166 76.5 -182.499 76.5c-114 0 -210.833 -53.5 -290.5 -160.5
s-119.5 -238.833 -119.5 -395.5c0 -93.333 22.333 -166.333 67 -219s105.334 -79 182.001 -79zM925.999 1523h125l-266 -321h-86zM689.999 1523h122l-264 -321h-87z" />
    <glyph glyph-name="OE" unicode="&#x152;" horiz-adv-x="1900" 
d="M1724 119l-23.999 -119h-654l-69 -4c-131.333 -14 -217 -21 -257 -21c-176.667 0 -317 56 -421 168s-156 261 -156 447c0 165.333 33.667 313.833 101 445.5s160.5 235 279.5 310s254.167 112.5 405.5 112.5c53.333 0 129.666 -4 228.999 -12
c90.667 -8 148.667 -12 174 -12h638l-25 -119h-562l-115 -535h523l-25 -119h-523l-115 -542h596zM1248 1308c-102.667 21.333 -211.001 32 -325.001 32c-126 0 -237.333 -32.167 -334 -96.5s-172.167 -154.5 -226.5 -270.5s-81.5 -243.667 -81.5 -383
c0 -152.667 39.5 -273.5 118.5 -362.5s189.167 -133.5 330.5 -133.5c100.667 0 190.334 12.333 269.001 37z" />
    <glyph glyph-name="oe" unicode="&#x153;" horiz-adv-x="1739" 
d="M875 244c-48 -85.333 -108.499 -151.5 -181.499 -198.5s-154.5 -70.5 -244.5 -70.5c-114 0 -204 35.167 -270 105.5s-99 168.5 -99 294.5c0 124 23.5 237.833 70.5 341.5s113 185 198 244s178.5 88.5 280.5 88.5c85.333 0 157.166 -23.333 215.499 -70
s96.5 -112 114.5 -196h5c50 85.333 111.833 151 185.5 197s154.5 69 242.5 69c92.667 0 167.167 -23.167 223.5 -69.5s84.5 -109.5 84.5 -189.5c0 -116 -57.5 -202.167 -172.5 -258.5s-299.5 -86.5 -553.5 -90.5l-2 -55c0 -94 25.167 -167.667 75.5 -221
s120.5 -80 210.5 -80c92 0 190.333 30.667 295 92l-24 -126c-90 -50.667 -186.333 -76 -289 -76c-97.333 0 -176.5 22.833 -237.5 68.5s-102.167 112.5 -123.5 200.5h-4zM990.001 549c198.667 0 345 18.999 439 56.999s141 97 141 177c0 52 -17 91 -51 117s-81 39 -141 39
c-92 0 -173.667 -35.667 -245 -107s-119 -165.666 -143 -282.999zM458.001 84.999c75.333 0 144.499 24.6689 207.499 74.002s112 116.666 147 201.999s52.5 178.666 52.5 279.999c0 96.667 -21.5 170.5 -64.5 221.5s-103.5 76.5 -181.5 76.5
c-114 0 -210.833 -53.5 -290.5 -160.5s-119.5 -238.833 -119.5 -395.5c0 -93.333 22.333 -166.333 67 -219s105.334 -79 182.001 -79z" />
    <glyph glyph-name="Racute" unicode="&#x154;" horiz-adv-x="1162" 
d="M378 1434l379.001 0.000976562c121.333 0 215.166 -30.833 281.499 -92.5s99.5 -148.167 99.5 -259.5c0 -118.667 -40 -216.834 -120 -294.501s-185 -121.167 -315 -130.5v-4c65.333 -24.667 111 -89.667 137 -195l117 -458h-141l-106 430
c-16.667 66.667 -42.667 116 -78 148s-85 48 -149 48h-143l-133 -626h-132zM600.001 744.001c125.333 0 223.666 29.333 294.999 88s107 138.667 107 240c0 74 -22.667 133 -68 177s-111.666 66 -198.999 66h-249l-121 -571h235zM928.001 1883h134l-314 -328h-109z" />
    <glyph glyph-name="racute" unicode="&#x155;" horiz-adv-x="704" 
d="M256 1024h125.001l-34 -234h4c45.333 86.667 92.833 151.5 142.5 194.5s106.834 64.5 171.501 64.5c38 0 73.667 -7 107 -21l-23 -135h-4c-36 23.333 -73 35 -111 35c-72.667 0 -142.834 -45.167 -210.501 -135.5s-116.5 -204.5 -146.5 -342.5l-96 -450h-126l143 672
c31.333 140.667 50.666 258 57.999 352zM747.001 1530h134l-314 -328h-109z" />
    <glyph glyph-name="Rcommaaccent" unicode="&#x156;" horiz-adv-x="1162" 
d="M378 1434l379.001 0.000976562c121.333 0 215.166 -30.833 281.499 -92.5s99.5 -148.167 99.5 -259.5c0 -118.667 -40 -216.834 -120 -294.501s-185 -121.167 -315 -130.5v-4c65.333 -24.667 111 -89.667 137 -195l117 -458h-141l-106 430
c-16.667 66.667 -42.667 116 -78 148s-85 48 -149 48h-143l-133 -626h-132zM600.001 744.001c125.333 0 223.666 29.333 294.999 88s107 138.667 107 240c0 74 -22.667 133 -68 177s-111.666 66 -198.999 66h-249l-121 -571h235zM464.001 -119.999h139l-174 -260h-99z" />
    <glyph glyph-name="rcommaaccent" unicode="&#x157;" horiz-adv-x="704" 
d="M256 1024h125.001l-34 -234h4c45.333 86.667 92.833 151.5 142.5 194.5s106.834 64.5 171.501 64.5c38 0 73.667 -7 107 -21l-23 -135h-4c-36 23.333 -73 35 -111 35c-72.667 0 -142.834 -45.167 -210.501 -135.5s-116.5 -204.5 -146.5 -342.5l-96 -450h-126l143 672
c31.333 140.667 50.666 258 57.999 352zM246.001 -120h139l-174 -260h-99z" />
    <glyph glyph-name="Rcaron" unicode="&#x158;" horiz-adv-x="1162" 
d="M378 1434l379.001 0.000976562c121.333 0 215.166 -30.833 281.499 -92.5s99.5 -148.167 99.5 -259.5c0 -118.667 -40 -216.834 -120 -294.501s-185 -121.167 -315 -130.5v-4c65.333 -24.667 111 -89.667 137 -195l117 -458h-141l-106 430
c-16.667 66.667 -42.667 116 -78 148s-85 48 -149 48h-143l-133 -626h-132zM600.001 744.001c125.333 0 223.666 29.333 294.999 88s107 138.667 107 240c0 74 -22.667 133 -68 177s-111.666 66 -198.999 66h-249l-121 -571h235zM525.001 1889h94l114 -239l210 239h101
l-281 -334h-87z" />
    <glyph glyph-name="rcaron" unicode="&#x159;" horiz-adv-x="704" 
d="M256 1024h125.001l-34 -234h4c45.333 86.667 92.833 151.5 142.5 194.5s106.834 64.5 171.501 64.5c38 0 73.667 -7 107 -21l-23 -135h-4c-36 23.333 -73 35 -111 35c-72.667 0 -142.834 -45.167 -210.501 -135.5s-116.5 -204.5 -146.5 -342.5l-96 -450h-126l143 672
c31.333 140.667 50.666 258 57.999 352zM320.001 1536h94l114 -239l210 239h101l-281 -334h-87z" />
    <glyph glyph-name="Sacute" unicode="&#x15a;" horiz-adv-x="1018" 
d="M64 199c42.667 -29.333 95.335 -54.167 158.002 -74.5s125 -30.5 187 -30.5c101.333 0 179.666 22.833 234.999 68.5s83 109.167 83 190.5c0 56.667 -16.167 107.5 -48.5 152.5s-93.5 100.167 -183.5 165.5c-90.667 65.333 -154.834 128.5 -192.501 189.5
s-56.5 128.5 -56.5 202.5c0 116 43.167 210.833 129.5 284.5s197.833 110.5 334.5 110.5c103.333 0 205 -19.667 305 -59l-26 -135c-79.333 50.667 -176 76 -290 76c-94.667 0 -170.834 -24.333 -228.501 -73s-86.5 -112 -86.5 -190c0 -62 15.333 -115.333 46 -160
s88.334 -98 173.001 -160c99.333 -72 167.666 -136.667 204.999 -194s56 -121.666 56 -192.999c0 -77.333 -18.5 -146 -55.5 -206s-90.333 -106.5 -160 -139.5s-152.167 -49.5 -247.5 -49.5c-61.333 0 -123.666 7.66699 -186.999 23s-121 36.666 -173 63.999zM888.001 1882
h134l-314 -328h-109z" />
    <glyph glyph-name="sacute" unicode="&#x15b;" horiz-adv-x="801" 
d="M48 166c31.333 -23.333 70.5 -42.6631 117.5 -57.9961s91.833 -23 134.5 -23c73.333 0 129.166 14.833 167.499 44.5s57.5 73.167 57.5 130.5c0 39.333 -12 73.166 -36 101.499s-67.667 61.833 -131 100.5c-71.333 42.667 -123.166 85.667 -155.499 129
s-48.5 94 -48.5 152c0 88 32.333 161 97 219s148.667 87 252 87c38 0 79.333 -4.33301 124 -13s84 -21.334 118 -38.001l-26 -123c-66 42.667 -140 64 -222 64c-64.667 0 -116.5 -16.833 -155.5 -50.5s-58.5 -77.5 -58.5 -131.5c0 -39.333 10.667 -73.333 32 -102
s64 -62 128 -100c77.333 -47.333 131.833 -92.5 163.5 -135.5s47.5 -92.167 47.5 -147.5c0 -90.667 -33 -162.834 -99 -216.501s-156 -80.5 -270 -80.5c-46 0 -93.167 6.16699 -141.5 18.5s-88.833 28.166 -121.5 47.499zM741 1530h134l-314 -328h-109z" />
    <glyph glyph-name="Scircumflex" unicode="&#x15c;" horiz-adv-x="1018" 
d="M64 199c42.667 -29.333 95.335 -54.167 158.002 -74.5s125 -30.5 187 -30.5c101.333 0 179.666 22.833 234.999 68.5s83 109.167 83 190.5c0 56.667 -16.167 107.5 -48.5 152.5s-93.5 100.167 -183.5 165.5c-90.667 65.333 -154.834 128.5 -192.501 189.5
s-56.5 128.5 -56.5 202.5c0 116 43.167 210.833 129.5 284.5s197.833 110.5 334.5 110.5c103.333 0 205 -19.667 305 -59l-26 -135c-79.333 50.667 -176 76 -290 76c-94.667 0 -170.834 -24.333 -228.501 -73s-86.5 -112 -86.5 -190c0 -62 15.333 -115.333 46 -160
s88.334 -98 173.001 -160c99.333 -72 167.666 -136.667 204.999 -194s56 -121.666 56 -192.999c0 -77.333 -18.5 -146 -55.5 -206s-90.333 -106.5 -160 -139.5s-152.167 -49.5 -247.5 -49.5c-61.333 0 -123.666 7.66699 -186.999 23s-121 36.666 -173 63.999zM743.001 1889
h86l151 -334h-95l-113 239l-209 -239h-102z" />
    <glyph glyph-name="scircumflex" unicode="&#x15d;" horiz-adv-x="801" 
d="M48 166c31.333 -23.333 70.5 -42.6631 117.5 -57.9961s91.833 -23 134.5 -23c73.333 0 129.166 14.833 167.499 44.5s57.5 73.167 57.5 130.5c0 39.333 -12 73.166 -36 101.499s-67.667 61.833 -131 100.5c-71.333 42.667 -123.166 85.667 -155.499 129
s-48.5 94 -48.5 152c0 88 32.333 161 97 219s148.667 87 252 87c38 0 79.333 -4.33301 124 -13s84 -21.334 118 -38.001l-26 -123c-66 42.667 -140 64 -222 64c-64.667 0 -116.5 -16.833 -155.5 -50.5s-58.5 -77.5 -58.5 -131.5c0 -39.333 10.667 -73.333 32 -102
s64 -62 128 -100c77.333 -47.333 131.833 -92.5 163.5 -135.5s47.5 -92.167 47.5 -147.5c0 -90.667 -33 -162.834 -99 -216.501s-156 -80.5 -270 -80.5c-46 0 -93.167 6.16699 -141.5 18.5s-88.833 28.166 -121.5 47.499zM553 1536h86l151 -334h-95l-113 239l-209 -239h-102
z" />
    <glyph glyph-name="Scedilla" unicode="&#x15e;" horiz-adv-x="1018" 
d="M64 199c42.667 -29.333 95.335 -54.167 158.002 -74.5s125 -30.5 187 -30.5c101.333 0 179.666 22.833 234.999 68.5s83 109.167 83 190.5c0 56.667 -16.167 107.5 -48.5 152.5s-93.5 100.167 -183.5 165.5c-90.667 65.333 -154.834 128.5 -192.501 189.5
s-56.5 128.5 -56.5 202.5c0 116 43.167 210.833 129.5 284.5s197.833 110.5 334.5 110.5c103.333 0 205 -19.667 305 -59l-26 -135c-79.333 50.667 -176 76 -290 76c-94.667 0 -170.834 -24.333 -228.501 -73s-86.5 -112 -86.5 -190c0 -62 15.333 -115.333 46 -160
s88.334 -98 173.001 -160c99.333 -72 167.666 -136.667 204.999 -194s56 -121.666 56 -192.999c0 -77.333 -18.5 -146 -55.5 -206s-90.333 -106.5 -160 -139.5s-152.167 -49.5 -247.5 -49.5c-61.333 0 -123.666 7.66699 -186.999 23s-121 36.666 -173 63.999z
M274.001 -346.001c28.667 -6 56.332 -9.00098 82.999 -9.00098c112 0 168 30.667 168 92c0 54.667 -41.667 82 -125 82l-59 -4l39 185h83l-24 -111c57.333 0 103 -12 137 -36s51 -59 51 -105c0 -57.333 -23.167 -102.166 -69.5 -134.499s-115.166 -48.5 -206.499 -48.5
c-26.667 0 -57.667 2.66699 -93 8z" />
    <glyph glyph-name="scedilla" unicode="&#x15f;" horiz-adv-x="801" 
d="M48 166c31.333 -23.333 70.5 -42.6631 117.5 -57.9961s91.833 -23 134.5 -23c73.333 0 129.166 14.833 167.499 44.5s57.5 73.167 57.5 130.5c0 39.333 -12 73.166 -36 101.499s-67.667 61.833 -131 100.5c-71.333 42.667 -123.166 85.667 -155.499 129
s-48.5 94 -48.5 152c0 88 32.333 161 97 219s148.667 87 252 87c38 0 79.333 -4.33301 124 -13s84 -21.334 118 -38.001l-26 -123c-66 42.667 -140 64 -222 64c-64.667 0 -116.5 -16.833 -155.5 -50.5s-58.5 -77.5 -58.5 -131.5c0 -39.333 10.667 -73.333 32 -102
s64 -62 128 -100c77.333 -47.333 131.833 -92.5 163.5 -135.5s47.5 -92.167 47.5 -147.5c0 -90.667 -33 -162.834 -99 -216.501s-156 -80.5 -270 -80.5c-46 0 -93.167 6.16699 -141.5 18.5s-88.833 28.166 -121.5 47.499zM151 -345.997
c28.667 -6 56.332 -9.00098 82.999 -9.00098c112 0 168 30.667 168 92c0 54.667 -41.667 82 -125 82l-59 -4l39 185h83l-24 -111c57.333 0 103 -12 137 -36s51 -59 51 -105c0 -57.333 -23.167 -102.166 -69.5 -134.499s-115.166 -48.5 -206.499 -48.5
c-26.667 0 -57.667 2.66699 -93 8z" />
    <glyph glyph-name="Scaron" unicode="&#x160;" horiz-adv-x="1018" 
d="M64 199c42.667 -29.333 95.335 -54.167 158.002 -74.5s125 -30.5 187 -30.5c101.333 0 179.666 22.833 234.999 68.5s83 109.167 83 190.5c0 56.667 -16.167 107.5 -48.5 152.5s-93.5 100.167 -183.5 165.5c-90.667 65.333 -154.834 128.5 -192.501 189.5
s-56.5 128.5 -56.5 202.5c0 116 43.167 210.833 129.5 284.5s197.833 110.5 334.5 110.5c103.333 0 205 -19.667 305 -59l-26 -135c-79.333 50.667 -176 76 -290 76c-94.667 0 -170.834 -24.333 -228.501 -73s-86.5 -112 -86.5 -190c0 -62 15.333 -115.333 46 -160
s88.334 -98 173.001 -160c99.333 -72 167.666 -136.667 204.999 -194s56 -121.666 56 -192.999c0 -77.333 -18.5 -146 -55.5 -206s-90.333 -106.5 -160 -139.5s-152.167 -49.5 -247.5 -49.5c-61.333 0 -123.666 7.66699 -186.999 23s-121 36.666 -173 63.999zM522.001 1890
h94l114 -239l210 239h101l-281 -334h-87z" />
    <glyph glyph-name="scaron" unicode="&#x161;" horiz-adv-x="801" 
d="M48 166c31.333 -23.333 70.5 -42.6631 117.5 -57.9961s91.833 -23 134.5 -23c73.333 0 129.166 14.833 167.499 44.5s57.5 73.167 57.5 130.5c0 39.333 -12 73.166 -36 101.499s-67.667 61.833 -131 100.5c-71.333 42.667 -123.166 85.667 -155.499 129
s-48.5 94 -48.5 152c0 88 32.333 161 97 219s148.667 87 252 87c38 0 79.333 -4.33301 124 -13s84 -21.334 118 -38.001l-26 -123c-66 42.667 -140 64 -222 64c-64.667 0 -116.5 -16.833 -155.5 -50.5s-58.5 -77.5 -58.5 -131.5c0 -39.333 10.667 -73.333 32 -102
s64 -62 128 -100c77.333 -47.333 131.833 -92.5 163.5 -135.5s47.5 -92.167 47.5 -147.5c0 -90.667 -33 -162.834 -99 -216.501s-156 -80.5 -270 -80.5c-46 0 -93.167 6.16699 -141.5 18.5s-88.833 28.166 -121.5 47.499zM335 1536h94l114 -239l210 239h101l-281 -334h-87z
" />
    <glyph glyph-name="Tcommaaccent" unicode="&#x162;" horiz-adv-x="1061" 
d="M632 1315h-415l25 119h958l-26 -119h-410l-278 -1315h-133zM275 -346c28.667 -6 56.332 -9.00098 82.999 -9.00098c112 0 168 30.667 168 92c0 54.667 -41.667 82 -125 82l-59 -4l39 185h83l-24 -111c57.333 0 103 -12 137 -36s51 -59 51 -105
c0 -57.333 -23.167 -102.166 -69.5 -134.499s-115.166 -48.5 -206.499 -48.5c-26.667 0 -57.667 2.66699 -93 8z" />
    <glyph glyph-name="tcommaaccent" unicode="&#x163;" horiz-adv-x="633" 
d="M277 915l-178.998 -0.000976562l25 109h176l55 259l135 41l-64 -300h267l-25 -109h-265l-127 -597c-12 -54 -18 -98 -18 -132c0 -33.333 7 -57.666 21 -72.999s37.333 -23 70 -23c31.333 0 82.333 15.667 153 47l-25 -114
c-22.667 -11.333 -49.834 -21.166 -81.501 -29.499s-58.834 -12.5 -81.501 -12.5c-122.667 0 -184 63.333 -184 190c0 39.333 6.33301 86.666 19 141.999zM116.002 -346.001c28.667 -6 56.332 -9.00098 82.999 -9.00098c112 0 168 30.667 168 92
c0 54.667 -41.667 82 -125 82l-59 -4l39 185h83l-24 -111c57.333 0 103 -12 137 -36s51 -59 51 -105c0 -57.333 -23.167 -102.166 -69.5 -134.499s-115.166 -48.5 -206.499 -48.5c-26.667 0 -57.667 2.66699 -93 8z" />
    <glyph glyph-name="Tcaron" unicode="&#x164;" horiz-adv-x="1061" 
d="M632 1315h-415l25 119h958l-26 -119h-410l-278 -1315h-133zM536 1889h94l114 -239l210 239h101l-281 -334h-87z" />
    <glyph glyph-name="tcaron" unicode="&#x165;" horiz-adv-x="733" 
d="M277 915l-178.998 -0.000976562l25 109h176l55 259l135 41l-64 -300h267l-25 -109h-265l-127 -597c-12 -54 -18 -98 -18 -132c0 -33.333 7 -57.666 21 -72.999s37.333 -23 70 -23c31.333 0 82.333 15.667 153 47l-25 -114
c-22.667 -11.333 -49.834 -21.166 -81.501 -29.499s-58.834 -12.5 -81.501 -12.5c-122.667 0 -184 63.333 -184 190c0 39.333 6.33301 86.666 19 141.999zM862.002 1516h139l-199 -260h-99z" />
    <glyph glyph-name="Tbar" unicode="&#x166;" horiz-adv-x="1061" 
d="M493 660h-290l26 119h289l114 536h-415l25 119h958l-26 -119h-411l-114 -536h287l-25 -119h-287l-140 -660h-132z" />
    <glyph glyph-name="tbar" unicode="&#x167;" horiz-adv-x="633" 
d="M201 560l-163.001 -0.000976562l23 107h162l54 248h-179l25 109h176l55 259l135 41l-64 -300h267l-25 -109h-265l-53 -248h244l-22 -107h-244l-52 -242c-12 -62 -18 -106 -18 -132c0 -33.333 7 -57.666 21 -72.999s37.333 -23 70 -23c30 0 81 15.667 153 47l-25 -114
c-57.333 -28 -111.666 -42 -162.999 -42c-122.667 0 -184 63.333 -184 190c0 18 1.5 38.333 4.5 61s25.5 132 67.5 328z" />
    <glyph glyph-name="Utilde" unicode="&#x168;" horiz-adv-x="1366" 
d="M360 1434l133.001 -0.000976562l-168 -789c-18.667 -84.667 -28 -157 -28 -217c0 -111.333 29.5 -194.833 88.5 -250.5s140.5 -83.5 244.5 -83.5c120.667 0 215.667 34.667 285 104s120.666 180.666 153.999 333.999l192 902h132l-187 -880
c-44.667 -209.333 -113 -358.166 -205 -446.499s-222 -132.5 -390 -132.5c-137.333 0 -246 39.333 -326 118s-120 185.334 -120 320.001c0 71.333 7.33301 141 22 209zM580.001 1555c9.33301 70 33.335 124.333 72.002 163s88 58 148 58c28.667 0 53 -6 73 -18
s38.5 -25.167 55.5 -39.5s34.167 -27.5 51.5 -39.5s37.666 -18 60.999 -18c30 0 55.667 11.5 77 34.5s35.666 55.167 42.999 96.5h84c-10.667 -68.667 -34.834 -122.667 -72.501 -162s-85.167 -59 -142.5 -59c-31.333 0 -57.166 5.83301 -77.499 17.5s-39 24.667 -56 39
s-33.833 27.333 -50.5 39s-36.334 17.5 -59.001 17.5c-67.333 0 -108.666 -43 -123.999 -129h-83z" />
    <glyph glyph-name="utilde" unicode="&#x169;" horiz-adv-x="1122" 
d="M260 1024h126.001l-124 -594c-16 -81.333 -24 -134 -24 -158c0 -124.667 53.667 -187 161 -187c52 0 108.167 20.833 168.5 62.5s116 98.834 167 171.501s84.5 145 100.5 217l104 488h126l-157 -736c-22.667 -104 -38.667 -200 -48 -288h-123l43 268h-4
c-58 -94 -122.333 -166.333 -193 -217s-143 -76 -217 -76c-86.667 0 -151.334 24.5 -194.001 73.5s-64 118.5 -64 208.5c0 19.333 3.5 50.666 10.5 93.999s13.833 78.333 20.5 105zM399.001 1202c9.33301 70 33.335 124.333 72.002 163s88 58 148 58c28.667 0 53 -6 73 -18
s38.5 -25.167 55.5 -39.5s34.167 -27.5 51.5 -39.5s37.666 -18 60.999 -18c30 0 55.667 11.5 77 34.5s35.666 55.167 42.999 96.5h84c-10.667 -68.667 -34.834 -122.667 -72.501 -162s-85.167 -59 -142.5 -59c-31.333 0 -57.166 5.83301 -77.499 17.5s-39 24.667 -56 39
s-33.833 27.333 -50.5 39s-36.334 17.5 -59.001 17.5c-67.333 0 -108.666 -43 -123.999 -129h-83z" />
    <glyph glyph-name="Umacron" unicode="&#x16a;" horiz-adv-x="1366" 
d="M360 1434l133.001 -0.000976562l-168 -789c-18.667 -84.667 -28 -157 -28 -217c0 -111.333 29.5 -194.833 88.5 -250.5s140.5 -83.5 244.5 -83.5c120.667 0 215.667 34.667 285 104s120.666 180.666 153.999 333.999l192 902h132l-187 -880
c-44.667 -209.333 -113 -358.166 -205 -446.499s-222 -132.5 -390 -132.5c-137.333 0 -246 39.333 -326 118s-120 185.334 -120 320.001c0 71.333 7.33301 141 22 209zM651.001 1655h508l-17 -95h-508z" />
    <glyph glyph-name="umacron" unicode="&#x16b;" horiz-adv-x="1122" 
d="M260 1024h126.001l-124 -594c-16 -81.333 -24 -134 -24 -158c0 -124.667 53.667 -187 161 -187c52 0 108.167 20.833 168.5 62.5s116 98.834 167 171.501s84.5 145 100.5 217l104 488h126l-157 -736c-22.667 -104 -38.667 -200 -48 -288h-123l43 268h-4
c-58 -94 -122.333 -166.333 -193 -217s-143 -76 -217 -76c-86.667 0 -151.334 24.5 -194.001 73.5s-64 118.5 -64 208.5c0 19.333 3.5 50.666 10.5 93.999s13.833 78.333 20.5 105zM455.001 1308h508l-17 -95h-508z" />
    <glyph glyph-name="Ubreve" unicode="&#x16c;" horiz-adv-x="1366" 
d="M360 1434l133.001 -0.000976562l-168 -789c-18.667 -84.667 -28 -157 -28 -217c0 -111.333 29.5 -194.833 88.5 -250.5s140.5 -83.5 244.5 -83.5c120.667 0 215.667 34.667 285 104s120.666 180.666 153.999 333.999l192 902h132l-187 -880
c-44.667 -209.333 -113 -358.166 -205 -446.499s-222 -132.5 -390 -132.5c-137.333 0 -246 39.333 -326 118s-120 185.334 -120 320.001c0 71.333 7.33301 141 22 209zM740.001 1799l-1.99902 -23c0 -43.333 13.5 -76.5 40.5 -99.5s63.167 -34.5 108.5 -34.5
c52.667 0 95.667 12.167 129 36.5s59.666 64.5 78.999 120.5h98c-24 -79.333 -62.5 -139.833 -115.5 -181.5s-117.833 -62.5 -194.5 -62.5c-72.667 0 -130.667 18.833 -174 56.5s-65 89.167 -65 154.5l3 33h93z" />
    <glyph glyph-name="ubreve" unicode="&#x16d;" horiz-adv-x="1122" 
d="M260 1024h126.001l-124 -594c-16 -81.333 -24 -134 -24 -158c0 -124.667 53.667 -187 161 -187c52 0 108.167 20.833 168.5 62.5s116 98.834 167 171.501s84.5 145 100.5 217l104 488h126l-157 -736c-22.667 -104 -38.667 -200 -48 -288h-123l43 268h-4
c-58 -94 -122.333 -166.333 -193 -217s-143 -76 -217 -76c-86.667 0 -151.334 24.5 -194.001 73.5s-64 118.5 -64 208.5c0 19.333 3.5 50.666 10.5 93.999s13.833 78.333 20.5 105zM570.001 1446l-1.99902 -23c0 -43.333 13.5 -76.5 40.5 -99.5s63.167 -34.5 108.5 -34.5
c52.667 0 95.667 12.167 129 36.5s59.666 64.5 78.999 120.5h98c-24 -79.333 -62.5 -139.833 -115.5 -181.5s-117.833 -62.5 -194.5 -62.5c-72.667 0 -130.667 18.833 -174 56.5s-65 89.167 -65 154.5l3 33h93z" />
    <glyph glyph-name="Uring" unicode="&#x16e;" horiz-adv-x="1366" 
d="M360 1434l133.001 -0.000976562l-168 -789c-18.667 -84.667 -28 -157 -28 -217c0 -111.333 29.5 -194.833 88.5 -250.5s140.5 -83.5 244.5 -83.5c120.667 0 215.667 34.667 285 104s120.666 180.666 153.999 333.999l192 902h132l-187 -880
c-44.667 -209.333 -113 -358.166 -205 -446.499s-222 -132.5 -390 -132.5c-137.333 0 -246 39.333 -326 118s-120 185.334 -120 320.001c0 71.333 7.33301 141 22 209zM703.001 1744c0 56 19.333 101.833 58 137.5s87.667 53.5 147 53.5s107.5 -17.667 144.5 -53
s55.5 -80 55.5 -134s-19.5 -99.333 -58.5 -136s-87.167 -55 -144.5 -55c-58.667 0 -107 17.5 -145 52.5s-57 79.833 -57 134.5zM905.001 1631c35.333 0 64.5 10.999 87.5 32.999s34.5 49.667 34.5 83c0 34.667 -11.333 62.334 -34 83.001s-52 31 -88 31s-65 -10.5 -87 -31.5
s-33 -48.5 -33 -82.5c0 -36 11.5 -64.333 34.5 -85s51.5 -31 85.5 -31z" />
    <glyph glyph-name="uring" unicode="&#x16f;" horiz-adv-x="1122" 
d="M260 1024h126.001l-124 -594c-16 -81.333 -24 -134 -24 -158c0 -124.667 53.667 -187 161 -187c52 0 108.167 20.833 168.5 62.5s116 98.834 167 171.501s84.5 145 100.5 217l104 488h126l-157 -736c-22.667 -104 -38.667 -200 -48 -288h-123l43 268h-4
c-58 -94 -122.333 -166.333 -193 -217s-143 -76 -217 -76c-86.667 0 -151.334 24.5 -194.001 73.5s-64 118.5 -64 208.5c0 19.333 3.5 50.666 10.5 93.999s13.833 78.333 20.5 105zM532.001 1369c0 56 19.333 101.833 58 137.5s87.667 53.5 147 53.5
s107.5 -17.667 144.5 -53s55.5 -80 55.5 -134s-19.5 -99.333 -58.5 -136s-87.167 -55 -144.5 -55c-58.667 0 -107 17.5 -145 52.5s-57 79.833 -57 134.5zM734.001 1256c35.333 0 64.5 10.999 87.5 32.999s34.5 49.667 34.5 83c0 34.667 -11.333 62.334 -34 83.001
s-52 31 -88 31s-65 -10.5 -87 -31.5s-33 -48.5 -33 -82.5c0 -36 11.5 -64.333 34.5 -85s51.5 -31 85.5 -31z" />
    <glyph glyph-name="Uhungarumlaut" unicode="&#x170;" horiz-adv-x="1366" 
d="M360 1434l133.001 -0.000976562l-168 -789c-18.667 -84.667 -28 -157 -28 -217c0 -111.333 29.5 -194.833 88.5 -250.5s140.5 -83.5 244.5 -83.5c120.667 0 215.667 34.667 285 104s120.666 180.666 153.999 333.999l192 902h132l-187 -880
c-44.667 -209.333 -113 -358.166 -205 -446.499s-222 -132.5 -390 -132.5c-137.333 0 -246 39.333 -326 118s-120 185.334 -120 320.001c0 71.333 7.33301 141 22 209zM1112 1876h125l-266 -321h-86zM876.001 1876h122l-264 -321h-87z" />
    <glyph glyph-name="uhungarumlaut" unicode="&#x171;" horiz-adv-x="1122" 
d="M260 1024h126.001l-124 -594c-16 -81.333 -24 -134 -24 -158c0 -124.667 53.667 -187 161 -187c52 0 108.167 20.833 168.5 62.5s116 98.834 167 171.501s84.5 145 100.5 217l104 488h126l-157 -736c-22.667 -104 -38.667 -200 -48 -288h-123l43 268h-4
c-58 -94 -122.333 -166.333 -193 -217s-143 -76 -217 -76c-86.667 0 -151.334 24.5 -194.001 73.5s-64 118.5 -64 208.5c0 19.333 3.5 50.666 10.5 93.999s13.833 78.333 20.5 105zM960.001 1523h125l-266 -321h-86zM724.001 1523h122l-264 -321h-87z" />
    <glyph glyph-name="Uogonek" unicode="&#x172;" horiz-adv-x="1366" 
d="M360 1434l133.001 -0.000976562l-168 -789c-18.667 -84.667 -28 -157 -28 -217c0 -111.333 29.5 -194.833 88.5 -250.5s140.5 -83.5 244.5 -83.5c120.667 0 215.667 34.667 285 104s120.666 180.666 153.999 333.999l192 902h132l-187 -880
c-44.667 -209.333 -113 -358.166 -205 -446.499s-222 -132.5 -390 -132.5c-137.333 0 -246 39.333 -326 118s-120 185.334 -120 320.001c0 71.333 7.33301 141 22 209zM566.001 -413.001c-50 0 -88.8311 13.667 -116.498 41s-41.5 65 -41.5 113c0 84 61 170.333 183 259h94
c-63.333 -54 -108.833 -100 -136.5 -138s-41.5 -73.667 -41.5 -107c0 -56 27.333 -84 82 -84c23.333 0 51.666 7 84.999 21l-7 -85c-32.667 -13.333 -66.334 -20 -101.001 -20z" />
    <glyph glyph-name="uogonek" unicode="&#x173;" horiz-adv-x="1122" 
d="M260 1024h126.001l-124 -594c-16 -81.333 -24 -134 -24 -158c0 -124.667 53.667 -187 161 -187c52 0 108.167 20.833 168.5 62.5s116 98.834 167 171.501s84.5 145 100.5 217l104 488h126l-157 -736c-22.667 -104 -38.667 -200 -48 -288h-123l43 268h-4
c-58 -94 -122.333 -166.333 -193 -217s-143 -76 -217 -76c-86.667 0 -151.334 24.5 -194.001 73.5s-64 118.5 -64 208.5c0 19.333 3.5 50.666 10.5 93.999s13.833 78.333 20.5 105zM714.001 -413c-50 0 -88.8311 13.667 -116.498 41s-41.5 65 -41.5 113
c0 84 61 170.333 183 259h94c-63.333 -54 -108.833 -100 -136.5 -138s-41.5 -73.667 -41.5 -107c0 -56 27.333 -84 82 -84c23.333 0 51.666 7 84.999 21l-7 -85c-32.667 -13.333 -66.334 -20 -101.001 -20z" />
    <glyph glyph-name="Wcircumflex" unicode="&#x174;" horiz-adv-x="1830" 
d="M207 1434h138.001l81 -1123l4 -126h4c14.667 42 33 84 55 126l579 1123h98l85 -1126l6 -124h4c22.667 56 47 110.667 73 164l526 1086h146l-719 -1434h-126l-91 1072l-3 137h-5c-12.667 -51.333 -29.334 -96.333 -50.001 -135l-557 -1074h-129zM1142 1889h86l151 -334
h-95l-113 239l-209 -239h-102z" />
    <glyph glyph-name="wcircumflex" unicode="&#x175;" horiz-adv-x="1427" 
d="M134 1024l123.999 -0.000976562l58 -805v-12v-14l-4 -53h7c10.667 34 23 64.667 37 92l418 792h101l59 -823l-5 -62h8c10.667 36.667 22.667 67.334 36 92.001l395 793h130l-531 -1024h-119l-61 748l-2 38l4 58h-4c-3.33301 -9.33301 -8.16602 -21.5 -14.499 -36.5
s-147.833 -284.167 -424.5 -807.5h-120zM866.999 1536h86l151 -334h-95l-113 239l-209 -239h-102z" />
    <glyph glyph-name="Ycircumflex" unicode="&#x176;" horiz-adv-x="1119" 
d="M488 542l-257 892h140l182 -674l22 -98h4l53 83l493 689h151l-654 -889l-114 -545h-134zM768 1888h86l151 -334h-95l-113 239l-209 -239h-102z" />
    <glyph glyph-name="ycircumflex" unicode="&#x177;" horiz-adv-x="957" 
d="M-139 -348c21.333 -12 47.667 -18 79 -18c48 0 91.167 14 129.5 42s75.833 71.333 112.5 130l129 203l-183 1015h129l134 -809l7 -77h4l27 53l496 833h142l-742 -1205c-71.333 -114 -136.5 -192.5 -195.5 -235.5s-126.167 -64.5 -201.5 -64.5c-37.333 0 -68 5 -92 15z
M634.001 1536h86l151 -334h-95l-113 239l-209 -239h-102z" />
    <glyph glyph-name="Ydieresis" unicode="&#x178;" horiz-adv-x="1119" 
d="M488 542l-257 892h140l182 -674l22 -98h4l53 83l493 689h151l-654 -889l-114 -545h-134zM864 1645c0 21.333 7.66699 40.501 23 57.501s35 25.5 59 25.5c23.333 0 43.666 -8 60.999 -24s26 -35.667 26 -59c0 -24 -8.33301 -44 -25 -60s-36.667 -24 -60 -24
s-43.166 7.66699 -59.499 23s-24.5 35.666 -24.5 60.999zM505 1645c0 22 8.16797 41.3311 24.501 57.998s35.833 25 58.5 25c24 0 44.667 -8 62 -24s26 -35.667 26 -59s-8.5 -43.166 -25.5 -59.499s-37.5 -24.5 -61.5 -24.5c-22.667 0 -42.334 7.83301 -59.001 23.5
s-25 35.834 -25 60.501z" />
    <glyph glyph-name="Zacute" unicode="&#x179;" horiz-adv-x="1167" 
d="M1059 1314h-772l25 120h986l-8 -40l-1117 -1274h829l-25 -120h-1037l9 46zM956 1884h134l-314 -328h-109z" />
    <glyph glyph-name="zacute" unicode="&#x17a;" horiz-adv-x="939" 
d="M768 915h-584l24 109h788l-7 -40l-828 -875h625l-24 -109h-825l9 48zM780 1530h134l-314 -328h-109z" />
    <glyph glyph-name="Zdotaccent" unicode="&#x17b;" horiz-adv-x="1167" 
d="M1059 1314h-772l25 120h986l-8 -40l-1117 -1274h829l-25 -120h-1037l9 46zM808 1554c-24.667 0 -45.332 8.66699 -61.999 26s-25 38 -25 62c0 25.333 8.66699 45.666 26 60.999s37.333 23 60 23c23.333 0 43.833 -7.66699 61.5 -23s26.5 -35.666 26.5 -60.999
c0 -24.667 -8.33301 -45.5 -25 -62.5s-37.334 -25.5 -62.001 -25.5z" />
    <glyph glyph-name="zdotaccent" unicode="&#x17c;" horiz-adv-x="939" 
d="M768 915h-584l24 109h788l-7 -40l-828 -875h625l-24 -109h-825l9 48zM627 1202c-24.667 0 -45.332 8.66699 -61.999 26s-25 38 -25 62c0 25.333 8.66699 45.666 26 60.999s37.333 23 60 23c23.333 0 43.833 -7.66699 61.5 -23s26.5 -35.666 26.5 -60.999
c0 -24.667 -8.33301 -45.5 -25 -62.5s-37.334 -25.5 -62.001 -25.5z" />
    <glyph glyph-name="Zcaron" unicode="&#x17d;" horiz-adv-x="1167" 
d="M1059 1314h-772l25 120h986l-8 -40l-1117 -1274h829l-25 -120h-1037l9 46zM601 1883h94l114 -239l210 239h101l-281 -334h-87z" />
    <glyph glyph-name="zcaron" unicode="&#x17e;" horiz-adv-x="939" 
d="M768 915h-584l24 109h788l-7 -40l-828 -875h625l-24 -109h-825l9 48zM413 1536h94l114 -239l210 239h101l-281 -334h-87z" />
    <glyph glyph-name="longs" unicode="&#x17f;" horiz-adv-x="542" 
d="M671 1540c43.333 0 84.3311 -6 122.998 -18l-23 -116c-26 16.667 -63.333 25 -112 25c-59.333 0 -106.666 -19.5 -141.999 -58.5s-61.666 -99.833 -78.999 -182.5l-329 -1530h-126l334 1556c45.333 216 163.333 324 354 324z" />
    <glyph glyph-name="uni0180" unicode="&#x180;" horiz-adv-x="1089" 
d="M312 1219l-132.999 0.000976562l23 109h133l40 188h126l-39 -188h321l-23 -109h-322c-57.333 -266.667 -90.333 -417 -99 -451h3c102.667 187.333 228 281 376 281c95.333 0 167.666 -32.167 216.999 -96.5s74 -156.833 74 -277.5c0 -130 -27 -249.833 -81 -359.5
s-127.167 -193.834 -219.5 -252.501s-195.833 -88 -310.5 -88c-54 0 -112.167 8.16699 -174.5 24.5s-114.5 37.5 -156.5 63.5zM209.001 136.001c59.333 -34 126.999 -51.002 202.999 -51.002c87.333 0 166.833 25.833 238.5 77.5s127.834 122.5 168.501 212.5s61 187 61 291
c0 92.667 -16.167 161.334 -48.5 206.001s-82.5 67 -150.5 67c-56 0 -112.167 -23.833 -168.5 -71.5s-106.833 -113.167 -151.5 -196.5s-75 -165.666 -91 -246.999z" />
    <glyph glyph-name="uni0181" unicode="&#x181;" horiz-adv-x="1258" 
d="M474 1315c-172.667 -2.66699 -259 -85.6699 -259 -249.003c0 -26.667 1.66699 -46.667 5 -60h-124c-3.33301 16.667 -5 37.334 -5 62.001c0 116.667 33.833 206.834 101.5 270.501s170.167 95.5 307.5 95.5h368c105.333 0 188.666 -28 249.999 -84s92 -130.667 92 -224
c0 -100.667 -28.167 -185 -84.5 -253s-135.166 -111.667 -236.499 -131v-4c74 -14 132.5 -47.167 175.5 -99.5s64.5 -117.166 64.5 -194.499c0 -138 -45 -246.5 -135 -325.5s-216 -118.5 -378 -118.5h-420zM610 118.997c128.667 0 224.5 27.168 287.5 81.501
s94.5 132.166 94.5 233.499c0 79.333 -27 140.833 -81 184.5s-133.667 65.5 -239 65.5h-200l-118 -565h256zM707 801.998c116 0 206.167 27 270.5 81s96.5 128.333 96.5 223c0 64 -20.5 114.833 -61.5 152.5s-99.833 56.5 -176.5 56.5h-228l-111 -513h210z" />
    <glyph glyph-name="uni0182" unicode="&#x182;" horiz-adv-x="1152" 
d="M378 1434h724l-26 -120h-591l-107 -505h231c131.333 0 235.833 -33 313.5 -99s116.5 -155 116.5 -267c0 -143.333 -46.667 -253 -140 -329s-227 -114 -401 -114h-423zM496 119c269.333 0 403.999 105 403.999 315c0 83.333 -26.667 147 -80 191s-132.666 66 -237.999 66
h-229l-120 -572h263z" />
    <glyph glyph-name="uni0183" unicode="&#x183;" horiz-adv-x="1089" 
d="M375 1516l702.002 0.000976562l-25 -110h-574c-80.667 -378 -127.334 -590.667 -140.001 -638h4c102.667 187.333 228 281 376 281c95.333 0 167.666 -32.167 216.999 -96.5s74 -156.833 74 -277.5c0 -130 -27 -249.833 -81 -359.5s-127.167 -193.834 -219.5 -252.501
s-195.833 -88 -310.5 -88c-54 0 -112.167 8.16699 -174.5 24.5s-114.5 37.5 -156.5 63.5zM209.002 136.001c59.333 -34 126.999 -51.002 202.999 -51.002c87.333 0 166.833 25.833 238.5 77.5s127.834 122.5 168.501 212.5s61 187 61 291
c0 92.667 -16.167 161.334 -48.5 206.001s-82.5 67 -150.5 67c-56 0 -112.167 -23.833 -168.5 -71.5s-106.833 -113.167 -151.5 -196.5s-75 -165.666 -91 -246.999z" />
    <glyph glyph-name="uni0184" unicode="&#x184;" horiz-adv-x="1152" 
d="M323 1178l-117 119l5 22l277 139h28l-138 -649h231c131.333 0 235.833 -33 313.5 -99s116.5 -155 116.5 -267c0 -143.333 -46.667 -253 -140 -329s-227 -114 -401 -114h-423zM496 119c269.333 0 403.999 105 403.999 315c0 83.333 -26.667 147 -80 191
s-132.666 66 -237.999 66h-229l-120 -572h263z" />
    <glyph glyph-name="uni0185" unicode="&#x185;" horiz-adv-x="1089" 
d="M316 1240l-111 117.001l5 22l263 137h28c-95.333 -448.667 -149.666 -698 -162.999 -748h4c102.667 187.333 228 281 376 281c95.333 0 167.666 -32.167 216.999 -96.5s74 -156.833 74 -277.5c0 -130 -27 -249.833 -81 -359.5s-127.167 -193.834 -219.5 -252.501
s-195.833 -88 -310.5 -88c-54 0 -112.167 8.16699 -174.5 24.5s-114.5 37.5 -156.5 63.5zM209 136.001c59.333 -34 126.999 -51.002 202.999 -51.002c87.333 0 166.833 25.833 238.5 77.5s127.834 122.5 168.501 212.5s61 187 61 291
c0 92.667 -16.167 161.334 -48.5 206.001s-82.5 67 -150.5 67c-56 0 -112.167 -23.833 -168.5 -71.5s-106.833 -113.167 -151.5 -196.5s-75 -165.666 -91 -246.999z" />
    <glyph glyph-name="uni0186" unicode="&#x186;" horiz-adv-x="1288" 
d="M73 194c102 -67.333 221.664 -100.998 358.997 -100.998c128 0 242.833 32 344.5 96s180.834 154 237.501 270s85 246.333 85 391c0 152.667 -40.667 272.5 -122 359.5s-195 130.5 -341 130.5c-128 0 -248.333 -29.667 -361 -89l28 137c64 26.667 123.667 45 179 55
s113 15 173 15c180.667 0 323 -52.833 427 -158.5s156 -252.834 156 -441.501c0 -168 -34.667 -319.833 -104 -455.5s-166.166 -240.834 -290.499 -315.501s-265.166 -112 -422.499 -112c-141.333 0 -266 27.667 -374 83z" />
    <glyph glyph-name="uni0187" unicode="&#x187;" horiz-adv-x="1283" 
d="M728 -25c-178.667 0 -320.501 55.667 -425.501 167s-157.5 263.666 -157.5 456.999c0 164 34.5 311.833 103.5 443.5s165.333 233.834 289 306.501s263.167 109 418.5 109c97.333 0 191 -15.667 281 -47c18.667 90 50.334 155 95.001 195s104.667 60 180 60
c43.333 0 78.333 -7.33301 105 -22l-25 -114c-25.333 15.333 -54.333 23 -87 23c-41.333 0 -75 -13.5 -101 -40.5s-45.667 -73.5 -59 -139.5l-30 -146c-106 75.333 -229.333 113 -370 113c-127.333 0 -241.5 -31.167 -342.5 -93.5s-179.833 -149.5 -236.5 -261.5
s-85 -237.333 -85 -376c0 -162 41.5 -288.333 124.5 -379s197.5 -136 343.5 -136c134 0 262 33.667 384 101l-31 -141c-60.667 -28 -120 -48.167 -178 -60.5s-123.333 -18.5 -196 -18.5z" />
    <glyph glyph-name="uni0188" unicode="&#x188;" horiz-adv-x="929" 
d="M443 -25c-113.333 0 -202.167 36.8369 -266.5 110.504s-96.5 174.167 -96.5 301.5c0 121.333 24.167 233.166 72.5 335.499s115.5 182.333 201.5 240s180.667 86.5 284 86.5c54 0 103.667 -8 149 -24c16 61.333 44.333 110.166 85 146.499s93.667 54.5 159 54.5
c32 0 60 -5.66699 84 -17l-23 -106c-20 12 -41.667 18 -65 18c-36.667 0 -67 -11.333 -91 -34s-42.667 -61.667 -56 -117l-28 -119c-60 58.667 -136 88 -228 88c-78 0 -149.167 -24.667 -213.5 -74s-114.5 -116.333 -150.5 -201s-54 -174.334 -54 -269.001
c0 -98.667 22.667 -175 68 -229s108.333 -81 189 -81c82 0 170.333 34.333 265 103l-30 -138c-53.333 -28.667 -98.333 -48.334 -135 -59.001s-76.667 -16 -120 -16z" />
    <glyph glyph-name="uni0189" unicode="&#x189;" horiz-adv-x="1419" 
d="M216 658h-159l23 119h161l140 657h359c196.667 0 350.167 -51.333 460.5 -154s165.5 -247 165.5 -433c0 -169.333 -34.5 -318 -103.5 -446s-169 -226.833 -300 -296.5s-284.5 -104.5 -460.5 -104.5h-427zM504 119c230 0 408.5 63.333 535.5 190s190.5 302.667 190.5 528
c0 154.667 -43.167 273 -129.5 355s-214.833 123 -385.5 123h-228l-115 -538h374l-24 -119h-375l-115 -539h272z" />
    <glyph glyph-name="uni018A" unicode="&#x18a;" horiz-adv-x="1539" 
d="M476 1315c-174 -2.66699 -261 -85.6699 -261 -249.003c0 -26.667 1.66699 -46.667 5 -60h-124c-3.33301 16.667 -5 37.334 -5 62.001c0 116.667 33.667 206.834 101 270.501s169.666 95.5 306.999 95.5h365c197.333 0 350.5 -51.167 459.5 -153.5
s163.5 -245.166 163.5 -428.499c0 -170 -34.667 -319.5 -104 -448.5s-169.166 -228.5 -299.499 -298.5s-283.5 -105 -459.5 -105h-429zM631 118.997c223.333 0 399.167 64.668 527.5 194.001s192.5 305.666 192.5 528.999c0 155.333 -43 273 -129 353s-215 120 -387 120
h-228l-255 -1196h279z" />
    <glyph glyph-name="uni018B" unicode="&#x18b;" horiz-adv-x="1141" 
d="M504 0c-134.667 0 -239 32.5 -313 97.5s-111 154.833 -111 269.5c0 146.667 47.333 259.5 142 338.5s229 118.5 403 118.5h264l105 490h-591l26 120h720l-304 -1434h-341zM740 119l124 586h-241c-270 0 -405 -109 -405 -327c0 -172.667 105.667 -259 317 -259h205z" />
    <glyph glyph-name="uni018C" unicode="&#x18c;" horiz-adv-x="1089" 
d="M718 0c2.66699 66.667 13.666 157.669 32.999 273.002h-4c-56 -98.667 -113.833 -173 -173.5 -223s-127.167 -75 -202.5 -75c-91.333 0 -162.666 32.167 -213.999 96.5s-77 156.833 -77 277.5c0 127.333 27 245.666 81 354.999s128.167 194.166 222.5 254.499
s199.5 90.5 315.5 90.5c64 0 132.667 -9.33301 206 -28l83 385h-571l25 110h692l-252 -1196c-8.66699 -40 -16.5 -97.5 -23.5 -172.5s-10.5 -124.167 -10.5 -147.5h-130zM881.999 909.002c-61.333 20 -125.666 29.999 -192.999 29.999
c-90.667 0 -171.834 -24.5 -243.501 -73.5s-129 -118.833 -172 -209.5s-64.5 -189 -64.5 -295c0 -184 64.333 -276 193 -276c54.667 0 110.5 24.667 167.5 74s108.333 115.833 154 199.5s78.167 170.834 97.5 261.501z" />
    <glyph glyph-name="uni018D" unicode="&#x18d;" horiz-adv-x="1179" 
d="M7 -308c42 -28 91.332 -50.6641 147.999 -67.9971s113 -26 169 -26c93.333 0 165.833 15.667 217.5 47s77.5 76.333 77.5 135c0 48.667 -14.667 93.334 -44 134.001s-94.666 98.667 -195.999 174c-95.333 71.333 -164.333 143.833 -207 217.5s-64 156.5 -64 248.5
c0 152.667 49 273.167 147 361.5s233 132.5 405 132.5c134.667 0 241.834 -37 321.501 -111s119.5 -177 119.5 -309c0 -134.667 -44.167 -247.834 -132.5 -339.501s-218.833 -159.834 -391.5 -204.501c116 -96.667 174 -198.334 174 -305.001
c0 -92.667 -38.333 -164.334 -115 -215.001s-184.334 -76 -323.001 -76c-58 0 -118.167 6.33301 -180.5 19s-113.5 29.667 -153.5 51zM489.999 156.003c164.667 41.333 285.5 100.167 362.5 176.5s115.5 174.166 115.5 293.499c0 96.667 -27.167 172.834 -81.5 228.501
s-130.5 83.5 -228.5 83.5c-130.667 0 -233 -33.667 -307 -101s-111 -160.333 -111 -279c0 -77.333 19.5 -148 58.5 -212s102.833 -127.333 191.5 -190z" />
    <glyph glyph-name="uni018E" unicode="&#x18e;" horiz-adv-x="1004" 
d="M710 0h-696l25 119h563l114 535h-522l25 119h523l115 542h-597l24 119h729z" />
    <glyph glyph-name="uni018F" unicode="&#x18f;" horiz-adv-x="1489" 
d="M1290 777l6.00195 87.001c0 145.333 -38.333 260.833 -115 346.5s-182.334 128.5 -317.001 128.5c-150 0 -285.667 -30.333 -407 -91l30 139c107.333 47.333 239 71 395 71c170.667 0 305.167 -52.333 403.5 -157s147.5 -247.334 147.5 -428.001
c0 -168.667 -33 -322.667 -99 -462s-158.167 -246.833 -276.5 -322.5s-252.833 -113.5 -403.5 -113.5c-168.667 0 -299.834 48.667 -393.501 146s-140.5 232 -140.5 404c0 80 9.33301 164 28 252h1142zM265.002 659.001c-8 -41.333 -12.001 -85.666 -12.001 -132.999
c0 -132.667 35.833 -237.834 107.5 -315.501s170.834 -116.5 297.501 -116.5c159.333 0 293.5 50.167 402.5 150.5s180.167 238.5 213.5 414.5h-1009z" />
    <glyph glyph-name="uni0190" unicode="&#x190;" horiz-adv-x="1106" 
d="M539 -25c-144.667 0 -252.333 32.667 -323 98s-106 157 -106 275c0 105.333 34.833 192.833 104.5 262.5s168.5 116.167 296.5 139.5l1 5c-67.333 20.667 -119.833 56.167 -157.5 106.5s-56.5 109.833 -56.5 178.5c0 120.667 45.833 220.5 137.5 299.5
s206.834 118.5 345.501 118.5c145.333 0 264.333 -27 357 -81l-28 -134c-87.333 64 -197 96 -329 96c-101.333 0 -184.5 -27.333 -249.5 -82s-97.5 -125.667 -97.5 -213c0 -78.667 29.667 -138.834 89 -180.501s143 -62.5 251 -62.5h101l-24 -118h-118
c-157.333 0 -278 -28.667 -362 -86s-126 -138.666 -126 -243.999c0 -172.667 99.667 -259 299 -259c131.333 0 260.666 34 387.999 102l-27 -135c-116 -57.333 -238 -86 -366 -86z" />
    <glyph glyph-name="uni0191" unicode="&#x191;" horiz-adv-x="975" 
d="M-260 -215c10.667 -6.66699 26.332 -13 46.999 -19s41.334 -9 62.001 -9c62 0 111.333 21.667 148 65s65.667 117.333 87 222l295 1390h696l-25 -119h-566l-115 -544h524l-24 -118h-525l-130 -609c-30.667 -146 -75 -250.167 -133 -312.5s-137.667 -93.5 -239 -93.5
c-20 0 -43 2.5 -69 7.5s-45.667 10.833 -59 17.5z" />
    <glyph glyph-name="florin" unicode="&#x192;" horiz-adv-x="1078" 
d="M52 -149c26.667 -13.333 52.668 -20.001 78.001 -20.001c56 0 100.5 22.5 133.5 67.5s62.5 125.833 88.5 242.5l143 673h-114l24 109h112l49 225c19.333 91.333 55.666 161.833 108.999 211.5s121.333 74.5 204 74.5c34.667 0 77.667 -7 129 -21l-24 -113
c-35.333 16.667 -69 25 -101 25c-100.667 0 -164 -60.333 -190 -181l-49 -221h180l-23 -108h-180l-145 -679c-31.333 -145.333 -73.833 -250.666 -127.5 -315.999s-125.167 -98 -214.5 -98c-33.333 0 -65 6 -95 18z" />
    <glyph glyph-name="uni0193" unicode="&#x193;" horiz-adv-x="1415" 
d="M1148 608l-348.003 0.000976562l26 117h482l-138 -648c-128.667 -68.667 -266 -103 -412 -103c-122.667 0 -230.5 26 -323.5 78s-164.5 126.833 -214.5 224.5s-75 208.5 -75 332.5c0 166.667 34 314.667 102 444s164.333 229.166 289 299.499
s267.334 105.5 428.001 105.5c100.667 0 202.334 -16.667 305.001 -50c18 89.333 49 154.833 93 196.5s104 62.5 180 62.5c38.667 0 74.667 -7.33301 108 -22l-25 -114c-26.667 15.333 -55.667 23 -87 23c-47.333 0 -83.166 -15.167 -107.499 -45.5
s-42.166 -76.5 -53.499 -138.5l-26 -140c-126.667 73.333 -262.667 110 -408 110c-200 0 -360.333 -66 -481 -198s-181 -305.667 -181 -521c0 -165.333 43.167 -294.5 129.5 -387.5s206.5 -139.5 360.5 -139.5c99.333 0 192.666 18 279.999 54z" />
    <glyph glyph-name="uni0194" unicode="&#x194;" horiz-adv-x="1277" 
d="M464 122l-232 1312h140l175 -1058l11 -109v-32h4c15.333 35.333 34.333 72.333 57 111l656 1088h150l-817 -1329c35.333 -141.333 53 -255.333 53 -342c0 -74 -21 -133.333 -63 -178s-99 -67 -171 -67c-58 0 -102.833 16 -134.5 48s-47.5 74.333 -47.5 127
c0 44 14.5 94.833 43.5 152.5s87.5 149.834 175.5 276.501zM503 -16.001c-50.667 -82.667 -84.499 -142.668 -101.499 -180.001s-25.5 -70.666 -25.5 -99.999c0 -22 5.66699 -39.167 17 -51.5s26.666 -18.5 45.999 -18.5c28 0 50.333 10.167 67 30.5s25 50.5 25 90.5
c0 64.667 -9.33301 141 -28 229z" />
    <glyph glyph-name="uni0195" unicode="&#x195;" horiz-adv-x="1801" 
d="M377 1516l124.999 -0.000976562l-161 -758h4c118.667 194 252 291 400 291c165.333 0 248 -94 248 -282c0 -40.667 -8.66699 -100 -26 -178c-23.333 -110 -36.666 -178.167 -39.999 -204.5s-5 -47.166 -5 -62.499c0 -158.667 80 -238 240 -238
c121.333 0 217.5 57.833 288.5 173.5s106.5 273.167 106.5 472.5c0 102 -12 200 -36 294h137c23.333 -90.667 35 -187.667 35 -291c0 -232 -48.167 -416.333 -144.5 -553s-228.166 -205 -395.499 -205c-120.667 0 -210 29.333 -268 88s-87 140.334 -87 245.001
c0 42 6.33301 91 19 147c27.333 136 42.833 217.167 46.5 243.5s5.5 44.166 5.5 53.499c0 124.667 -53 187 -159 187c-50.667 0 -106.334 -21.167 -167.001 -63.5s-115.5 -99.333 -164.5 -171s-81.167 -144.5 -96.5 -218.5l-102 -486h-127z" />
    <glyph glyph-name="uni0196" unicode="&#x196;" horiz-adv-x="562" 
d="M381 1434l129 0.000976562l-243 -1139c-12 -50 -18 -87.667 -18 -113c0 -26 7.5 -46.5 22.5 -61.5s36.833 -22.5 65.5 -22.5c36.667 0 66.334 4 89.001 12l-24 -107c-30.667 -10.667 -64.334 -16 -101.001 -16c-62 0 -108 15.333 -138 46s-45 72 -45 124
c0 27.333 6.66699 73.666 20 138.999z" />
    <glyph glyph-name="uni0197" unicode="&#x197;" horiz-adv-x="514" 
d="M216 660h-155l25 119h155l139 655h130l-139 -655h154l-25 -119h-154l-140 -660h-130z" />
    <glyph glyph-name="uni0198" unicode="&#x198;" horiz-adv-x="1162" 
d="M378 1434h133.001l-134 -637h4l41 42l470 431c85.333 79.333 149.166 130.5 191.499 153.5s84.5 34.5 126.5 34.5c42.667 0 80.667 -8.33301 114 -25l-25 -119c-32 16.667 -63 25 -93 25c-28 0 -58.167 -10.333 -90.5 -31s-70.5 -51 -114.5 -91l-498 -449l536 -768h-163
l-478 704l-28 49h-4l-159 -753h-132z" />
    <glyph glyph-name="uni0199" unicode="&#x199;" horiz-adv-x="943" 
d="M666 1539c48 0 89.001 -5.66699 123.001 -17l-23 -112c-30 13.333 -65.333 20 -106 20c-63.333 0 -112.833 -20.167 -148.5 -60.5s-61.834 -99.5 -78.501 -177.5l-134 -628h4l542 460h169l-587 -489l384 -535h-150l-365 529h-4l-112 -529h-127l259 1210
c46.667 219.333 164.667 329 354 329z" />
    <glyph glyph-name="uni019A" unicode="&#x19a;" horiz-adv-x="459" 
d="M208 724h-139l24 109h138l146 683h126l-145 -683h138l-24 -109h-138l-154 -724h-126z" />
    <glyph glyph-name="uni019B" unicode="&#x19b;" horiz-adv-x="1020" 
d="M597 1026l-14.002 92l-324 -145l-31 90l340 151c-10 68 -26 117 -48 147s-56 45 -102 45c-31.333 0 -68 -5.33301 -110 -16l27 118c38.667 8 76.334 12 113.001 12c70.667 0 123.834 -19.333 159.501 -58s62.167 -103.667 79.5 -195l282 126l32 -90l-297 -132l173 -1171
h-131l-119 877l-569 -877h-144z" />
    <glyph glyph-name="uni019C" unicode="&#x19c;" horiz-adv-x="1800" 
d="M1426 232l-4 -0.000976562c-58 -86 -118.667 -150.333 -182 -193s-132.333 -64 -207 -64c-156 0 -238 82.667 -246 248c-64 -87.333 -128 -150.5 -192 -189.5s-134.667 -58.5 -212 -58.5c-171.333 0 -257 88.667 -257 266c0 50.667 9 118.334 27 203.001l210 990h130
l-207 -989c-18.667 -86.667 -28 -148 -28 -184c0 -58 12.833 -100.833 38.5 -128.5s66.834 -41.5 123.501 -41.5c55.333 0 111.666 19 168.999 57s106.833 87.167 148.5 147.5s68.5 120.5 80.5 180.5l202 958h130l-208 -998c-17.333 -82 -26 -137 -26 -165
c0 -66 13 -112.5 39 -139.5s67 -40.5 123 -40.5c53.333 0 108.833 20.667 166.5 62s108.167 95 151.5 161s71.333 130 84 192l197 928h130l-303 -1434h-128z" />
    <glyph glyph-name="uni019D" unicode="&#x19d;" horiz-adv-x="1489" 
d="M-261 -218c12 -7.33301 28.166 -13.334 48.499 -18.001s38.5 -7 54.5 -7c66.667 0 118.5 23.333 155.5 70s65.833 119 86.5 217l294 1390h129l564 -1138c14 -24.667 27.333 -56 40 -94h4l19 123l236 1109h131l-305 -1434h-116l-578 1154
c-13.333 26.667 -24.666 56.334 -33.999 89.001h-5l-13 -84l-237 -1116c-30.667 -144.667 -75.5 -248.334 -134.5 -311.001s-139.5 -94 -241.5 -94c-19.333 0 -42.5 2.83301 -69.5 8.5s-45.167 10.834 -54.5 15.501z" />
    <glyph glyph-name="uni019E" unicode="&#x19e;" horiz-adv-x="1149" 
d="M253 861c0 40 -20.667 60 -62 60l-41 -4l21 102c16.667 4.66699 42 7 76 7c88.667 0 133 -36 133 -108c0 -33.333 -8.66699 -90 -26 -170h4c128 200.667 270.667 301 428 301c83.333 0 146.333 -24 189 -72s64 -115 64 -201c0 -12.667 -1.16699 -28.5 -3.5 -47.5
s-11.5 -70.167 -27.5 -153.5l-223 -1055h-125l222 1066c17.333 81.333 26 139.333 26 174c0 120 -55 180 -165 180c-53.333 0 -110.833 -22 -172.5 -66s-117.667 -102.833 -168 -176.5s-82.833 -146.167 -97.5 -217.5l-103 -480h-126l148 690
c19.333 91.333 29 148.333 29 171z" />
    <glyph glyph-name="uni019F" unicode="&#x19f;" horiz-adv-x="1544" 
d="M722 -25c-176.667 0 -317.001 55.6689 -421.001 167.002s-156 260.666 -156 447.999c0 161.333 33.667 309.333 101 444s159.833 239 277.5 313s248.834 111 393.501 111c172 0 310.167 -55.333 414.5 -166s156.5 -258.334 156.5 -443.001
c0 -164 -33.167 -313.167 -99.5 -447.5s-158 -239 -275 -314s-247.5 -112.5 -391.5 -112.5zM1348 776.002l3 66.999c0 152.667 -39.667 273.667 -119 363s-187 134 -323 134c-100 0 -192.667 -23.667 -278 -71s-156.833 -114.166 -214.5 -200.499
s-96.5 -183.833 -116.5 -292.5h1048zM283.999 656.001l-3 -66c0 -154 39.5 -275.167 118.5 -363.5s188.5 -132.5 328.5 -132.5c152.667 0 284.167 51.833 394.5 155.5s179.833 239.167 208.5 406.5h-1047z" />
    <glyph glyph-name="Ohorn" unicode="&#x1a0;" horiz-adv-x="1590" 
d="M1401 1248l-17.002 -0.00292969l-18 1c81.333 -106 122 -239.333 122 -400c0 -161.333 -33.667 -310.166 -101 -446.499s-159.166 -241.666 -275.499 -315.999s-246.166 -111.5 -389.499 -111.5c-177.333 0 -317.833 55.5 -421.5 166.5s-155.5 260.5 -155.5 448.5
c0 160.667 33.5 308.334 100.5 443.001s159.5 239.167 277.5 313.5s249.333 111.5 394 111.5c134.667 0 249.667 -35 345 -105c24.667 -6.66699 58 -10 100 -10c82.667 0 142 16 178 48s54 83.667 54 155l-3 52h109l3 -57c0 -89.333 -27.5 -160.5 -82.5 -213.5
s-128.167 -79.5 -219.5 -79.5zM727.998 93.9971c119.333 0 225.667 31.834 319 95.501s167.333 154.667 222 273s82 245.166 82 380.499c0 153.333 -40.333 274.5 -121 363.5s-187.667 133.5 -321 133.5c-118.667 0 -226.167 -32.833 -322.5 -98.5s-171.333 -156 -225 -271
s-80.5 -241.833 -80.5 -380.5c0 -154.667 39.5 -276 118.5 -364s188.5 -132 328.5 -132z" />
    <glyph glyph-name="ohorn" unicode="&#x1a1;" horiz-adv-x="1120" 
d="M1201 1271l2 -25.998v-28c0 -86.667 -25.667 -156 -77 -208s-122 -80.667 -212 -86c55.333 -68.667 83 -159.667 83 -273c0 -124.667 -23.167 -238.834 -69.5 -342.501s-111.5 -185 -195.5 -244s-178.333 -88.5 -283 -88.5c-116 0 -206.5 35.667 -271.5 107
s-97.5 169 -97.5 293c0 123.333 23.833 237 71.5 341s113.667 185.5 198 244.5s177.5 88.5 279.5 88.5c46.667 0 90 -6.66699 130 -20c40 -8 84.333 -12 133 -12c65.333 0 115.5 17.667 150.5 53s52.5 86.666 52.5 153.999v24l-2 23h108zM458 85.002
c74.667 0 143.831 24.6689 207.498 74.002s113.334 117.166 149.001 203.499s53.5 179.166 53.5 278.499c0 96.667 -22 170.5 -66 221.5s-105 76.5 -183 76.5c-114 0 -210.833 -53.5 -290.5 -160.5s-119.5 -238.833 -119.5 -395.5c0 -93.333 22.333 -166.333 67 -219
s105.334 -79 182.001 -79z" />
    <glyph glyph-name="uni01A2" unicode="&#x1a2;" horiz-adv-x="1960" 
d="M1805 1304c-82.667 -20 -171 -30 -265 -30c-26.667 0 -67.334 2.33301 -122.001 7l-250 -1184c-132.667 -82 -274.667 -123 -426 -123c-120 0 -225.167 26 -315.5 78s-159.833 126 -208.5 222s-73 205 -73 327c0 165.333 35.167 314.333 105.5 447
s165.333 234.167 285 304.5s255.167 105.5 406.5 105.5c56 0 152.667 -11.333 290 -34c136.667 -22.667 246.667 -34 330 -34c65.333 0 124.333 3.83301 177 11.5s129.334 26.5 230.001 56.5l-309 -1458h-131zM1291 1295l-72 13.001c-114.667 21.333 -210.667 32 -288 32
c-126 0 -238.833 -31 -338.5 -93s-176.5 -148.833 -230.5 -260.5s-81 -236.834 -81 -375.501c0 -160.667 42 -287 126 -379s199.333 -138 346 -138c112.667 0 212.667 24 300 72z" />
    <glyph glyph-name="uni01A3" unicode="&#x1a3;" horiz-adv-x="1550" 
d="M1335 894c-72 -18 -141.333 -27.002 -208 -27.002c-39.333 0 -78.333 3 -117 9l-168 -814c-110.667 -58 -235 -87 -373 -87c-123.333 0 -219 35.333 -287 106s-102 170.334 -102 299.001c0 125.333 24.5 239.333 73.5 342s117.5 182.834 205.5 240.501
s185.333 86.5 292 86.5c48.667 0 94.5 -3.83301 137.5 -11.5s84.667 -16 125 -25s79.833 -17.333 118.5 -25s77.667 -11.5 117 -11.5c129.333 0 244 24.333 344 73l-217 -1049h-126zM892 899.998c-40 9.33301 -80.167 18.167 -120.5 26.5s-83.833 12.5 -130.5 12.5
c-78.667 0 -151.5 -24 -218.5 -72s-119.333 -114.167 -157 -198.5s-56.5 -177.833 -56.5 -280.5c0 -96.667 23.5 -171.5 70.5 -224.5s116.833 -79.5 209.5 -79.5c41.333 0 84 4.5 128 13.5s82.667 21.5 116 37.5z" />
    <glyph glyph-name="uni01A4" unicode="&#x1a4;" horiz-adv-x="1265" 
d="M474 1315c-172.667 -2.66699 -259.001 -85.6699 -259.001 -249.003c0 -26.667 1.66699 -46.667 5 -60h-124c-3.33301 16.667 -5 37.334 -5 62.001c0 116.667 33.833 206.834 101.5 270.501s170.167 95.5 307.5 95.5h340c132.667 0 235.834 -33.167 309.501 -99.5
s110.5 -158.166 110.5 -275.499c0 -154 -50.833 -275.667 -152.5 -365s-240.167 -134 -415.5 -134h-244l-119 -560h-133zM701.999 678.997c136.667 0 241.167 32.1689 313.5 96.502s108.5 155.166 108.5 272.499c0 83.333 -26.333 148.666 -79 195.999s-130 71 -232 71h-205
l-135 -636h229z" />
    <glyph glyph-name="uni01A5" unicode="&#x1a5;" horiz-adv-x="1089" 
d="M666 1539c48 0 89.001 -6.33301 123.001 -19l-21 -108c-34.667 12 -70.667 18 -108 18c-63.333 0 -112.833 -20.167 -148.5 -60.5s-61.834 -99.5 -78.501 -177.5l-47 -221l-54 -214h5c110 194.667 237.333 292 382 292c92.667 0 164.167 -31.667 214.5 -95
s75.5 -156.333 75.5 -279c0 -127.333 -27.5 -245.833 -82.5 -355.5s-129 -194.5 -222 -254.5s-195.5 -90 -307.5 -90c-74.667 0 -146.667 13 -216 39l-104 -492h-126l360 1688c46.667 219.333 165 329 355 329zM203.001 125c58.667 -26.667 128 -40.002 208 -40.002
c87.333 0 167 25.667 239 77s128.333 121.5 169 210.5s61 185.833 61 290.5c0 184 -65.333 276 -196 276c-54.667 0 -111.167 -24.667 -169.5 -74s-110.333 -115.666 -156 -198.999s-77.5 -168.666 -95.5 -255.999z" />
    <glyph glyph-name="uni01A6" unicode="&#x1a6;" horiz-adv-x="1147" 
d="M376 1434h132l-35 -163h247c120.667 0 214.667 -30.167 282 -90.5s101 -145.5 101 -255.5c0 -116.667 -39.333 -213.5 -118 -290.5s-184.334 -120.167 -317.001 -129.5v-4c64.667 -25.333 110.334 -90.333 137.001 -195l117 -458h-141l-106 430
c-16.667 67.333 -42.5 116.833 -77.5 148.5s-84.833 47.5 -149.5 47.5h-143l-98 -474h-132zM564 592c127.333 0 226.333 28.667 297 86s106 136 106 236c0 74.667 -23 133 -69 175s-113 63 -201 63h-249l-118 -560h234z" />
    <glyph glyph-name="uni01A7" unicode="&#x1a7;" horiz-adv-x="1050" 
d="M474 -25c-126.667 0 -224.667 29.666 -294 88.999s-104 143.666 -104 252.999c0 107.333 33.167 197.5 99.5 270.5s178.5 140.167 336.5 201.5c152.667 58 254.667 109.833 306 155.5s77 108.5 77 188.5c0 64.667 -23.333 115.167 -70 151.5s-113.667 54.5 -201 54.5
c-62 0 -121.5 -7.16699 -178.5 -21.5s-103.167 -32.166 -138.5 -53.499l29 142c90.667 34.667 192.334 52 305.001 52c120 0 215.167 -28.333 285.5 -85s105.5 -133.667 105.5 -231c0 -102.667 -31.333 -186.667 -94 -252s-174.667 -128.666 -336 -189.999
c-148 -56 -249.833 -112.333 -305.5 -169s-83.5 -126 -83.5 -208c0 -74 22.667 -130.833 68 -170.5s112.666 -59.5 201.999 -59.5c64 0 130.667 10.667 200 32s130.333 50.333 183 87l-32 -146c-38.667 -24.667 -92.667 -46 -162 -64s-135.333 -27 -198 -27z" />
    <glyph glyph-name="uni01A8" unicode="&#x1a8;" horiz-adv-x="843" 
d="M359 -25c-98.667 0 -174.833 22.168 -228.5 66.501s-80.5 108.166 -80.5 191.499c0 74 24.167 136 72.5 186s140.166 99.333 275.499 148c91.333 32.667 152.166 58.5 182.499 77.5s52.833 40.167 67.5 63.5s22 51.333 22 84c0 48 -16.167 84.667 -48.5 110
s-76.833 38 -133.5 38c-92 0 -179 -23 -261 -69l28 128c75.333 33.333 155.333 50 240 50c92 0 165.667 -21.833 221 -65.5s83 -101.834 83 -174.501c0 -81.333 -25.167 -147 -75.5 -197s-137.166 -96.333 -260.499 -139c-83.333 -29.333 -142.666 -54.666 -177.999 -75.999
s-61.833 -45 -79.5 -71s-26.5 -56.333 -26.5 -91c0 -100.667 63.333 -151 190 -151c110 0 213.667 30.333 311 91l-28 -134c-89.333 -44 -187 -66 -293 -66z" />
    <glyph glyph-name="uni01A9" unicode="&#x1a9;" horiz-adv-x="1057" 
d="M610 760l-336 621l10 53h882l-24 -119h-686l307 -563l-630 -633h800l-24 -119h-1003l15 71z" />
    <glyph glyph-name="uni01AA" unicode="&#x1aa;" horiz-adv-x="525" 
d="M370 1090c-37.333 -17.333 -80.667 -26 -130 -26c-61.333 0 -111.5 19.333 -150.5 58s-58.5 88.334 -58.5 149.001c0 77.333 26.167 141.166 78.5 191.499s118.166 75.5 197.499 75.5c71.333 0 127 -18.667 167 -56s60 -89.333 60 -156c0 -28 -7 -78 -21 -150l-282 -1332
c-10.667 -48.667 -16 -89 -16 -121c0 -63.333 31.667 -95 95 -95c39.333 0 80.333 10.333 123 31l-23 -114c-37.333 -17.333 -81.666 -26 -132.999 -26c-126.667 0 -190 61.667 -190 185c0 38 5.33301 81.333 16 130zM410.999 1314c0 34.667 -10 62.5 -30 83.5
s-47 31.5 -81 31.5c-42.667 0 -77.667 -13.5 -105 -40.5s-41 -62.5 -41 -106.5c0 -30.667 9.33301 -56.5 28 -77.5s47 -31.5 85 -31.5c48.667 0 91 9.33301 127 28c11.333 47.333 17 85 17 113z" />
    <glyph glyph-name="uni01AB" unicode="&#x1ab;" horiz-adv-x="633" 
d="M59 -229c33.333 -16 69 -24 107 -24c46 0 82.5 14 109.5 42s47.5 73.333 61.5 136l13 62c-14 -4 -26.333 -6 -37 -6c-122.667 0 -184 63.333 -184 190c0 39.333 6.33301 86.666 19 141.999l129 602h-179l25 109h176l55 259l135 41l-64 -300h267l-25 -109h-265l-127 -597
c-12 -54 -18 -98 -18 -132c0 -33.333 7 -57.666 21 -72.999s37.333 -23 70 -23c16.667 0 40.5 4.83301 71.5 14.5s58.5 20.5 82.5 32.5l-45 -212c-22 -100.667 -56 -173.667 -102 -219s-110 -68 -192 -68c-46 0 -88 8 -126 24z" />
    <glyph glyph-name="uni01AC" unicode="&#x1ac;" horiz-adv-x="1038" 
d="M621 1315l-127 -0.000976562c-172 0 -258 -83 -258 -249c0 -26.667 1.66699 -46.667 5 -60h-124c-4 22 -6 42.667 -6 62c0 116.667 34 206.834 102 270.501s170.667 95.5 308 95.5h669l-25 -119h-414l-279 -1315h-130z" />
    <glyph glyph-name="uni01AD" unicode="&#x1ad;" horiz-adv-x="649" 
d="M277 915l-178.997 -0.000976562l25 109h176l42 193c48 214.667 161 322 339 322c50 0 93.333 -7 130 -21l-25 -116c-33.333 18.667 -70.333 28 -111 28c-108.667 0 -179.334 -77 -212.001 -231l-37 -175h267l-25 -109h-265l-127 -597c-12 -54 -18 -98 -18 -132
c0 -33.333 7 -57.666 21 -72.999s37.333 -23 70 -23c31.333 0 82.333 15.667 153 47l-25 -114c-22.667 -11.333 -49.834 -21.166 -81.501 -29.499s-58.834 -12.5 -81.501 -12.5c-122.667 0 -184 63.333 -184 190c0 39.333 6.33301 86.666 19 141.999z" />
    <glyph glyph-name="uni01AE" unicode="&#x1ae;" horiz-adv-x="1061" 
d="M608 -360c-84.667 0 -149.833 23.167 -195.5 69.5s-68.5 110.5 -68.5 192.5c0 42 5.33301 85 16 129l272 1284h-415l25 119h958l-26 -119h-410l-273 -1285c-9.33301 -42.667 -14 -79.667 -14 -111c0 -108 50.667 -162 152 -162c38 0 77.333 6.33301 118 19l-23 -117
c-41.333 -12.667 -80 -19 -116 -19z" />
    <glyph glyph-name="Uhorn" unicode="&#x1af;" horiz-adv-x="1412" 
d="M360 1434l133.002 -0.000976562l-168 -789c-18.667 -86 -28 -158.333 -28 -217c0 -111.333 29.5 -194.833 88.5 -250.5s140.5 -83.5 244.5 -83.5c120.667 0 215.667 34.667 285 104s120.666 180.666 153.999 333.999l192 902h109c83.333 0 143 15.833 179 47.5
s54 83.5 54 155.5l-3 52h108l3 -57c0 -90 -27.833 -161.333 -83.5 -214s-129.834 -79 -222.501 -79h-32l-167 -785c-44.667 -209.333 -113 -358.166 -205 -446.499s-222 -132.5 -390 -132.5c-137.333 0 -246 39.333 -326 118s-120 185.334 -120 320.001
c0 69.333 8 142 24 218z" />
    <glyph glyph-name="uhorn" unicode="&#x1b0;" horiz-adv-x="1175" 
d="M260 1024h126.002l-124 -594c-16.667 -84.667 -25 -137.334 -25 -158.001c0 -124.667 54 -187 162 -187c53.333 0 111.166 22 173.499 66s117.833 101.5 166.5 172.5s80.667 141.833 96 212.5l104 488h92c63.333 0 112 18 146 54s51 87 51 153v23l-2 23h108l2 -26v-27
c0 -88 -25.333 -157.667 -76 -209s-122.334 -79.666 -215.001 -84.999l-137 -642c-22.667 -106 -38.667 -202 -48 -288h-123l43 268h-4c-58 -94 -122.333 -166.333 -193 -217s-143 -76 -217 -76c-86.667 0 -151.5 24.5 -194.5 73.5s-64.5 118.5 -64.5 208.5
c0 23.333 10.667 90 32 200z" />
    <glyph glyph-name="uni01B1" unicode="&#x1b1;" horiz-adv-x="1581" 
d="M315 1434l494.999 -0.00390625l-25 -123c-165.333 -85.333 -291.666 -193.166 -378.999 -323.499s-131 -275.166 -131 -434.499c0 -135.333 42.333 -245.666 127 -330.999s196 -128 334 -128c122 0 232.333 30.667 331 92s175.5 146.666 230.5 255.999
s82.5 230.666 82.5 363.999c0 107.333 -17.167 197.833 -51.5 271.5s-95.5 151.5 -183.5 233.5l25 123h495l-23 -116h-358c76.667 -66 135.667 -143.167 177 -231.5s62 -183.166 62 -284.499c0 -157.333 -34.333 -299 -103 -425s-163.834 -224.333 -285.501 -295
s-256.167 -106 -403.5 -106c-116.667 0 -220.667 23.833 -312 71.5s-162.5 114.834 -213.5 201.501s-76.5 184.334 -76.5 293.001c0 160.667 44.333 309 133 445s212.334 246.333 371.001 331h-342z" />
    <glyph glyph-name="uni01B2" unicode="&#x1b2;" horiz-adv-x="1462" 
d="M357 1434l131 -0.00292969l-177 -839c-16.667 -79.333 -25 -150.666 -25 -213.999c0 -93.333 26.333 -164.5 79 -213.5s128.334 -73.5 227.001 -73.5c120.667 0 233.667 42.833 339 128.5s191 205.334 257 359.001s99 308.834 99 465.501
c0 94 -17.167 166.167 -51.5 216.5s-83.5 75.5 -147.5 75.5c-60.667 0 -114 -12.667 -160 -38l26 130c48.667 18 101 27 157 27c96.667 0 172.667 -36.333 228 -109s83 -172.667 83 -300c0 -180 -39.333 -355.833 -118 -527.5s-180.834 -305.667 -306.501 -402
s-262.5 -144.5 -410.5 -144.5c-135.333 0 -241.333 34.667 -318 104s-115 167 -115 293c0 69.333 8.66699 144.333 26 225z" />
    <glyph glyph-name="uni01B3" unicode="&#x1b3;" horiz-adv-x="1150" 
d="M373 0l114 537l-263 897h141l194 -668c12 -44 19.333 -77.333 22 -100h4l54 85l365 517c50.667 71.333 96.667 120.833 138 148.5s87 41.5 137 41.5c38.667 0 74 -8 106 -24l-26 -122c-26 18 -57.333 27 -94 27c-26 0 -52.5 -11.833 -79.5 -35.5
s-57.5 -59.167 -91.5 -106.5l-475 -661l-114 -536h-132z" />
    <glyph glyph-name="uni01B4" unicode="&#x1b4;" horiz-adv-x="1052" 
d="M-139 -348c21.333 -12 47.6689 -18 79.002 -18c48 0 91.167 14 129.5 42s75.833 71.333 112.5 130l129 203l-183 1015h129l134 -809l7 -77h5l32 64l332 554c66 110 126.667 186.333 182 229s119 64 191 64c37.333 0 68.666 -5.33301 93.999 -16l-25 -117
c-24 12 -50 18 -78 18c-40.667 0 -78.834 -13.167 -114.501 -39.5s-74.167 -72.5 -115.5 -138.5l-576 -937c-71.333 -114 -136.5 -192.5 -195.5 -235.5s-126.167 -64.5 -201.5 -64.5c-37.333 0 -68 5 -92 15z" />
    <glyph glyph-name="uni01B5" unicode="&#x1b5;" horiz-adv-x="1167" 
d="M487 660h-250l24 119h329l469 535h-772l25 120h986l-8 -40l-540 -615h267l-24 -119h-346l-474 -540h829l-25 -120h-1037l9 46z" />
    <glyph glyph-name="uni01B6" unicode="&#x1b6;" horiz-adv-x="939" 
d="M349 472h-181l23 110h261l316 333h-584l24 109h788l-7 -40l-381 -402h189l-23 -110h-269l-344 -363h625l-24 -109h-825l9 48z" />
    <glyph glyph-name="uni01B7" unicode="&#x1b7;" horiz-adv-x="1212" 
d="M-131 -236c66.667 -37.333 143.833 -67.667 231.5 -91s172.5 -35 254.5 -35c182.667 0 323.834 46.333 423.501 139s149.5 222 149.5 388c0 127.333 -41 225.666 -123 294.999s-197.667 104 -347 104h-106l17 91l633 659h-779l25 120h986l-13 -67l-668 -687
c155.333 -7.33301 279.666 -56.666 372.999 -147.999s140 -211 140 -359c0 -199.333 -63 -358.333 -189 -477s-298.667 -178 -518 -178c-90 0 -182.5 10 -277.5 30s-176.5 46 -244.5 78z" />
    <glyph glyph-name="uni01B8" unicode="&#x1b8;" horiz-adv-x="1212" 
d="M560 -483c-184.667 0 -326.667 44.668 -426 134.001s-149 216.666 -149 381.999c0 184.667 66.833 335 200.5 451s317.834 180.333 552.501 193l-407 691l15 66h989l-25 -119h-806l400 -681l-14 -70h-90c-208.667 0 -373.5 -46.167 -494.5 -138.5
s-181.5 -220.833 -181.5 -385.5c0 -269.333 144.667 -404 434 -404c163.333 0 326.666 39.333 489.999 118l-32 -137c-142 -66.667 -294 -100 -456 -100z" />
    <glyph glyph-name="uni01B9" unicode="&#x1b9;" horiz-adv-x="903" 
d="M397 -480c-144.667 0 -257.667 35.166 -339 105.499s-122 166.5 -122 288.5c0 148 49.333 267.333 148 358s232 140 400 148l-300 554l11 50h786l-23 -110h-610l288 -540l-11 -58h-69c-151.333 0 -270.666 -35.5 -357.999 -106.5s-131 -169.167 -131 -294.5
c0 -91.333 29.5 -161.666 88.5 -210.999s141.833 -74 248.5 -74c70 0 133.667 8 191 24s114.666 39.667 171.999 71l-28 -129c-101.333 -50.667 -215.333 -76 -342 -76z" />
    </font>
</defs>
</svg>
